<svg width="207" height="207" viewBox="0 0 207 207" fill="none" xmlns="http://www.w3.org/2000/svg">
<path fill-rule="evenodd" clip-rule="evenodd" d="M207 103.5C207 160.661 160.661 207 103.5 207C46.3385 207 0 160.661 0 103.5C0 46.3385 46.3385 0 103.5 0C160.661 0 207 46.3385 207 103.5ZM123 47.5C123 58.2696 114.27 120 103.5 120C92.7305 120 84 58.2696 84 47.5C84 36.7304 92.7305 28 103.5 28C114.27 28 123 36.7304 123 47.5ZM103.5 178C114.27 178 123 169.27 123 158.5C123 147.73 114.27 139 103.5 139C92.7305 139 84 147.73 84 158.5C84 169.27 92.7305 178 103.5 178Z" fill="#E76666"/>
</svg>
