<svg width="489" height="428" viewBox="0 0 489 428" fill="none" xmlns="http://www.w3.org/2000/svg">
<path fill-rule="evenodd" clip-rule="evenodd" d="M296.864 129.626H192.004L133.898 27.7182C121.588 6.12835 94.1062 -1.39432 72.5163 10.9159L62.0918 16.8597C40.502 29.1699 32.9793 56.6513 45.2895 78.2412L74.5885 129.626H50C25.1472 129.626 5 149.774 5 174.626V186.626C5 207.175 18.7734 224.507 37.5919 229.894L80.3227 389.279C85.5963 408.95 103.423 422.626 123.788 422.626H365.14C385.183 422.626 402.809 409.371 408.372 390.115L455.002 228.698C471.955 222.246 484 205.843 484 186.626V174.626C484 149.774 463.853 129.626 439 129.626H414.279L443.578 78.2412C455.889 56.6513 448.366 29.1699 426.776 16.8597L416.352 10.9159C394.762 -1.39432 367.28 6.12835 354.97 27.7182L296.864 129.626ZM433.339 231.626H58.7627L99.6405 384.1C102.57 395.028 112.474 402.626 123.788 402.626H365.14C376.275 402.626 386.067 395.262 389.158 384.565L433.339 231.626ZM168.981 129.626H97.6112L62.6637 68.3347C55.8247 56.3403 60.0039 41.0729 71.9983 34.2339L82.4228 28.29C94.4172 21.451 109.685 25.6303 116.524 37.6247L168.981 129.626ZM426.204 68.3347L391.257 129.626H319.887L372.344 37.6247C379.183 25.6303 394.451 21.451 406.445 28.29L416.87 34.2339C428.864 41.0729 433.043 56.3403 426.204 68.3347ZM50 149.626H439C452.807 149.626 464 160.819 464 174.626V186.626C464 200.434 452.807 211.626 439 211.626H50C36.1929 211.626 25 200.434 25 186.626V174.626C25 160.819 36.1929 149.626 50 149.626ZM238 272.626C230.268 272.626 224 278.894 224 286.626V357.626C224 365.358 230.268 371.626 238 371.626H250C257.732 371.626 264 365.358 264 357.626V286.626C264 278.894 257.732 272.626 250 272.626H238ZM357.268 284.396C350.054 281.616 341.951 285.211 339.171 292.426L320.863 339.937C318.083 347.151 321.678 355.254 328.892 358.034L339.384 362.077C346.599 364.857 354.701 361.262 357.481 354.047L375.789 306.537C378.57 299.322 374.975 291.219 367.76 288.439L357.268 284.396ZM148.271 292.426C145.491 285.211 137.388 281.616 130.173 284.396L119.682 288.439C112.467 291.219 108.872 299.322 111.652 306.537L129.96 354.047C132.74 361.262 140.843 364.857 148.058 362.077L158.549 358.034C165.764 355.254 169.359 347.151 166.579 339.937L148.271 292.426Z" fill="#7F7569"/>
<path d="M192.004 129.626L187.661 132.103L189.099 134.626H192.004V129.626ZM296.864 129.626V134.626H299.769L301.207 132.103L296.864 129.626ZM133.898 27.7182L138.241 25.2416L138.241 25.2416L133.898 27.7182ZM72.5163 10.9159L74.993 15.2594L74.993 15.2594L72.5163 10.9159ZM62.0918 16.8597L59.6152 12.5162L59.6152 12.5162L62.0918 16.8597ZM45.2895 78.2412L40.9459 80.7178L40.9459 80.7178L45.2895 78.2412ZM74.5885 129.626V134.626H83.1951L78.9321 127.15L74.5885 129.626ZM37.5919 229.894L42.4214 228.599L41.6886 225.866L38.9679 225.087L37.5919 229.894ZM80.3227 389.279L75.4933 390.574L75.4933 390.574L80.3227 389.279ZM408.372 390.115L403.568 388.728L403.568 388.728L408.372 390.115ZM455.002 228.698L453.224 224.025L450.891 224.913L450.199 227.31L455.002 228.698ZM414.279 129.626L409.936 127.15L405.673 134.626H414.279V129.626ZM443.578 78.2412L447.922 80.7178L447.922 80.7178L443.578 78.2412ZM426.776 16.8597L424.3 21.2033L424.3 21.2033L426.776 16.8597ZM416.352 10.9159L413.875 15.2594L413.875 15.2594L416.352 10.9159ZM354.97 27.7182L350.627 25.2416L350.627 25.2416L354.97 27.7182ZM433.339 231.626L438.142 233.014L439.987 226.626H433.339V231.626ZM58.7627 231.626V226.626H52.2456L53.9332 232.921L58.7627 231.626ZM99.6405 384.1L94.8111 385.395L94.8111 385.395L99.6405 384.1ZM389.158 384.565L393.961 385.952L393.961 385.952L389.158 384.565ZM97.6112 129.626L93.2677 132.103L94.7064 134.626H97.6112V129.626ZM168.981 129.626V134.626H177.588L173.325 127.15L168.981 129.626ZM62.6637 68.3347L67.0072 65.8581L62.6637 68.3347ZM71.9983 34.2339L74.4749 38.5775L74.4749 38.5775L71.9983 34.2339ZM82.4228 28.29L84.8994 32.6336L82.4228 28.29ZM116.524 37.6247L112.18 40.1013L112.18 40.1013L116.524 37.6247ZM391.257 129.626V134.626H394.162L395.6 132.103L391.257 129.626ZM426.204 68.3347L430.548 70.8113L430.548 70.8113L426.204 68.3347ZM319.887 129.626L315.543 127.15L311.28 134.626H319.887V129.626ZM372.344 37.6247L368.001 35.148L368.001 35.1481L372.344 37.6247ZM406.445 28.29L403.969 32.6336L406.445 28.29ZM416.87 34.2339L414.393 38.5775L414.393 38.5775L416.87 34.2339ZM339.171 292.426L334.505 290.628L334.505 290.628L339.171 292.426ZM357.268 284.396L359.066 279.731L359.066 279.731L357.268 284.396ZM320.863 339.937L325.528 341.734L325.528 341.734L320.863 339.937ZM328.892 358.034L327.095 362.7L327.095 362.7L328.892 358.034ZM339.384 362.077L337.586 366.743L337.586 366.743L339.384 362.077ZM357.481 354.047L352.816 352.25L352.816 352.25L357.481 354.047ZM375.789 306.537L371.124 304.739L371.124 304.739L375.789 306.537ZM367.76 288.439L365.962 293.105L365.962 293.105L367.76 288.439ZM130.173 284.396L128.375 279.731L128.375 279.731L130.173 284.396ZM148.271 292.426L143.605 294.224L143.605 294.224L148.271 292.426ZM119.682 288.439L121.48 293.105L121.48 293.105L119.682 288.439ZM111.652 306.537L116.318 304.739L116.318 304.739L111.652 306.537ZM129.96 354.047L134.626 352.25L134.626 352.25L129.96 354.047ZM148.058 362.077L146.26 357.411L146.26 357.411L148.058 362.077ZM158.549 358.034L160.347 362.7L160.347 362.7L158.549 358.034ZM166.579 339.937L171.244 338.139L171.244 338.139L166.579 339.937ZM192.004 134.626H296.864V124.626H192.004V134.626ZM129.554 30.1948L187.661 132.103L196.348 127.15L138.241 25.2416L129.554 30.1948ZM74.993 15.2594C94.1839 4.31702 118.612 11.0038 129.554 30.1948L138.241 25.2416C124.563 1.25286 94.0285 -7.10566 70.0397 6.57231L74.993 15.2594ZM64.5685 21.2033L74.993 15.2594L70.0397 6.57231L59.6152 12.5162L64.5685 21.2033ZM49.633 75.7646C38.6907 56.5736 45.3775 32.1457 64.5685 21.2033L59.6152 12.5162C35.6265 26.1942 27.268 56.7291 40.9459 80.7178L49.633 75.7646ZM78.9321 127.15L49.633 75.7646L40.9459 80.7178L70.245 132.103L78.9321 127.15ZM50 134.626H74.5885V124.626H50V134.626ZM10 174.626C10 152.535 27.9086 134.626 50 134.626V124.626C22.3858 124.626 0 147.012 0 174.626H10ZM10 186.626V174.626H0V186.626H10ZM38.9679 225.087C22.2375 220.298 10 204.885 10 186.626H0C0 209.466 15.3094 228.717 36.216 234.701L38.9679 225.087ZM32.7625 231.189L75.4933 390.574L85.1522 387.985L42.4214 228.599L32.7625 231.189ZM75.4933 390.574C81.3528 412.43 101.16 427.626 123.788 427.626V417.626C105.686 417.626 89.8398 405.469 85.1522 387.985L75.4933 390.574ZM123.788 427.626H365.14V417.626H123.788V427.626ZM365.14 427.626C387.41 427.626 406.995 412.898 413.176 391.503L403.568 388.728C398.624 405.844 382.956 417.626 365.14 417.626V427.626ZM413.176 391.503L459.806 230.086L450.199 227.31L403.568 388.728L413.176 391.503ZM479 186.626C479 203.7 468.301 218.287 453.224 224.025L456.781 233.371C475.609 226.206 489 207.986 489 186.626H479ZM479 174.626V186.626H489V174.626H479ZM439 134.626C461.091 134.626 479 152.535 479 174.626H489C489 147.012 466.614 124.626 439 124.626V134.626ZM414.279 134.626H439V124.626H414.279V134.626ZM439.235 75.7646L409.936 127.15L418.623 132.103L447.922 80.7178L439.235 75.7646ZM424.3 21.2033C443.491 32.1457 450.177 56.5736 439.235 75.7646L447.922 80.7178C461.6 56.7291 453.242 26.1942 429.253 12.5162L424.3 21.2033ZM413.875 15.2594L424.3 21.2033L429.253 12.5162L418.828 6.57231L413.875 15.2594ZM359.314 30.1948C370.256 11.0038 394.684 4.31702 413.875 15.2594L418.828 6.57231C394.84 -7.10566 364.305 1.25286 350.627 25.2416L359.314 30.1948ZM301.207 132.103L359.314 30.1948L350.627 25.2416L292.52 127.15L301.207 132.103ZM433.339 226.626H58.7627V236.626H433.339V226.626ZM104.47 382.806L63.5921 230.332L53.9332 232.921L94.8111 385.395L104.47 382.806ZM123.788 397.626C114.737 397.626 106.814 391.548 104.47 382.806L94.8111 385.395C98.3268 398.509 110.211 407.626 123.788 407.626V397.626ZM365.14 397.626H123.788V407.626H365.14V397.626ZM384.354 383.177C381.882 391.735 374.048 397.626 365.14 397.626V407.626C378.502 407.626 390.253 398.789 393.961 385.952L384.354 383.177ZM428.535 230.239L384.354 383.177L393.961 385.952L438.142 233.014L428.535 230.239ZM97.6112 134.626H168.981V124.626H97.6112V134.626ZM58.3201 70.8113L93.2677 132.103L101.955 127.15L67.0072 65.8581L58.3201 70.8113ZM69.5217 29.8904C55.1284 38.0972 50.1133 56.4181 58.3201 70.8113L67.0072 65.8581C61.536 56.2626 64.8794 44.0486 74.4749 38.5775L69.5217 29.8904ZM79.9462 23.9465L69.5217 29.8904L74.4749 38.5775L84.8994 32.6336L79.9462 23.9465ZM120.867 35.1481C112.66 20.7548 94.3394 15.7397 79.9462 23.9465L84.8994 32.6336C94.4949 27.1624 106.709 30.5058 112.18 40.1013L120.867 35.1481ZM173.325 127.15L120.867 35.1481L112.18 40.1013L164.638 132.103L173.325 127.15ZM395.6 132.103L430.548 70.8113L421.861 65.8581L386.913 127.15L395.6 132.103ZM319.887 134.626H391.257V124.626H319.887V134.626ZM368.001 35.1481L315.543 127.15L324.23 132.103L376.688 40.1013L368.001 35.1481ZM408.922 23.9465C394.529 15.7397 376.208 20.7548 368.001 35.148L376.688 40.1013C382.159 30.5058 394.373 27.1624 403.969 32.6336L408.922 23.9465ZM419.346 29.8904L408.922 23.9465L403.969 32.6336L414.393 38.5775L419.346 29.8904ZM430.548 70.8113C438.755 56.4181 433.74 38.0972 419.346 29.8904L414.393 38.5775C423.989 44.0487 427.332 56.2626 421.861 65.8581L430.548 70.8113ZM439 144.626H50V154.626H439V144.626ZM469 174.626C469 158.058 455.569 144.626 439 144.626V154.626C450.046 154.626 459 163.581 459 174.626H469ZM469 186.626V174.626H459V186.626H469ZM439 216.626C455.569 216.626 469 203.195 469 186.626H459C459 197.672 450.046 206.626 439 206.626V216.626ZM50 216.626H439V206.626H50V216.626ZM20 186.626C20 203.195 33.4315 216.626 50 216.626V206.626C38.9543 206.626 30 197.672 30 186.626H20ZM20 174.626V186.626H30V174.626H20ZM50 144.626C33.4315 144.626 20 158.058 20 174.626H30C30 163.581 38.9543 154.626 50 154.626V144.626ZM229 286.626C229 281.656 233.029 277.626 238 277.626V267.626C227.507 267.626 219 276.133 219 286.626H229ZM229 357.626V286.626H219V357.626H229ZM238 366.626C233.029 366.626 229 362.597 229 357.626H219C219 368.12 227.507 376.626 238 376.626V366.626ZM250 366.626H238V376.626H250V366.626ZM259 357.626C259 362.597 254.971 366.626 250 366.626V376.626C260.493 376.626 269 368.12 269 357.626H259ZM259 286.626V357.626H269V286.626H259ZM250 277.626C254.971 277.626 259 281.656 259 286.626H269C269 276.133 260.493 267.626 250 267.626V277.626ZM238 277.626H250V267.626H238V277.626ZM343.836 294.224C345.624 289.586 350.832 287.275 355.471 289.062L359.066 279.731C349.275 275.958 338.278 280.837 334.505 290.628L343.836 294.224ZM325.528 341.734L343.836 294.224L334.505 290.628L316.197 338.139L325.528 341.734ZM330.69 353.369C326.052 351.581 323.741 346.373 325.528 341.734L316.197 338.139C312.424 347.93 317.303 358.927 327.095 362.7L330.69 353.369ZM341.182 357.411L330.69 353.369L327.095 362.7L337.586 366.743L341.182 357.411ZM352.816 352.25C351.029 356.888 345.82 359.199 341.182 357.411L337.586 366.743C347.377 370.516 358.374 365.637 362.147 355.845L352.816 352.25ZM371.124 304.739L352.816 352.25L362.147 355.845L380.455 308.335L371.124 304.739ZM365.962 293.105C370.6 294.892 372.911 300.101 371.124 304.739L380.455 308.335C384.228 298.543 379.349 287.547 369.558 283.773L365.962 293.105ZM355.471 289.062L365.962 293.105L369.558 283.774L359.066 279.731L355.471 289.062ZM131.971 289.062C136.609 287.275 141.818 289.586 143.605 294.224L152.936 290.628C149.163 280.836 138.167 275.958 128.375 279.731L131.971 289.062ZM121.48 293.105L131.971 289.062L128.375 279.731L117.884 283.774L121.48 293.105ZM116.318 304.739C114.53 300.101 116.842 294.892 121.48 293.105L117.884 283.773C108.092 287.547 103.213 298.543 106.987 308.335L116.318 304.739ZM134.626 352.25L116.318 304.739L106.987 308.335L125.295 355.845L134.626 352.25ZM146.26 357.411C141.622 359.199 136.413 356.888 134.626 352.25L125.295 355.845C129.068 365.637 140.064 370.516 149.856 366.743L146.26 357.411ZM156.751 353.369L146.26 357.411L149.856 366.743L160.347 362.7L156.751 353.369ZM161.913 341.734C163.7 346.373 161.389 351.581 156.751 353.369L160.347 362.7C170.139 358.927 175.017 347.93 171.244 338.139L161.913 341.734ZM143.605 294.224L161.913 341.734L171.244 338.139L152.936 290.628L143.605 294.224Z" fill="#7F7569"/>
</svg>
