<svg width="483" height="422" viewBox="0 0 483 422" fill="none" xmlns="http://www.w3.org/2000/svg">
<path fill-rule="evenodd" clip-rule="evenodd" d="M293.864 126.626H189.004L130.898 24.7182C118.588 3.12835 91.1062 -4.39432 69.5163 7.91586L59.0918 13.8597C37.502 26.1699 29.9793 53.6513 42.2895 75.2412L71.5885 126.626H47C22.1472 126.626 2 146.774 2 171.626V183.626C2 204.175 15.7734 221.507 34.5919 226.894L77.3227 386.279C82.5963 405.95 100.423 419.626 120.788 419.626H362.14C382.183 419.626 399.809 406.371 405.372 387.115L452.002 225.698C468.955 219.246 481 202.843 481 183.626V171.626C481 146.774 460.853 126.626 436 126.626H411.279L440.578 75.2412C452.889 53.6513 445.366 26.1699 423.776 13.8597L413.352 7.91586C391.762 -4.39432 364.28 3.12835 351.97 24.7182L293.864 126.626ZM430.339 228.626H55.7627L96.6405 381.1C99.5703 392.028 109.474 399.626 120.788 399.626H362.14C373.275 399.626 383.067 392.262 386.158 381.565L430.339 228.626ZM165.981 126.626H94.6112L59.6637 65.3347C52.8247 53.3403 57.0039 38.0729 68.9983 31.2339L79.4228 25.29C91.4172 18.451 106.685 22.6303 113.524 34.6247L165.981 126.626ZM423.204 65.3347L388.257 126.626H316.887L369.344 34.6247C376.183 22.6303 391.451 18.451 403.445 25.29L413.87 31.2339C425.864 38.0729 430.043 53.3403 423.204 65.3347ZM47 146.626H436C449.807 146.626 461 157.819 461 171.626V183.626C461 197.434 449.807 208.626 436 208.626H47C33.1929 208.626 22 197.434 22 183.626V171.626C22 157.819 33.1929 146.626 47 146.626ZM235 269.626C227.268 269.626 221 275.894 221 283.626V354.626C221 362.358 227.268 368.626 235 368.626H247C254.732 368.626 261 362.358 261 354.626V283.626C261 275.894 254.732 269.626 247 269.626H235ZM354.268 281.396C347.054 278.616 338.951 282.211 336.171 289.426L317.863 336.937C315.083 344.151 318.678 352.254 325.892 355.034L336.384 359.077C343.599 361.857 351.701 358.262 354.481 351.047L372.789 303.537C375.57 296.322 371.975 288.219 364.76 285.439L354.268 281.396ZM145.271 289.426C142.491 282.211 134.388 278.616 127.173 281.396L116.682 285.439C109.467 288.219 105.872 296.322 108.652 303.537L126.96 351.047C129.74 358.262 137.843 361.857 145.058 359.077L155.549 355.034C162.764 352.254 166.359 344.151 163.579 336.937L145.271 289.426Z" fill="#808C96"/>
<path d="M189.004 126.626L187.267 127.617L187.842 128.626H189.004V126.626ZM293.864 126.626V128.626H295.026L295.601 127.617L293.864 126.626ZM130.898 24.7182L132.635 23.7276L132.635 23.7276L130.898 24.7182ZM69.5163 7.91586L70.507 9.65327L70.507 9.65327L69.5163 7.91586ZM59.0918 13.8597L58.1012 12.1223L58.1012 12.1223L59.0918 13.8597ZM42.2895 75.2412L40.5521 76.2318L40.5521 76.2318L42.2895 75.2412ZM71.5885 126.626V128.626H75.0312L73.3259 125.636L71.5885 126.626ZM34.5919 226.894L36.5237 226.376L36.2306 225.283L35.1423 224.971L34.5919 226.894ZM77.3227 386.279L75.391 386.797L75.391 386.797L77.3227 386.279ZM405.372 387.115L403.451 386.56L403.451 386.56L405.372 387.115ZM452.002 225.698L451.291 223.829L450.358 224.184L450.081 225.143L452.002 225.698ZM411.279 126.626L409.542 125.636L407.837 128.626H411.279V126.626ZM440.578 75.2412L442.316 76.2318L442.316 76.2318L440.578 75.2412ZM423.776 13.8597L422.786 15.5972L422.786 15.5972L423.776 13.8597ZM413.352 7.91586L412.361 9.65327L412.361 9.65327L413.352 7.91586ZM351.97 24.7182L350.233 23.7276L350.233 23.7276L351.97 24.7182ZM430.339 228.626L432.26 229.182L432.998 226.626H430.339V228.626ZM55.7627 228.626V226.626H53.1559L53.8309 229.144L55.7627 228.626ZM96.6405 381.1L94.7088 381.618L94.7088 381.618L96.6405 381.1ZM386.158 381.565L388.079 382.12L388.079 382.12L386.158 381.565ZM94.6112 126.626L92.8738 127.617L93.4493 128.626H94.6112V126.626ZM165.981 126.626V128.626H169.424L167.719 125.636L165.981 126.626ZM59.6637 65.3347L61.4011 64.3441L59.6637 65.3347ZM68.9983 31.2339L69.989 32.9713L69.989 32.9713L68.9983 31.2339ZM79.4228 25.29L80.4135 27.0275L79.4228 25.29ZM113.524 34.6247L111.786 35.6153L111.786 35.6153L113.524 34.6247ZM388.257 126.626V128.626H389.419L389.994 127.617L388.257 126.626ZM423.204 65.3347L424.942 66.3254L424.942 66.3254L423.204 65.3347ZM316.887 126.626L315.149 125.636L313.444 128.626H316.887V126.626ZM369.344 34.6247L367.607 33.634L367.607 33.634L369.344 34.6247ZM403.445 25.29L402.455 27.0275L403.445 25.29ZM413.87 31.2339L412.879 32.9713L412.879 32.9713L413.87 31.2339ZM336.171 289.426L334.305 288.707L334.305 288.707L336.171 289.426ZM354.268 281.396L354.988 279.53L354.988 279.53L354.268 281.396ZM317.863 336.937L319.729 337.656L319.729 337.656L317.863 336.937ZM325.892 355.034L325.173 356.901L325.173 356.901L325.892 355.034ZM336.384 359.077L335.665 360.943L335.665 360.943L336.384 359.077ZM354.481 351.047L352.615 350.328L352.615 350.328L354.481 351.047ZM372.789 303.537L370.923 302.818L370.923 302.818L372.789 303.537ZM364.76 285.439L364.041 287.305L364.041 287.305L364.76 285.439ZM127.173 281.396L126.454 279.53L126.454 279.53L127.173 281.396ZM145.271 289.426L143.405 290.145L143.405 290.145L145.271 289.426ZM116.682 285.439L117.401 287.305L117.401 287.305L116.682 285.439ZM108.652 303.537L110.518 302.818L110.518 302.818L108.652 303.537ZM126.96 351.047L128.826 350.328L128.826 350.328L126.96 351.047ZM145.058 359.077L144.339 357.211L144.339 357.211L145.058 359.077ZM155.549 355.034L156.268 356.901L156.268 356.901L155.549 355.034ZM163.579 336.937L165.445 336.217L165.445 336.217L163.579 336.937ZM189.004 128.626H293.864V124.626H189.004V128.626ZM129.16 25.7089L187.267 127.617L190.742 125.636L132.635 23.7276L129.16 25.7089ZM70.507 9.65327C91.1373 -2.10978 117.397 5.07854 129.16 25.7089L132.635 23.7276C119.778 1.17815 91.0751 -6.67886 68.5257 6.17844L70.507 9.65327ZM60.0825 15.5972L70.507 9.65327L68.5257 6.17844L58.1012 12.1223L60.0825 15.5972ZM44.0269 74.2505C32.2638 53.6202 39.4522 27.3602 60.0825 15.5972L58.1012 12.1223C35.5518 24.9796 27.6948 53.6824 40.5521 76.2318L44.0269 74.2505ZM73.3259 125.636L44.0269 74.2505L40.5521 76.2318L69.8511 127.617L73.3259 125.636ZM47 128.626H71.5885V124.626H47V128.626ZM4 171.626C4 147.878 23.2518 128.626 47 128.626V124.626C21.0426 124.626 0 145.669 0 171.626H4ZM4 183.626V171.626H0V183.626H4ZM35.1423 224.971C17.1591 219.824 4 203.259 4 183.626H0C0 205.092 14.3878 223.191 34.0416 228.817L35.1423 224.971ZM32.6602 227.412L75.391 386.797L79.2545 385.761L36.5237 226.376L32.6602 227.412ZM75.391 386.797C80.8989 407.342 99.5178 421.626 120.788 421.626V417.626C101.328 417.626 84.2937 404.557 79.2545 385.761L75.391 386.797ZM120.788 421.626H362.14V417.626H120.788V421.626ZM362.14 421.626C383.073 421.626 401.484 407.782 407.293 387.67L403.451 386.56C398.135 404.96 381.292 417.626 362.14 417.626V421.626ZM407.293 387.67L453.924 226.253L450.081 225.143L403.451 386.56L407.293 387.67ZM479 183.626C479 201.986 467.493 217.663 451.291 223.829L452.714 227.567C470.416 220.83 483 203.7 483 183.626H479ZM479 171.626V183.626H483V171.626H479ZM436 128.626C459.748 128.626 479 147.878 479 171.626H483C483 145.669 461.957 124.626 436 124.626V128.626ZM411.279 128.626H436V124.626H411.279V128.626ZM438.841 74.2505L409.542 125.636L413.017 127.617L442.316 76.2318L438.841 74.2505ZM422.786 15.5972C443.416 27.3602 450.604 53.6202 438.841 74.2505L442.316 76.2318C455.173 53.6824 447.316 24.9796 424.767 12.1223L422.786 15.5972ZM412.361 9.65327L422.786 15.5972L424.767 12.1223L414.342 6.17844L412.361 9.65327ZM353.708 25.7089C365.471 5.07854 391.731 -2.10978 412.361 9.65327L414.342 6.17844C391.793 -6.67886 363.09 1.17815 350.233 23.7276L353.708 25.7089ZM295.601 127.617L353.708 25.7089L350.233 23.7276L292.126 125.636L295.601 127.617ZM430.339 226.626H55.7627V230.626H430.339V226.626ZM98.5723 380.582L57.6945 228.109L53.8309 229.144L94.7088 381.618L98.5723 380.582ZM120.788 397.626C110.379 397.626 101.268 390.636 98.5723 380.582L94.7088 381.618C97.8729 393.42 108.569 401.626 120.788 401.626V397.626ZM362.14 397.626H120.788V401.626H362.14V397.626ZM384.236 381.01C381.393 390.851 372.384 397.626 362.14 397.626V401.626C374.165 401.626 384.742 393.673 388.079 382.12L384.236 381.01ZM428.417 228.071L384.236 381.01L388.079 382.12L432.26 229.182L428.417 228.071ZM94.6112 128.626H165.981V124.626H94.6112V128.626ZM57.9262 66.3254L92.8738 127.617L96.3486 125.636L61.4011 64.3441L57.9262 66.3254ZM68.0077 29.4965C55.0537 36.8826 50.5401 53.3714 57.9262 66.3254L61.4011 64.3441C55.1092 53.3092 58.9541 39.2632 69.989 32.9713L68.0077 29.4965ZM78.4322 23.5526L68.0077 29.4965L69.989 32.9713L80.4135 27.0275L78.4322 23.5526ZM115.261 33.634C107.875 20.6801 91.3861 16.1665 78.4322 23.5526L80.4135 27.0275C91.4483 20.7356 105.494 24.5805 111.786 35.6153L115.261 33.634ZM167.719 125.636L115.261 33.634L111.786 35.6153L164.244 127.617L167.719 125.636ZM389.994 127.617L424.942 66.3254L421.467 64.3441L386.519 125.636L389.994 127.617ZM316.887 128.626H388.257V124.626H316.887V128.626ZM367.607 33.634L315.149 125.636L318.624 127.617L371.082 35.6153L367.607 33.634ZM404.436 23.5526C391.482 16.1665 374.993 20.6801 367.607 33.634L371.082 35.6153C377.374 24.5805 391.42 20.7356 402.455 27.0275L404.436 23.5526ZM414.86 29.4965L404.436 23.5526L402.455 27.0275L412.879 32.9713L414.86 29.4965ZM424.942 66.3254C432.328 53.3714 427.814 36.8826 414.86 29.4965L412.879 32.9713C423.914 39.2632 427.759 53.3092 421.467 64.3441L424.942 66.3254ZM436 144.626H47V148.626H436V144.626ZM463 171.626C463 156.715 450.912 144.626 436 144.626V148.626C448.703 148.626 459 158.924 459 171.626H463ZM463 183.626V171.626H459V183.626H463ZM436 210.626C450.912 210.626 463 198.538 463 183.626H459C459 196.329 448.703 206.626 436 206.626V210.626ZM47 210.626H436V206.626H47V210.626ZM20 183.626C20 198.538 32.0883 210.626 47 210.626V206.626C34.2975 206.626 24 196.329 24 183.626H20ZM20 171.626V183.626H24V171.626H20ZM47 144.626C32.0883 144.626 20 156.715 20 171.626H24C24 158.924 34.2975 148.626 47 148.626V144.626ZM223 283.626C223 276.999 228.373 271.626 235 271.626V267.626C226.163 267.626 219 274.79 219 283.626H223ZM223 354.626V283.626H219V354.626H223ZM235 366.626C228.373 366.626 223 361.254 223 354.626H219C219 363.463 226.163 370.626 235 370.626V366.626ZM247 366.626H235V370.626H247V366.626ZM259 354.626C259 361.254 253.627 366.626 247 366.626V370.626C255.837 370.626 263 363.463 263 354.626H259ZM259 283.626V354.626H263V283.626H259ZM247 271.626C253.627 271.626 259 276.999 259 283.626H263C263 274.79 255.837 267.626 247 267.626V271.626ZM235 271.626H247V267.626H235V271.626ZM338.037 290.145C340.42 283.961 347.365 280.879 353.549 283.263L354.988 279.53C346.742 276.353 337.482 280.461 334.305 288.707L338.037 290.145ZM319.729 337.656L338.037 290.145L334.305 288.707L315.997 336.217L319.729 337.656ZM326.612 353.168C320.427 350.785 317.346 343.84 319.729 337.656L315.997 336.217C312.819 344.463 316.928 353.723 325.173 356.901L326.612 353.168ZM337.103 357.211L326.612 353.168L325.173 356.901L335.665 360.943L337.103 357.211ZM352.615 350.328C350.232 356.512 343.287 359.594 337.103 357.211L335.665 360.943C343.91 364.121 353.17 360.012 356.348 351.767L352.615 350.328ZM370.923 302.818L352.615 350.328L356.348 351.767L374.656 304.256L370.923 302.818ZM364.041 287.305C370.225 289.688 373.306 296.633 370.923 302.818L374.656 304.256C377.833 296.01 373.724 286.75 365.479 283.573L364.041 287.305ZM353.549 283.263L364.041 287.305L365.479 283.573L354.988 279.53L353.549 283.263ZM127.892 283.263C134.076 280.879 141.022 283.961 143.405 290.145L147.137 288.707C143.96 280.461 134.7 276.353 126.454 279.53L127.892 283.263ZM117.401 287.305L127.892 283.263L126.454 279.53L115.963 283.573L117.401 287.305ZM110.518 302.818C108.135 296.633 111.217 289.688 117.401 287.305L115.963 283.573C107.717 286.75 103.609 296.01 106.786 304.256L110.518 302.818ZM128.826 350.328L110.518 302.818L106.786 304.256L125.094 351.767L128.826 350.328ZM144.339 357.211C138.154 359.594 131.209 356.512 128.826 350.328L125.094 351.767C128.271 360.012 137.531 364.121 145.777 360.943L144.339 357.211ZM154.83 353.168L144.339 357.211L145.777 360.943L156.268 356.901L154.83 353.168ZM161.713 337.656C164.096 343.84 161.014 350.785 154.83 353.168L156.268 356.901C164.514 353.723 168.622 344.463 165.445 336.217L161.713 337.656ZM143.405 290.145L161.713 337.656L165.445 336.217L147.137 288.707L143.405 290.145Z" fill="#808C96"/>
</svg>
