<svg width="593" height="593" viewBox="0 0 593 593" fill="none" xmlns="http://www.w3.org/2000/svg">
<path d="M392.329 38.3078C392.329 38.3078 302.596 6.40438 214.512 57.2008C126.427 107.997 81.9762 208.843 43.8107 289.621C5.64526 370.4 27.61 452.566 94.8087 490.055C162.007 527.545 207.775 472.265 302.098 469.597C396.42 466.928 421.848 480.33 500.112 427.091C578.377 373.851 592.537 248.004 530.794 154.832C469.051 61.6601 392.329 38.3078 392.329 38.3078Z" fill="#17A697"/>
<path opacity="0.7" d="M392.329 38.3078C392.329 38.3078 302.596 6.40438 214.512 57.2008C126.427 107.997 81.9762 208.843 43.8107 289.621C5.64526 370.4 27.61 452.566 94.8087 490.055C162.007 527.545 207.775 472.265 302.098 469.597C396.42 466.928 421.848 480.33 500.112 427.091C578.377 373.851 592.537 248.004 530.794 154.832C469.051 61.6601 392.329 38.3078 392.329 38.3078Z" fill="white"/>
<path d="M549.664 253.199C549.664 253.199 549.664 246.534 540.342 237.212C531.02 227.89 525.019 222.553 525.019 222.553C525.019 222.553 520.358 237.876 529.015 247.21C535.384 253.769 542.291 259.783 549.664 265.19V253.199Z" fill="#17A697"/>
<path d="M536.131 294.804C536.131 294.804 536.131 288.139 526.809 278.817C517.488 269.495 511.486 264.158 511.486 264.158C511.486 264.158 506.825 279.481 515.483 288.803C521.85 295.368 528.757 301.386 536.131 306.794V294.804Z" fill="#17A697"/>
<path d="M549.118 264.549C549.118 264.549 549.818 257.919 560.077 249.629C570.336 241.339 576.859 236.678 576.859 236.678C576.859 236.678 579.883 252.404 570.288 260.766C563.261 266.619 555.755 271.872 547.849 276.468L549.118 264.549Z" fill="#17A697"/>
<path d="M532.727 313.673C532.727 313.673 534.127 307.174 545.204 300.058C556.281 292.942 563.255 288.933 563.255 288.933C563.255 288.933 564.595 304.897 554.182 312.203C546.577 317.284 538.559 321.719 530.213 325.462L532.727 313.673Z" fill="#17A697"/>
<path d="M535.799 367.245C535.799 367.245 535.799 360.58 545.133 351.258C554.467 341.936 560.456 336.599 560.456 336.599C560.456 336.599 565.117 351.922 556.459 361.244C550.087 367.807 543.176 373.825 535.799 379.235V367.245Z" fill="#17A697"/>
<path d="M535.645 380.315C535.645 380.315 536.594 373.72 528.695 363.165C520.796 352.61 515.649 346.49 515.649 346.49C515.649 346.49 508.865 360.983 516.112 371.396C521.482 378.799 527.464 385.738 533.996 392.139L535.645 380.315Z" fill="#17A697"/>
<path d="M526.454 419.073C526.454 419.073 526.454 412.408 535.776 403.086C545.098 393.764 551.099 388.427 551.099 388.427C551.099 388.427 555.76 403.75 547.102 413.072C540.731 419.633 533.825 425.651 526.454 431.064V419.073Z" fill="#17A697"/>
<path d="M532.68 454.238C532.68 454.238 530.996 447.786 537.649 436.448C544.303 425.11 548.762 418.385 548.762 418.385C548.762 418.385 557.159 432.024 551.134 443.291C546.634 451.25 541.476 458.819 535.716 465.92L532.68 454.238Z" fill="#17A697"/>
<path d="M550.517 251.491C550.034 258.428 549.171 265.333 547.932 272.175C544.243 291.222 535.028 303.509 531.328 320.718C527.628 337.927 538.23 360.081 535.396 382.177C532.561 404.272 523.963 416.571 526.418 431.313C528.873 446.055 541.777 485.987 541.777 485.987" stroke="#263238" stroke-width="0.819791" stroke-linecap="round" stroke-linejoin="round"/>
<path d="M548.988 268.973L559.045 261.264" stroke="#263238" stroke-width="0.819791" stroke-linecap="round" stroke-linejoin="round"/>
<path d="M549.462 260.09L545.252 252.606" stroke="#263238" stroke-width="0.819791" stroke-linecap="round" stroke-linejoin="round"/>
<path d="M531.933 319.923C531.933 319.923 540.342 313.614 548.988 307.304" stroke="#263238" stroke-width="0.819791" stroke-linecap="round" stroke-linejoin="round"/>
<path d="M536.131 306.794C536.131 306.794 529.122 293.049 521.176 283.928" stroke="#263238" stroke-width="0.819791" stroke-linecap="round" stroke-linejoin="round"/>
<path d="M536.131 376.721C540.936 367.867 547.001 359.757 554.135 352.645" stroke="#263238" stroke-width="0.819791" stroke-linecap="round" stroke-linejoin="round"/>
<path d="M534.495 386.067C531.949 380.06 528.906 374.276 525.398 368.775C520.488 361.528 519.788 360.591 519.788 360.591" stroke="#263238" stroke-width="0.819791" stroke-linecap="round" stroke-linejoin="round"/>
<path d="M526.454 431.313C528.583 426.018 531.116 420.895 534.032 415.989C536.945 411.44 540.23 407.14 543.852 403.133" stroke="#263238" stroke-width="0.819791" stroke-linecap="round" stroke-linejoin="round"/>
<path d="M535.716 465.802C535.716 465.802 534.732 457.82 538.242 451.048C541.753 444.276 545.714 435.381 547.351 431.882" stroke="#263238" stroke-width="0.819791" stroke-linecap="round" stroke-linejoin="round"/>
<path d="M488.632 342.197C488.632 342.197 487.909 338.01 492.747 331.155C497.586 324.3 500.765 320.303 500.765 320.303C500.765 320.303 505.355 329.4 500.931 336.195C497.652 340.999 493.974 345.518 489.937 349.704L488.632 342.197Z" fill="#17A697"/>
<path d="M501.607 366.806C501.607 366.806 500.883 362.631 505.71 355.776C510.537 348.921 513.728 344.924 513.728 344.924C513.728 344.924 518.318 354.021 513.906 360.805C510.622 365.612 506.941 370.135 502.9 374.325L501.607 366.806Z" fill="#17A697"/>
<path d="M490.198 349.241C490.198 349.241 489.012 345.162 481.706 341.082C474.4 337.002 469.775 334.784 469.775 334.784C469.775 334.784 469.585 344.972 476.511 349.17C481.554 352.076 486.83 354.555 492.285 356.583L490.198 349.241Z" fill="#17A697"/>
<path d="M505.782 378.334C505.782 378.334 504.204 374.408 496.483 371.111C488.763 367.814 483.959 366.094 483.959 366.094C483.959 366.094 484.837 376.247 492.166 379.698C497.484 382.059 502.991 383.972 508.628 385.414L505.782 378.334Z" fill="#17A697"/>
<path d="M509.671 412.206C509.671 412.206 508.948 408.019 502.093 403.192C495.238 398.365 490.885 395.661 490.885 395.661C490.885 395.661 489.628 405.778 496.068 410.688C500.78 414.105 505.767 417.128 510.976 419.725L509.671 412.206Z" fill="#17A697"/>
<path d="M511.166 420.378C511.166 420.378 509.861 416.345 513.668 408.874C517.475 401.402 520.061 397.013 520.061 397.013C520.061 397.013 525.896 405.315 522.433 412.716C519.873 417.94 516.877 422.938 513.479 427.66L511.166 420.378Z" fill="#17A697"/>
<path d="M522.896 454.072C522.896 454.072 523.382 449.862 529.952 444.643C536.523 439.425 540.697 436.448 540.697 436.448C540.697 436.448 542.536 446.47 536.38 451.736C531.88 455.422 527.08 458.727 522.03 461.615L522.896 454.072Z" fill="#17A697"/>
<path d="M521.164 443.683C521.164 443.683 520.441 439.508 513.574 434.669C506.707 429.83 502.378 427.15 502.378 427.15C502.378 427.15 501.121 437.254 507.561 442.164C512.268 445.59 517.255 448.613 522.469 451.202L521.164 443.683Z" fill="#17A697"/>
<path d="M521.069 466.395C521.069 466.395 521.425 462.161 516.017 455.721C510.609 449.281 507.086 445.592 507.086 445.592C507.086 445.592 503.315 455.08 508.272 461.437C511.961 465.942 516.019 470.131 520.405 473.961L521.069 466.395Z" fill="#17A697"/>
<path d="M487.885 341.212C488.933 345.509 490.215 349.746 491.727 353.902C496.116 365.454 503.22 372.155 507.406 382.544C511.593 392.934 507.347 407.972 511.522 421.528C515.696 435.084 522.433 441.844 522.492 451.356C522.552 460.868 518.792 487.316 518.792 487.316" stroke="#263238" stroke-width="0.819791" stroke-linecap="round" stroke-linejoin="round"/>
<path d="M490.731 352.005L483.592 348.257" stroke="#263238" stroke-width="0.819791" stroke-linecap="round" stroke-linejoin="round"/>
<path d="M489.474 346.49L491.301 341.343" stroke="#263238" stroke-width="0.819791" stroke-linecap="round" stroke-linejoin="round"/>
<path d="M506.968 382.105C506.968 382.105 501.038 379.057 494.894 376.045" stroke="#263238" stroke-width="0.819791" stroke-linecap="round" stroke-linejoin="round"/>
<path d="M502.864 374.325C504.614 368.786 506.927 363.441 509.767 358.374" stroke="#263238" stroke-width="0.819791" stroke-linecap="round" stroke-linejoin="round"/>
<path d="M510.49 418.184C506.519 413.148 501.837 408.718 496.59 405.031" stroke="#263238" stroke-width="0.819791" stroke-linecap="round" stroke-linejoin="round"/>
<path d="M512.53 423.865C513.481 419.812 514.767 415.845 516.373 412.005C518.662 406.928 519.006 406.264 519.006 406.264" stroke="#263238" stroke-width="0.819791" stroke-linecap="round" stroke-linejoin="round"/>
<path d="M522.172 458.579C522.172 458.579 526.916 452.779 529.846 450.609C531.62 449.299 533.286 447.847 534.827 446.268" stroke="#263238" stroke-width="0.819791" stroke-linecap="round" stroke-linejoin="round"/>
<path d="M522.492 451.356C520.578 448.269 518.433 445.331 516.076 442.568C513.755 440.035 511.228 437.698 508.521 435.582" stroke="#263238" stroke-width="0.819791" stroke-linecap="round" stroke-linejoin="round"/>
<path d="M520.429 473.997C520.185 470.773 519.083 467.674 517.238 465.019C514.309 461.141 510.858 456.005 509.446 453.989" stroke="#263238" stroke-width="0.819791" stroke-linecap="round" stroke-linejoin="round"/>
<path d="M548.691 542.453H511.795C511.024 542.453 510.285 542.146 509.74 541.602C509.195 541.057 508.889 540.318 508.889 539.547L499.745 482.702H560.753L551.597 539.547C551.597 540.318 551.291 541.057 550.746 541.602C550.201 542.146 549.462 542.453 548.691 542.453V542.453Z" fill="#263238" stroke="#263238" stroke-width="0.819791" stroke-linecap="round" stroke-linejoin="round"/>
<path d="M560.219 490.66H499.733C498.475 490.66 497.268 490.16 496.379 489.271C495.489 488.381 494.989 487.174 494.989 485.916C494.989 484.658 495.489 483.451 496.379 482.562C497.268 481.672 498.475 481.172 499.733 481.172H560.219C561.477 481.172 562.684 481.672 563.574 482.562C564.463 483.451 564.963 484.658 564.963 485.916C564.963 487.174 564.463 488.381 563.574 489.271C562.684 490.16 561.477 490.66 560.219 490.66Z" fill="#263238" stroke="#263238" stroke-width="0.819791" stroke-linecap="round" stroke-linejoin="round"/>
<path d="M502.141 490.874H546.058" stroke="white" stroke-width="0.819791" stroke-linecap="round" stroke-linejoin="round"/>
<path d="M550.185 490.874H557.42" stroke="white" stroke-width="0.819791" stroke-linecap="round" stroke-linejoin="round"/>
<path d="M303.106 213.563C303.106 213.563 300.022 216.647 300.331 219.73C300.639 222.814 326.85 278.022 329.625 282.031C332.4 286.039 340.418 287.273 344.13 285.114C347.842 282.956 362.323 267.538 362.323 267.538L361.6 188.479C361.6 188.479 348.755 225.245 345.055 231.175C341.354 237.105 339.492 240.129 339.492 240.129C339.492 240.129 331.19 216.682 329.008 212.057C327.481 209.08 325.125 206.609 322.224 204.941L303.106 213.563Z" fill="#BFBFBF" stroke="#263238" stroke-width="0.819791" stroke-linecap="round" stroke-linejoin="round"/>
<path d="M367.992 521.84C367.992 521.84 349.478 528.837 342.481 531.328C335.484 533.819 335.899 539.974 336.717 541.207L337.547 542.393H403.797C404.778 538.879 404.633 535.146 403.382 531.719C401.33 525.576 367.992 521.84 367.992 521.84Z" fill="white" stroke="#263238" stroke-width="0.819791" stroke-linecap="round" stroke-linejoin="round"/>
<path d="M404.426 539.156H336.29C336.25 539.869 336.397 540.58 336.717 541.219L337.547 542.405H403.797C404.139 541.352 404.35 540.26 404.426 539.156V539.156Z" fill="white" stroke="#263238" stroke-width="0.819791" stroke-linecap="round" stroke-linejoin="round"/>
<path d="M353.997 295.954C353.997 295.954 349.479 340.809 349.479 363.853C349.479 386.897 357.709 432.582 360.153 446.576C362.596 460.571 370.827 504.596 370.827 507.881C370.827 511.166 370.826 515.293 368.36 516.942C367.53 517.453 366.859 518.185 366.423 519.057C365.987 519.929 365.803 520.905 365.893 521.876V524.342C365.893 524.342 385.64 534.222 394.286 534.637C398.118 534.94 401.969 534.94 405.802 534.637C405.802 534.637 404.983 516.112 404.983 508.296C404.983 500.48 405.398 444.513 405.802 435.867C406.205 427.221 407.865 365.086 409.514 347.806C411.162 330.526 416.096 300.9 416.096 300.9L355.61 291.021L353.997 295.954Z" fill="#17A697" stroke="#263238" stroke-width="0.819791" stroke-linecap="round" stroke-linejoin="round"/>
<path d="M412.028 521.84C412.028 521.84 393.503 528.837 386.517 531.328C379.532 533.819 379.923 539.974 380.753 541.207L381.572 542.393H447.822C448.803 538.88 448.662 535.148 447.418 531.719C445.355 525.576 412.028 521.84 412.028 521.84Z" fill="white" stroke="#263238" stroke-width="0.819791" stroke-linecap="round" stroke-linejoin="round"/>
<path d="M448.403 539.156H380.314C380.283 539.87 380.434 540.58 380.753 541.219L381.572 542.405H447.822C448.154 541.351 448.349 540.259 448.403 539.156V539.156Z" fill="white" stroke="#263238" stroke-width="0.819791" stroke-linecap="round" stroke-linejoin="round"/>
<path d="M389.387 301.303C389.387 301.303 389.802 364.268 389.387 382.781C388.972 401.295 400.061 448.213 403.382 459.326C406.703 470.439 412.431 513.645 412.87 515.708C413.309 517.772 406.703 519.824 406.703 524.342C406.703 528.861 424.801 528.873 424.801 528.873C424.801 528.873 441.678 533.807 443.327 533.807C445.017 534.013 446.675 534.432 448.26 535.052C449.915 529.288 450.883 523.348 451.142 517.357C451.212 510.529 450.24 503.73 448.26 497.195C448.26 497.195 450.324 460.986 448.675 439.591C447.027 418.195 442.496 392.269 442.496 384.442C442.496 376.614 447.027 362.228 449.091 346.17C451.154 330.111 451.961 306.664 451.961 301.73C451.961 296.796 390.289 295.563 390.289 295.563L389.387 301.303Z" fill="#17A697" stroke="#263238" stroke-width="0.819791" stroke-linecap="round" stroke-linejoin="round"/>
<path d="M405.031 173.334C405.031 173.334 374.574 178.683 369.226 179.501C363.877 180.319 360.544 188.574 359.358 195.548C358.172 202.521 351.127 293.488 353.997 295.954C356.867 298.421 434.242 306.628 442.888 307.067C451.534 307.506 454.416 307.897 455.234 301.718C456.053 295.539 468.624 207.218 470.996 199.165C475.1 185.182 437.954 177.817 429.308 175.801C420.662 173.785 405.031 173.334 405.031 173.334Z" fill="#BFBFBF" stroke="#263238" stroke-width="0.819791" stroke-linecap="round" stroke-linejoin="round"/>
<path d="M445.936 180.094C445.936 180.094 430.933 225.162 428.466 231.768C425.999 238.374 425.988 239.987 425.988 239.987L375.381 229.313C375.381 229.313 380.73 203.802 382.782 196.805C384.833 189.807 389.743 176.014 389.743 176.014L386.079 176.643C386.079 176.643 374.147 214.915 371.265 225.198C368.383 235.48 354.827 268.392 353.997 278.71C353.167 289.028 349.064 327.265 347.83 352.788C346.597 378.31 348.245 405.043 348.245 405.043C348.245 405.043 396.385 414.092 410.795 413.689C425.205 413.285 434.242 413.274 434.242 413.274C434.242 413.274 433.056 364.304 434.657 348.672C436.258 333.041 441.655 304.221 441.655 304.221L454.819 303.403L455.234 301.754L439.188 300.568C439.188 300.568 430.518 243.699 430.518 241.636V238.386L448.676 181.233L445.936 180.094Z" fill="#263238" stroke="#263238" stroke-width="0.819791" stroke-linecap="round" stroke-linejoin="round"/>
<path d="M465.173 338.401C465.173 338.401 455.685 351.981 454.985 354.246C454.285 356.512 456.491 365.952 456.491 368.965C456.491 371.977 460.263 371.989 460.263 371.989C460.263 371.989 458.377 376.887 460.642 378.785C462.907 380.682 472.716 380.291 474.601 376.887C476.487 373.483 484.089 361.801 484.089 356.132C483.874 351.432 483.243 346.761 482.204 342.173L465.173 338.401Z" fill="#828282" stroke="#263238" stroke-width="0.819791" stroke-linecap="round" stroke-linejoin="round"/>
<path d="M460.263 371.989C460.263 371.989 463.287 369.344 463.287 365.952C463.287 362.56 466.3 356.891 466.3 356.891" stroke="#263238" stroke-width="0.819791" stroke-linecap="round" stroke-linejoin="round"/>
<path d="M465.932 329.708C465.552 330.835 462.907 338.769 465.173 341.034C467.438 343.3 481.397 345.553 482.903 344.047C484.41 342.541 487.055 333.859 487.055 333.859L465.932 329.708Z" fill="#BFBFBF" stroke="#263238" stroke-width="0.819791" stroke-linecap="round" stroke-linejoin="round"/>
<path d="M449.696 242.169L464.793 276.884C464.793 276.884 459.883 326.328 462.528 330.479C465.173 334.63 486.687 336.516 490.458 333.871C494.23 331.226 496.875 321.797 498.381 304.814C499.887 287.83 491.585 240.284 489.32 232.349C487.054 224.415 472.028 192.725 468.565 190.092C465.102 187.459 458.757 188.194 456.871 188.906" fill="#BFBFBF"/>
<path d="M449.696 242.169L464.793 276.884C464.793 276.884 459.883 326.328 462.528 330.479C465.173 334.63 486.687 336.516 490.458 333.871C494.23 331.226 496.875 321.797 498.381 304.814C499.887 287.83 491.585 240.284 489.32 232.349C487.054 224.415 472.028 192.725 468.565 190.092C465.102 187.459 458.757 188.194 456.871 188.906" stroke="#263238" stroke-width="0.819791" stroke-linecap="round" stroke-linejoin="round"/>
<path d="M316.484 196.876C316.484 196.876 313.08 183.296 310.068 178.007C307.055 172.717 287.047 165.554 284.782 165.554C282.517 165.554 283.276 170.464 283.276 175.042C283.276 179.62 284.023 187.495 288.933 192.772C293.843 198.05 302.513 201.833 302.513 201.833L305.158 208.25L318.749 201.074L316.484 196.876Z" fill="#828282" stroke="#263238" stroke-width="0.819791" stroke-linecap="round" stroke-linejoin="round"/>
<path d="M308.657 160.513L309.368 157.358C309.557 156.527 309.575 155.667 309.423 154.828C309.271 153.989 308.951 153.19 308.483 152.478C308.014 151.766 307.407 151.156 306.697 150.684C305.987 150.212 305.189 149.889 304.351 149.733V149.733C302.943 149.468 301.487 149.688 300.219 150.355C298.951 151.023 297.945 152.099 297.366 153.409L268.558 218.805" stroke="#263238" stroke-width="0.819791" stroke-linecap="round" stroke-linejoin="round"/>
<path d="M238.671 214.18C238.826 218.118 240.5 221.842 243.341 224.574C246.182 227.305 249.97 228.83 253.911 228.83C257.852 228.83 261.64 227.305 264.481 224.574C267.322 221.842 268.995 218.118 269.151 214.18H238.671Z" fill="white" stroke="#263238" stroke-width="0.819791" stroke-linecap="round" stroke-linejoin="round"/>
<path d="M243.604 194.623C243.758 193.427 244.049 192.253 244.47 191.124" stroke="#263238" stroke-width="0.819791" stroke-linecap="round" stroke-linejoin="round"/>
<path d="M243.13 211.393C245.727 210.124 246.973 205.688 245.893 203.304C245.14 201.766 244.486 200.182 243.936 198.56" stroke="#263238" stroke-width="0.819791" stroke-linecap="round" stroke-linejoin="round"/>
<path d="M252.464 211.393C255.073 210.124 256.306 205.688 255.239 203.304C253.923 200.398 253.009 198.453 252.867 196.295" stroke="#263238" stroke-width="0.819791" stroke-linecap="round" stroke-linejoin="round"/>
<path d="M262.319 193.899C262.492 192.954 262.746 192.026 263.078 191.124" stroke="#263238" stroke-width="0.819791" stroke-linecap="round" stroke-linejoin="round"/>
<path d="M261.774 211.393C264.371 210.124 265.617 205.688 264.537 203.304C263.837 201.858 263.219 200.373 262.687 198.857" stroke="#263238" stroke-width="0.819791" stroke-linecap="round" stroke-linejoin="round"/>
<path d="M287.795 165.554C287.795 165.554 277.986 163.288 277.239 165.174C276.492 167.06 276.48 170.843 277.986 171.97C279.493 173.097 289.692 173.476 290.819 173.156C291.946 172.836 294.602 166.23 287.795 165.554Z" fill="#828282" stroke="#263238" stroke-width="0.819791" stroke-linecap="round" stroke-linejoin="round"/>
<path d="M290.238 174.544C290.238 174.544 280.43 172.278 279.671 174.176C278.912 176.074 278.912 179.833 280.43 180.96C281.948 182.087 292.124 182.478 293.262 182.146C294.401 181.814 297.046 175.22 290.238 174.544Z" fill="#828282" stroke="#263238" stroke-width="0.819791" stroke-linecap="round" stroke-linejoin="round"/>
<path d="M291.163 182.264C291.163 182.264 281.106 181.695 280.679 183.688C280.252 185.68 280.892 189.392 282.576 190.258C284.261 191.124 294.365 189.76 295.409 189.191C296.453 188.621 297.983 181.778 291.163 182.264Z" fill="#828282" stroke="#263238" stroke-width="0.819791" stroke-linecap="round" stroke-linejoin="round"/>
<path d="M292.42 190.329C292.42 190.329 284.118 189.855 283.774 191.515C283.43 193.176 283.952 196.259 285.34 196.947C286.727 197.635 295.077 196.532 295.943 196.07C296.808 195.607 298.054 189.914 292.42 190.329Z" fill="#828282" stroke="#263238" stroke-width="0.819791" stroke-linecap="round" stroke-linejoin="round"/>
<path d="M313.46 188.574C313.46 188.574 310.815 173.856 309.309 171.223C307.802 168.59 294.211 161.403 291.519 159.897C288.826 158.39 284.403 156.505 283.584 159.137C283.237 160.349 283.309 161.641 283.789 162.806C284.27 163.971 285.129 164.939 286.229 165.554C288.494 167.072 294.152 169.325 294.152 170.464C294.152 171.602 297.176 184.043 303.64 188.574" fill="#828282"/>
<path d="M313.46 188.574C313.46 188.574 310.815 173.856 309.309 171.223C307.802 168.59 294.211 161.403 291.519 159.897C288.826 158.39 284.403 156.505 283.584 159.137C283.237 160.349 283.309 161.641 283.789 162.806C284.27 163.971 285.129 164.939 286.229 165.554C288.494 167.072 294.152 169.325 294.152 170.464C294.152 171.602 297.176 184.043 303.64 188.574" stroke="#263238" stroke-width="0.819791" stroke-linecap="round" stroke-linejoin="round"/>
<path d="M317.907 197.22C317.907 197.22 299.097 206.779 300.331 209.246C301.214 211.319 301.835 213.495 302.181 215.722C302.181 215.722 321.916 206.779 322.224 204.929C322.533 203.079 320.066 198.453 317.907 197.22Z" fill="#BFBFBF" stroke="#263238" stroke-width="0.819791" stroke-linecap="round" stroke-linejoin="round"/>
<path d="M398.033 162.221C398.033 162.221 395.982 180.735 395.982 188.55C395.982 196.366 398.496 209.922 414.08 204.609C429.664 199.295 434.242 179.916 434.242 176.145C434.242 172.373 435.891 144.87 435.891 144.87C435.891 144.87 424.778 156.813 415.729 159.683C410.002 161.46 404.029 162.316 398.033 162.221V162.221Z" fill="white" stroke="#263238" stroke-width="0.819791" stroke-linecap="round" stroke-linejoin="round"/>
<path d="M415.729 159.742C409.998 161.499 404.026 162.335 398.033 162.221C398.033 162.221 397.69 165.352 397.274 169.574C401.295 171.733 406.762 172.409 410.949 172.634C422.002 173.263 429.451 162.482 435.345 154.299C435.653 149.045 435.891 144.929 435.891 144.929C435.891 144.929 424.778 156.872 415.729 159.742Z" fill="#263238" stroke="#263238" stroke-width="0.819791" stroke-linecap="round" stroke-linejoin="round"/>
<path d="M393.882 103.668C393.882 103.668 398.686 88.9263 404.058 83.5063C409.431 78.0863 441.239 77.2442 445.639 81.1343C450.039 85.0244 453.941 93.3382 454.926 100.181C455.91 107.025 448.083 122.715 448.083 122.715L393.882 103.668Z" fill="#263238" stroke="#263238" stroke-width="0.819791" stroke-linecap="round" stroke-linejoin="round"/>
<path d="M392.684 112.421C392.684 112.421 388.984 123.534 389.387 131.397C389.791 139.26 391.451 147.04 391.451 151.974C391.451 156.908 390.633 161.035 395.151 164.735C399.16 168.009 405.968 168.886 410.949 169.171C422.607 169.823 430.257 157.785 436.306 149.507C436.306 149.507 447.822 148.321 448.652 141.691C449.482 135.062 447.596 132.049 447.596 132.049L448.082 122.763C448.082 122.763 409.561 103.787 392.684 112.421Z" fill="white" stroke="#263238" stroke-width="0.819791" stroke-linecap="round" stroke-linejoin="round"/>
<path d="M435.487 122.715C435.487 122.715 433.009 134.231 434.657 135.062C436.306 135.892 444.952 132.583 445.331 128.883C445.711 125.182 441.192 122.3 435.487 122.715Z" fill="#263238" stroke="#263238" stroke-width="0.819791" stroke-linecap="round" stroke-linejoin="round"/>
<path d="M390.917 113.927C390.917 113.927 409.976 116.857 425.122 121.743C440.267 126.629 447.596 132.002 447.596 132.002C447.596 132.002 452.483 123.7 451.996 119.3C451.51 114.9 430.518 107.084 413.392 103.668C396.266 100.253 393.361 100.727 391.902 102.684C390.443 104.641 388.474 111.97 390.917 113.927Z" fill="#263238" stroke="#263238" stroke-width="0.819791" stroke-linecap="round" stroke-linejoin="round"/>
<path d="M404.616 123.119C404.616 123.119 394.333 139.995 396.8 142.462C399.267 144.929 405.031 146.578 406.679 145.759" stroke="#263238" stroke-width="0.819791" stroke-linecap="round" stroke-linejoin="round"/>
<path d="M396.8 149.875C396.8 149.875 418.148 156.042 422.726 144.526" stroke="#263238" stroke-width="0.819791" stroke-linecap="round" stroke-linejoin="round"/>
<path d="M419.429 142.877L425.608 145.344" stroke="#263238" stroke-width="0.819791" stroke-linecap="round" stroke-linejoin="round"/>
<path d="M417.579 129.701C418.601 129.701 419.429 128.32 419.429 126.617C419.429 124.914 418.601 123.534 417.579 123.534C416.557 123.534 415.729 124.914 415.729 126.617C415.729 128.32 416.557 129.701 417.579 129.701Z" fill="#263238"/>
<path d="M401.117 122.502C401.117 124.21 400.287 125.597 399.267 125.597C398.247 125.597 397.417 124.21 397.417 122.502C397.417 120.794 398.247 119.418 399.267 119.418C400.287 119.418 401.117 120.806 401.117 122.502Z" fill="#263238"/>
<path d="M415.729 116.951C415.729 116.951 426.011 117.367 425.608 125.597" stroke="#263238" stroke-width="0.819791" stroke-linecap="round" stroke-linejoin="round"/>
<path d="M402.149 114.485C402.149 114.485 399.682 112.836 394.333 118.6" stroke="#263238" stroke-width="0.819791" stroke-linecap="round" stroke-linejoin="round"/>
<path d="M254.077 374.93H242.43V542.465H254.077V374.93Z" fill="white" stroke="#263238" stroke-width="0.819791" stroke-linecap="round" stroke-linejoin="round"/>
<path d="M262.142 374.93H250.495V542.465H262.142V374.93Z" fill="#263238" stroke="#263238" stroke-width="0.819791" stroke-linecap="round" stroke-linejoin="round"/>
<path d="M309.617 374.93H297.971V542.465H309.617V374.93Z" fill="white" stroke="#263238" stroke-width="0.819791" stroke-linecap="round" stroke-linejoin="round"/>
<path d="M317.682 374.93H306.036V542.465H317.682V374.93Z" fill="#263238" stroke="#263238" stroke-width="0.819791" stroke-linecap="round" stroke-linejoin="round"/>
<path d="M433.246 374.93H421.599V542.465H433.246V374.93Z" fill="white" stroke="#263238" stroke-width="0.819791" stroke-linecap="round" stroke-linejoin="round"/>
<path d="M441.311 374.93H429.664V542.465H441.311V374.93Z" fill="#263238" stroke="#263238" stroke-width="0.819791" stroke-linecap="round" stroke-linejoin="round"/>
<path d="M488.798 374.93H477.152V542.465H488.798V374.93Z" fill="white" stroke="#263238" stroke-width="0.819791" stroke-linecap="round" stroke-linejoin="round"/>
<path d="M496.851 374.93H485.205V542.465H496.851V374.93Z" fill="#263238" stroke="#263238" stroke-width="0.819791" stroke-linecap="round" stroke-linejoin="round"/>
<path d="M508.498 368.656H235.255V382.995H508.498V368.656Z" fill="white" stroke="#263238" stroke-width="0.819791" stroke-linecap="round" stroke-linejoin="round"/>
<path d="M508.509 368.656H434.147V382.995H508.509V368.656Z" fill="#263238" stroke="#263238" stroke-width="0.819791" stroke-linecap="round" stroke-linejoin="round"/>
<path d="M512.981 365.075H226.301V372.238H512.981V365.075Z" fill="white" stroke="#263238" stroke-width="0.819791" stroke-linecap="round" stroke-linejoin="round"/>
<path d="M512.981 365.075H441.311V372.238H512.981V365.075Z" fill="#263238" stroke="#263238" stroke-width="0.819791" stroke-linecap="round" stroke-linejoin="round"/>
<path d="M350.949 298.718H331.855V292.266H350.949C351.773 292.266 352.564 292.593 353.147 293.176C353.729 293.759 354.057 294.549 354.057 295.373V295.67C354.041 296.484 353.707 297.259 353.126 297.829C352.545 298.399 351.763 298.718 350.949 298.718V298.718Z" fill="white" stroke="#263238" stroke-width="0.819791" stroke-linecap="round" stroke-linejoin="round"/>
<path d="M252.891 279.433H343.027V355.432C343.027 357.949 342.027 360.362 340.248 362.141C338.469 363.921 336.055 364.92 333.539 364.92H262.379C259.862 364.92 257.449 363.921 255.67 362.141C253.891 360.362 252.891 357.949 252.891 355.432V279.433V279.433Z" fill="white" stroke="#263238" stroke-width="0.819791" stroke-linecap="round" stroke-linejoin="round"/>
<path d="M332.246 279.433V355.053C332.246 357.664 331.209 360.167 329.363 362.013C327.517 363.86 325.013 364.897 322.402 364.897H329.708C332.318 364.894 334.82 363.855 336.665 362.01C338.511 360.165 339.549 357.663 339.552 355.053V279.433H332.246Z" fill="#263238" stroke="#263238" stroke-width="0.819791" stroke-linecap="round" stroke-linejoin="round"/>
<path d="M266.85 279.433V355.053C266.85 360.485 274.737 364.897 280.169 364.897H272.911C270.299 364.897 267.794 363.86 265.946 362.014C264.098 360.168 263.058 357.665 263.055 355.053V279.433H266.85Z" fill="#263238" stroke="#263238" stroke-width="0.819791" stroke-linecap="round" stroke-linejoin="round"/>
<path d="M342.398 276.291H253.496C251.413 276.291 249.724 277.979 249.724 280.062V280.359C249.724 282.442 251.413 284.13 253.496 284.13H342.398C344.481 284.13 346.17 282.442 346.17 280.359V280.062C346.17 277.979 344.481 276.291 342.398 276.291Z" fill="white" stroke="#263238" stroke-width="0.819791" stroke-linecap="round" stroke-linejoin="round"/>
<path d="M241.719 292.266H260.813V298.718H241.719C240.895 298.718 240.104 298.39 239.522 297.808C238.939 297.225 238.612 296.435 238.612 295.61V295.314C238.627 294.5 238.961 293.725 239.542 293.155C240.123 292.585 240.905 292.266 241.719 292.266V292.266Z" fill="white" stroke="#263238" stroke-width="0.819791" stroke-linecap="round" stroke-linejoin="round"/>
<path d="M252.82 292.266H271.914V298.718H252.82C252.412 298.718 252.008 298.637 251.631 298.481C251.254 298.325 250.911 298.096 250.623 297.808C250.334 297.519 250.105 297.177 249.949 296.8C249.793 296.423 249.712 296.019 249.712 295.61V295.314C249.728 294.5 250.062 293.725 250.643 293.155C251.224 292.585 252.006 292.266 252.82 292.266V292.266Z" fill="white" stroke="#263238" stroke-width="0.819791" stroke-linecap="round" stroke-linejoin="round"/>
<path d="M342.742 281.367H253.14V282.576H342.742V281.367Z" fill="#263238" stroke="#263238" stroke-width="0.819791" stroke-linecap="round" stroke-linejoin="round"/>
<path d="M299.335 249.985C297.615 247.886 295.599 246.131 295.599 242.027C295.538 239.871 296.258 237.765 297.627 236.097" stroke="#263238" stroke-width="0.819791" stroke-linecap="round" stroke-linejoin="round"/>
<path d="M295.599 270.645C295.599 263.529 301.718 263.529 301.718 256.342C301.723 255.486 301.619 254.634 301.41 253.804" stroke="#263238" stroke-width="0.819791" stroke-linecap="round" stroke-linejoin="round"/>
<path d="M317.646 244.008C317.197 242.794 316.98 241.507 317.006 240.213" stroke="#263238" stroke-width="0.819791" stroke-linecap="round" stroke-linejoin="round"/>
<path d="M317.006 270.645C317.006 263.043 323.114 263.043 323.114 255.429C323.114 251.183 321.216 249.309 319.556 247.127" stroke="#263238" stroke-width="0.819791" stroke-linecap="round" stroke-linejoin="round"/>
<path d="M271.144 243.213C271.015 242.521 270.951 241.818 270.954 241.114C270.934 239.902 271.135 238.696 271.547 237.556" stroke="#263238" stroke-width="0.819791" stroke-linecap="round" stroke-linejoin="round"/>
<path d="M270.954 270.645C270.954 263.268 277.073 263.268 277.073 255.891C277.081 254.534 276.82 253.189 276.305 251.933C275.79 250.677 275.031 249.535 274.073 248.574" stroke="#263238" stroke-width="0.819791" stroke-linecap="round" stroke-linejoin="round"/>
<path d="M474.317 298.718H455.222V292.266H474.317C475.141 292.266 475.931 292.593 476.514 293.176C477.097 293.759 477.424 294.549 477.424 295.373V295.67C477.409 296.484 477.075 297.259 476.494 297.829C475.912 298.399 475.131 298.718 474.317 298.718Z" fill="white" stroke="#263238" stroke-width="0.819791" stroke-linecap="round" stroke-linejoin="round"/>
<path d="M376.271 279.433H466.406V355.432C466.406 357.949 465.407 360.362 463.627 362.141C461.848 363.921 459.435 364.92 456.918 364.92H385.759C383.242 364.92 380.829 363.921 379.049 362.141C377.27 360.362 376.271 357.949 376.271 355.432V279.433Z" fill="white" stroke="#263238" stroke-width="0.819791" stroke-linecap="round" stroke-linejoin="round"/>
<path d="M455.626 279.433V355.053C455.623 357.665 454.583 360.168 452.735 362.014C450.887 363.86 448.382 364.897 445.77 364.897H453.052C455.663 364.897 458.167 363.86 460.013 362.013C461.859 360.167 462.896 357.664 462.896 355.053V279.433H455.626Z" fill="#263238" stroke="#263238" stroke-width="0.819791" stroke-linecap="round" stroke-linejoin="round"/>
<path d="M390.194 279.433V355.053C390.194 360.485 398.069 364.897 403.513 364.897H396.243C393.633 364.894 391.131 363.855 389.286 362.01C387.44 360.165 386.402 357.663 386.399 355.053V279.433H390.194Z" fill="#263238" stroke="#263238" stroke-width="0.819791" stroke-linecap="round" stroke-linejoin="round"/>
<path d="M465.766 276.291H376.864C374.781 276.291 373.092 277.979 373.092 280.062V280.359C373.092 282.442 374.781 284.13 376.864 284.13H465.766C467.849 284.13 469.537 282.442 469.537 280.359V280.062C469.537 277.979 467.849 276.291 465.766 276.291Z" fill="white" stroke="#263238" stroke-width="0.819791" stroke-linecap="round" stroke-linejoin="round"/>
<path d="M365.087 292.266H384.181V298.718H365.087C364.262 298.718 363.472 298.39 362.889 297.808C362.307 297.225 361.979 296.435 361.979 295.61V295.314C361.995 294.5 362.329 293.725 362.91 293.155C363.491 292.585 364.273 292.266 365.087 292.266V292.266Z" fill="white" stroke="#263238" stroke-width="0.819791" stroke-linecap="round" stroke-linejoin="round"/>
<path d="M376.187 292.266H395.282V298.718H376.187C375.363 298.718 374.573 298.39 373.99 297.808C373.407 297.225 373.08 296.435 373.08 295.61V295.314C373.096 294.5 373.43 293.725 374.011 293.155C374.592 292.585 375.373 292.266 376.187 292.266V292.266Z" fill="white" stroke="#263238" stroke-width="0.819791" stroke-linecap="round" stroke-linejoin="round"/>
<path d="M466.122 281.367H376.52V282.576H466.122V281.367Z" fill="#263238" stroke="#263238" stroke-width="0.819791" stroke-linecap="round" stroke-linejoin="round"/>
<path d="M421.528 261.015H421.386C420.325 261.015 419.465 261.875 419.465 262.936V268.404C419.465 269.465 420.325 270.325 421.386 270.325H421.528C422.589 270.325 423.45 269.465 423.45 268.404V262.936C423.45 261.875 422.589 261.015 421.528 261.015Z" fill="#5C5C5C" stroke="#263238" stroke-width="0.819791" stroke-linecap="round" stroke-linejoin="round"/>
<path d="M377.006 276.338L380.848 273.658C385.388 270.479 390.796 268.773 396.338 268.771H446.861C453.855 268.771 460.577 271.484 465.612 276.338H377.006Z" fill="#5C5C5C" stroke="#263238" stroke-width="0.819791" stroke-linecap="round" stroke-linejoin="round"/>
<path d="M146.661 209.317C146.661 209.317 151.583 217.75 153.682 222.66C155.781 227.57 158.604 233.903 155.793 232.492C152.982 231.08 150.172 229.337 147.717 229.337C145.262 229.337 144.562 232.148 143.506 230.037C142.451 227.925 146.661 209.317 146.661 209.317Z" fill="#17A697" stroke="#263238" stroke-width="0.819791" stroke-linecap="round" stroke-linejoin="round"/>
<path d="M139.296 512.008C139.296 512.008 156.149 521.84 162.482 523.951C168.815 526.062 173.014 529.881 173.358 533.783L173.714 537.637L173.358 540.448H96.4456C95.2761 537.546 94.68 534.445 94.6903 531.316C94.6903 526.05 97.5011 524.995 98.9125 521.828C100.324 518.662 134.018 509.553 134.018 509.553L139.296 512.008Z" fill="#17A697" stroke="#263238" stroke-width="0.819791" stroke-linecap="round" stroke-linejoin="round"/>
<path d="M95.4258 537.258C95.6817 538.335 96.0227 539.39 96.4457 540.413H173.346L173.702 537.602L173.346 533.747C173.002 529.881 168.792 526.015 162.47 523.915V537.258H95.4258Z" fill="white" stroke="#263238" stroke-width="0.819791" stroke-linecap="round" stroke-linejoin="round"/>
<path d="M158.248 344.509C158.248 344.509 160.715 348.72 158.604 350.439C156.493 352.159 155.437 352.906 155.437 352.906C156.898 355.845 157.272 359.206 156.493 362.394C155.093 367.316 148.772 388.024 148.772 397.856C148.772 407.688 149.472 431.918 145.605 445.616C141.739 459.314 134.018 489.154 135.074 495.831C136.129 502.508 139.996 505.663 140.695 507.418C141.292 509.591 141.528 511.846 141.395 514.095C141.395 516.195 134.018 525.683 121.731 530.237C109.444 534.791 99.1972 535.515 96.8252 534.803C94.4532 534.091 91.9151 529.893 92.2591 526.382C92.603 522.872 93.6941 522.196 93.6941 519.729C93.6941 517.262 88.0725 493.4 88.7722 480.057C89.4719 466.715 100.715 446.339 100.715 436.507C100.715 426.675 97.1572 409.478 94.3938 399.291C91.6305 389.103 90.8358 387.004 90.8358 385.948C90.8358 384.893 86.9695 376.816 84.5145 370.139C82.0595 363.462 78.5845 357.152 78.5845 350.131C78.6312 345.432 78.9838 340.742 79.64 336.089L82.8066 328.012C82.8066 328.012 155.485 338.188 156.54 338.188C157.596 338.188 158.248 344.509 158.248 344.509Z" fill="#263238" stroke="#263238" stroke-width="0.819791" stroke-linecap="round" stroke-linejoin="round"/>
<path d="M164.451 312.191C164.451 312.191 182.988 302.928 186.001 299.667C189.013 296.405 186.001 288.898 186.997 288.898C187.993 288.898 194.006 286.395 194.516 284.154C195.026 281.912 194.006 278.141 195.014 278.141C196.022 278.141 207.538 275.389 212.045 275.638C216.552 275.887 228.578 276.385 232.587 270.633C236.595 264.881 239.572 259.853 239.572 258.346C239.572 256.84 238.386 256.413 235.836 258.133C233.286 259.853 212.27 260.351 206.507 260.351C200.743 260.351 198.501 259.592 195.987 261.537C193.472 263.482 183.973 273.065 182.715 273.065C181.458 273.065 177.461 272.567 175.208 275.069C173.424 273.919 171.31 273.389 169.195 273.563C166.183 274.061 152.413 281.58 152.413 281.58L164.451 312.191Z" fill="#9E9E9E" stroke="#263238" stroke-width="0.819791" stroke-linecap="round" stroke-linejoin="round"/>
<path d="M145.961 224.415C146.269 224.859 146.554 225.318 146.815 225.791C149.095 229.941 150.591 234.476 151.227 239.169C152.638 248.657 153.338 266.21 156.493 278.497C159.648 290.783 171.247 309.392 169.539 324.845C167.831 340.299 163.217 345.209 155.141 345.565C147.064 345.921 90.5275 333.978 82.1069 331.523C73.6863 329.068 71.9192 330.467 72.6189 322.39C73.3186 314.314 82.1069 285.162 82.4508 274.63C82.7948 264.098 75.0739 240.924 86.0088 224.071C96.9437 207.218 108.839 195.975 115.505 197.386C122.17 198.797 141.395 212.128 145.961 224.415Z" fill="white" stroke="#263238" stroke-width="0.819791" stroke-linecap="round" stroke-linejoin="round"/>
<path d="M129.808 121.185C129.808 121.185 142.095 115.92 151.927 117.319C161.759 118.719 171.591 126.451 173.702 131.717C175.813 136.983 177.568 139.438 177.568 142.949C177.568 146.459 177.568 147.515 177.212 148.57L176.868 149.626C176.868 149.626 180.426 158.058 180.723 160.857C181.019 163.656 180.723 165.079 178.268 165.079H175.813C175.813 165.079 172.646 186.143 169.883 188.598C167.119 191.053 158.651 191.409 158.651 191.409C158.651 191.409 150.575 194.967 148.819 206.162C147.064 217.358 144.953 230.392 144.953 230.392C144.953 230.392 127.044 197.73 124.945 190.709C122.846 183.688 121.779 178.766 121.779 178.766C123.785 175.462 125.003 171.741 125.337 167.89C125.692 161.96 117.96 149.27 120.071 137.339C122.182 125.408 129.808 121.185 129.808 121.185Z" fill="#999999" stroke="#263238" stroke-width="0.819791" stroke-linecap="round" stroke-linejoin="round"/>
<path d="M169.835 188.574C172.018 186.676 174.401 173.595 175.374 167.807C173.085 166.064 162.423 164.38 158.248 166.455C154.073 168.531 149.472 172.077 148.76 171.021C148.048 169.966 144.692 154.18 147.123 151.381C149.555 148.582 155.556 148.558 154.145 143.992C152.733 139.426 146.661 141.905 146.317 138.062C145.973 134.22 149.875 130.685 145.261 129.642C142.09 129.082 138.829 129.322 135.773 130.341C134.73 130.341 132.619 128.93 132.619 125.419C132.62 124.493 132.306 123.594 131.728 122.87C131.151 122.145 130.344 121.639 129.44 121.435C127.886 122.443 121.814 126.973 119.952 137.362C117.841 149.294 125.574 161.936 125.218 167.914C124.932 171.453 123.893 174.89 122.17 177.995C123.793 178.709 125.607 178.867 127.329 178.446C130.887 177.39 130.484 174.235 131.539 171.768C132.595 169.301 136.105 168.614 134.35 164.048C132.595 159.481 137.161 154.559 139.26 154.915C141.359 155.271 143.482 158.782 142.427 160.845C141.371 162.909 138.869 173.132 138.869 178.398C138.869 183.664 140.268 188.23 143.435 189.985C146.602 191.741 150.99 193.318 154.109 194.729C155.359 193.378 156.841 192.261 158.485 191.432C158.485 191.432 167.036 191.065 169.835 188.574Z" fill="#263238" stroke="#263238" stroke-width="0.819791" stroke-linecap="round" stroke-linejoin="round"/>
<path d="M170.891 151.025C170.891 152.389 170.417 153.492 169.835 153.492C169.254 153.492 168.792 152.389 168.792 151.025C168.792 149.661 169.254 148.57 169.835 148.57C170.417 148.57 170.891 149.673 170.891 151.025Z" fill="#263238"/>
<path d="M164.569 144.692C166.359 143.69 168.242 142.863 170.191 142.225C171.946 141.881 174.757 143.281 174.401 140.47C174.046 137.659 170.547 138.715 166.325 139.77C162.103 140.826 162.114 143.304 164.569 144.692Z" fill="white" stroke="#263238" stroke-width="0.819791" stroke-linecap="round" stroke-linejoin="round"/>
<path d="M160.003 150.326C161.114 150.968 162.312 151.444 163.561 151.737" stroke="#263238" stroke-width="0.819791" stroke-linecap="round" stroke-linejoin="round"/>
<path d="M163.514 153.136C162.911 153.565 162.219 153.85 161.49 153.971C160.76 154.093 160.013 154.046 159.304 153.836" stroke="#263238" stroke-width="0.819791" stroke-linecap="round" stroke-linejoin="round"/>
<path d="M158.616 137.315C158.616 137.315 164.059 132.962 170.867 134.054" stroke="#263238" stroke-width="0.819791" stroke-linecap="round" stroke-linejoin="round"/>
<path d="M161.604 130.46C161.604 130.46 168.412 128.562 171.413 130.46" stroke="#263238" stroke-width="0.819791" stroke-linecap="round" stroke-linejoin="round"/>
<path d="M136.129 127.507C135.074 127.507 132.975 126.096 132.975 122.585C132.975 119.074 128.752 116.975 125.598 119.774C122.443 122.573 123.143 124.34 119.976 125.04C116.809 125.74 110.144 123.64 109.088 130.318C108.033 136.995 109.444 138.738 108.033 140.494C106.622 142.249 99.2565 145.415 99.6123 151.381C99.9681 157.347 104.178 157.311 102.767 160.869C101.356 164.427 97.857 168.946 103.123 172.456C108.389 175.967 117.165 168.602 118.221 171.413C119.276 174.223 124.151 176.678 127.709 175.623C131.267 174.567 130.875 171.413 131.931 168.946C132.986 166.479 136.497 165.791 134.742 161.225C132.986 156.659 137.541 151.737 139.652 152.093C141.763 152.448 143.862 155.959 142.818 158.023C141.775 160.086 139.26 170.31 139.26 175.575C139.26 180.841 140.66 185.407 143.815 187.163C146.969 188.918 151.891 190.721 155.058 192.085C158.224 193.448 168.045 197.694 171.211 194.884C174.378 192.073 176.121 185.396 176.121 179.086C176.121 172.776 177.876 166.799 175.777 165.044C173.678 163.288 162.731 161.486 158.568 163.632C154.406 165.779 149.792 169.254 149.08 168.199C148.369 167.143 145.914 155.912 148.369 153.101C150.824 150.29 156.801 146.779 155.39 142.213C153.979 137.647 146.969 139.058 146.614 135.192C146.258 131.326 150.172 127.815 145.558 126.772C142.403 126.232 139.163 126.484 136.129 127.507V127.507Z" fill="white" stroke="#263238" stroke-width="0.819791" stroke-linecap="round" stroke-linejoin="round"/>
<path d="M161.415 168.59C162.463 170.16 163.968 171.371 165.726 172.06C167.484 172.75 169.41 172.884 171.247 172.444" stroke="#263238" stroke-width="0.819791" stroke-linecap="round" stroke-linejoin="round"/>
<path d="M143.364 156.92C143.364 156.92 142.818 152.021 136.829 151.203C130.84 150.385 130.294 160.181 132.749 164.818C135.204 169.456 138.466 166.989 138.466 166.989" fill="#999999"/>
<path d="M143.364 156.92C143.364 156.92 142.818 152.021 136.829 151.203C130.84 150.385 130.294 160.181 132.749 164.818C135.204 169.456 138.466 166.989 138.466 166.989" stroke="#263238" stroke-width="0.819791" stroke-linecap="round" stroke-linejoin="round"/>
<path d="M121.031 175.255C121.031 175.255 133.674 204.751 137.185 212.484C140.695 220.216 145.961 225.826 145.961 233.547C145.961 241.268 149.128 258.133 149.128 274.986C149.128 291.839 153.338 316.069 151.927 325.545C150.515 335.021 147.064 342.054 147.064 345.921C147.064 349.787 147.408 355.409 145.653 355.409C143.898 355.409 118.624 353.653 100.004 349.087C81.3835 344.521 70.5078 342.41 70.5078 339.599C70.5078 336.788 71.5634 331.523 71.5634 330.111C71.5634 328.7 67.3531 325.901 69.4642 316.425C71.5752 306.949 73.6745 277.441 74.3742 256.378C75.0739 235.314 83.5064 216.694 89.128 208.262C94.7497 199.829 104.546 193.875 104.546 193.875C104.546 193.875 98.9363 187.198 105.602 182.988C110.538 180.017 115.697 177.431 121.031 175.255V175.255Z" fill="#17A697" stroke="#263238" stroke-width="0.819791" stroke-linecap="round" stroke-linejoin="round"/>
<path d="M75.3823 329.981C96.4425 339.007 119.088 343.752 142 343.94" stroke="#263238" stroke-width="0.819791" stroke-linecap="round" stroke-linejoin="round"/>
<path d="M83.3879 333.159L81.9529 342.801" stroke="#263238" stroke-width="0.819791" stroke-linecap="round" stroke-linejoin="round"/>
<path d="M93.9906 337.5L92.5437 345.209" stroke="#263238" stroke-width="0.819791" stroke-linecap="round" stroke-linejoin="round"/>
<path d="M105.554 340.382L104.594 348.091" stroke="#263238" stroke-width="0.819791" stroke-linecap="round" stroke-linejoin="round"/>
<path d="M116.157 342.315L115.671 349.064" stroke="#263238" stroke-width="0.819791" stroke-linecap="round" stroke-linejoin="round"/>
<path d="M128.195 343.762V350.985" stroke="#263238" stroke-width="0.819791" stroke-linecap="round" stroke-linejoin="round"/>
<path d="M137.185 212.484C133.627 204.751 121.032 175.255 121.032 175.255C115.701 177.432 110.546 180.017 105.614 182.988C98.9482 187.198 104.558 193.875 104.558 193.875C104.558 193.875 116.501 211.428 120.367 219.505C124.234 227.582 123.178 225.826 126.689 231.448C130.199 237.07 131.955 241.624 133.01 239.868C134.066 238.113 142.842 229.681 144.941 230.38C145.19 230.464 145.451 230.535 145.736 230.606C144.609 224.32 140.233 219.197 137.185 212.484Z" fill="#17A697" stroke="#263238" stroke-width="0.819791" stroke-linecap="round" stroke-linejoin="round"/>
<path d="M185.289 248.645H251.705C251.705 248.645 246.083 256.022 240.818 259.188C235.552 262.355 228.531 262.746 228.531 262.746H210.919C210.919 262.746 196.876 262.343 185.289 248.645Z" fill="#17A697" stroke="#263238" stroke-width="0.819791" stroke-linecap="round" stroke-linejoin="round"/>
<path d="M183.178 266.909C186.14 264.309 188.635 261.22 190.555 257.777C191.529 255.746 192.953 253.964 194.718 252.565C196.483 251.165 198.543 250.186 200.743 249.7C204.301 249.001 215.84 247.945 217.951 246.89C220.062 245.834 221.509 250.756 220.406 252.511C219.303 254.267 214.785 255.666 211.974 256.069C210.154 256.403 208.525 257.405 207.408 258.88C208.994 260.105 210.774 261.055 212.674 261.691C215.84 262.746 221.462 263.09 223.917 261.691C226.372 260.291 235.148 253.958 235.86 258.133C236.572 262.308 232.693 264.063 230.582 266.554C228.471 269.044 224.652 273.575 223.217 273.93C221.782 274.286 210.574 274.286 203.553 274.986C196.532 275.686 188.135 280.608 188.135 280.608L181.814 266.909H183.178Z" fill="#999999" stroke="#263238" stroke-width="0.819791" stroke-linecap="round" stroke-linejoin="round"/>
<path d="M170.191 272.175C170.191 272.175 181.423 264.798 183.178 266.909C184.933 269.02 193.366 278.141 191.254 282.007C189.143 285.873 175.457 292.195 175.457 292.195L170.191 272.175Z" fill="#17A697" stroke="#263238" stroke-width="0.819791" stroke-linecap="round" stroke-linejoin="round"/>
<path d="M117.165 219.861C117.165 219.861 125.242 228.637 128.408 236.714C131.575 244.79 138.94 267.55 139.996 269.364C141.051 271.179 142.806 274.286 142.806 274.286C142.806 274.286 161.059 269.364 164.925 269.02C168.792 268.676 172.646 272.175 175.101 276.741C177.556 281.307 185.645 294.994 182.134 298.516C178.624 302.039 148.072 317.848 138.94 321.335C129.808 324.822 120.676 322.734 116.406 315.405C112.136 308.075 94.2871 267.301 90.7766 257.813C87.266 248.325 87.6099 240.604 89.0213 237.793" fill="#17A697"/>
<path d="M117.165 219.861C117.165 219.861 125.242 228.637 128.408 236.714C131.575 244.79 138.94 267.55 139.996 269.364C141.051 271.179 142.806 274.286 142.806 274.286C142.806 274.286 161.059 269.364 164.925 269.02C168.792 268.676 172.646 272.175 175.101 276.741C177.556 281.307 185.645 294.994 182.134 298.516C178.624 302.039 148.072 317.848 138.94 321.335C129.808 324.822 120.676 322.734 116.406 315.405C112.136 308.075 94.2871 267.301 90.7766 257.813C87.266 248.325 87.6099 240.604 89.0213 237.793" stroke="#263238" stroke-width="0.819791" stroke-linecap="round" stroke-linejoin="round"/>
<path d="M129.808 297.461C131.563 286.217 142.854 274.286 142.854 274.286C142.854 274.286 130.211 280.608 125.989 285.873" stroke="#263238" stroke-width="0.819791" stroke-linecap="round" stroke-linejoin="round"/>
</svg>
