<svg width="48" height="45" viewBox="0 0 48 45" fill="none" xmlns="http://www.w3.org/2000/svg">
<rect x="28.4737" y="2.6813" width="6.08486" height="7.17702" rx="2.8084" transform="rotate(5.49883 28.4737 2.6813)" stroke="#F2D7B6" stroke-width="2.65237"/>
<path d="M2.92552 6.73369L1.52688 4.852C1.356 4.62211 1.40857 4.28352 1.63246 4.10485C12.8708 -4.86335 13.2309 24.5504 11.6487 11.3331C10.7838 4.10793 6.10476 3.85255 3.90584 6.70162C3.66126 7.01852 3.16431 7.05496 2.92552 6.73369Z" fill="#F2D7B6" stroke="#F2D7B6" stroke-width="1.4042" stroke-linecap="round"/>
<rect x="5.05658" y="10.5955" width="37.9914" height="3.5105" rx="1.75525" fill="#17A697"/>
<path d="M14.3451 9.07446C14.5987 6.43992 16.94 4.5098 19.5746 4.76342L43.0273 7.02118C45.3236 7.24225 47.006 9.28304 46.7849 11.5794V11.5794C46.6633 12.8426 45.5408 13.768 44.2776 13.6464L15.8587 10.9106C14.9337 10.8215 14.256 9.99946 14.3451 9.07446V9.07446Z" fill="#17A697"/>
<rect x="0.651697" y="0.614276" width="4.32104" height="7.64359" rx="2.16052" transform="matrix(0.0443471 0.999016 0.999891 -0.0147394 35.7235 13.9752)" stroke="#17A697" stroke-width="1.24818"/>
<rect x="0.651697" y="0.614276" width="4.32104" height="7.64359" rx="2.16052" transform="matrix(0.0443471 0.999016 0.999891 -0.0147394 2.41282 13.9752)" stroke="#17A697" stroke-width="1.24818"/>
<path fill-rule="evenodd" clip-rule="evenodd" d="M41.0197 12.6235H6.22675V32.4383C6.22675 39.2026 11.7102 44.6861 18.4745 44.6861H28.7719C35.5362 44.6861 41.0197 39.2026 41.0197 32.4383V12.6235ZM20.6695 33.6315C20.3806 33.1517 19.7574 32.9969 19.2776 33.2858C18.7978 33.5747 18.643 34.1978 18.9318 34.6777C19.8818 36.2555 21.7444 37.0069 23.5003 37.0398C25.2738 37.0731 27.2095 36.383 28.3564 34.7335C28.6762 34.2737 28.5626 33.6417 28.1027 33.3219C27.6429 33.0022 27.0109 33.1158 26.6911 33.5757C26.0236 34.5356 24.8144 35.0359 23.5383 35.0119C22.2446 34.9876 21.1528 34.4343 20.6695 33.6315ZM18.9737 25.1893C18.9737 26.6078 18.0307 27.7577 16.8674 27.7577C15.7041 27.7577 14.7611 26.6078 14.7611 25.1893C14.7611 23.7707 15.7041 22.6208 16.8674 22.6208C18.0307 22.6208 18.9737 23.7707 18.9737 25.1893ZM13.8126 21.0757C13.6936 21.2823 13.7633 21.5436 13.9683 21.6593C14.1733 21.775 14.4361 21.7012 14.5551 21.4945C14.8119 21.0489 15.3743 20.7633 16.0285 20.6553C16.3456 20.6029 16.6586 20.5975 16.9216 20.6279C17.1959 20.6595 17.3721 20.7249 17.4498 20.7781C17.6439 20.911 17.9116 20.8598 18.0478 20.6638C18.1839 20.4678 18.137 20.2012 17.9429 20.0683C17.7018 19.9032 17.3675 19.8144 17.0335 19.7759C16.6882 19.736 16.2948 19.7443 15.9015 19.8092C15.1348 19.9358 14.2598 20.2995 13.8126 21.0757ZM33.3093 21.6594C33.5143 21.5437 33.584 21.2824 33.465 21.0757C33.0178 20.2996 32.1428 19.9359 31.3761 19.8093C30.9828 19.7443 30.5894 19.7361 30.2441 19.7759C29.9101 19.8145 29.5758 19.9032 29.3348 20.0683C29.1407 20.2012 29.0937 20.4679 29.2299 20.6639C29.366 20.8599 29.6338 20.911 29.8279 20.7781C29.9055 20.7249 30.0817 20.6596 30.356 20.6279C30.619 20.5975 30.932 20.603 31.2491 20.6553C31.9033 20.7634 32.4657 21.0489 32.7225 21.4946C32.8415 21.7012 33.1043 21.775 33.3093 21.6594ZM29.006 24.3253C28.6182 24.3253 28.3039 24.6396 28.3039 25.0274C28.3039 25.4151 28.6182 25.7295 29.006 25.7295H32.3605C32.7482 25.7295 33.0626 25.4151 33.0626 25.0274C33.0626 24.6396 32.7482 24.3253 32.3605 24.3253H29.006Z" fill="#17A697"/>
</svg>
