<svg width="48" height="45" viewBox="0 0 48 45" fill="none" xmlns="http://www.w3.org/2000/svg">
<rect x="28.4737" y="2.68118" width="6.08486" height="7.17702" rx="2.8084" transform="rotate(5.49883 28.4737 2.68118)" stroke="#17A697" stroke-width="2.65237"/>
<path d="M2.92552 6.73381L1.52688 4.85212C1.356 4.62223 1.40857 4.28364 1.63246 4.10497C12.8708 -4.86323 13.2309 24.5505 11.6487 11.3333C10.7838 4.10805 6.10476 3.85267 3.90584 6.70175C3.66126 7.01864 3.16431 7.05508 2.92552 6.73381Z" fill="#17A697" stroke="#17A697" stroke-width="1.4042" stroke-linecap="round"/>
<rect x="5.05658" y="10.5953" width="37.9914" height="3.5105" rx="1.75525" fill="#012340"/>
<path d="M14.3451 9.07446C14.5987 6.43992 16.94 4.5098 19.5746 4.76342L43.0273 7.02118C45.3236 7.24225 47.006 9.28304 46.7849 11.5794V11.5794C46.6633 12.8426 45.5408 13.768 44.2776 13.6464L15.8587 10.9106C14.9337 10.8215 14.256 9.99946 14.3451 9.07446V9.07446Z" fill="#012340"/>
<rect x="0.651697" y="0.614276" width="4.32104" height="7.64359" rx="2.16052" transform="matrix(0.0443471 0.999016 0.999891 -0.0147394 35.7235 13.9751)" stroke="#012340" stroke-width="1.24818"/>
<rect x="0.651697" y="0.614276" width="4.32104" height="7.64359" rx="2.16052" transform="matrix(0.0443471 0.999016 0.999891 -0.0147394 2.41282 13.9751)" stroke="#012340" stroke-width="1.24818"/>
<path fill-rule="evenodd" clip-rule="evenodd" d="M41.0197 12.6237H6.22675V32.4385C6.22675 39.2027 11.7102 44.6862 18.4745 44.6862H28.7719C35.5362 44.6862 41.0197 39.2027 41.0197 32.4385V12.6237ZM20.6695 33.6316C20.3806 33.1518 19.7574 32.997 19.2776 33.2859C18.7978 33.5748 18.643 34.198 18.9318 34.6778C19.8818 36.2557 21.7444 37.007 23.5003 37.04C25.2738 37.0732 27.2095 36.3832 28.3564 34.7337C28.6762 34.2738 28.5626 33.6418 28.1027 33.3221C27.6429 33.0023 27.0109 33.1159 26.6911 33.5758C26.0236 34.5358 24.8144 35.036 23.5383 35.012C22.2446 34.9878 21.1528 34.4344 20.6695 33.6316ZM18.9737 25.1894C18.9737 26.6079 18.0307 27.7578 16.8674 27.7578C15.7041 27.7578 14.7611 26.6079 14.7611 25.1894C14.7611 23.7709 15.7041 22.6209 16.8674 22.6209C18.0307 22.6209 18.9737 23.7709 18.9737 25.1894ZM13.8126 21.0758C13.6936 21.2825 13.7633 21.5438 13.9683 21.6594C14.1733 21.7751 14.4361 21.7013 14.5551 21.4947C14.8119 21.049 15.3743 20.7635 16.0285 20.6554C16.3456 20.603 16.6586 20.5976 16.9216 20.628C17.1959 20.6596 17.3721 20.725 17.4498 20.7782C17.6439 20.9111 17.9116 20.86 18.0478 20.664C18.1839 20.4679 18.137 20.2013 17.9429 20.0684C17.7018 19.9033 17.3675 19.8145 17.0335 19.776C16.6882 19.7361 16.2948 19.7444 15.9015 19.8093C15.1348 19.936 14.2598 20.2997 13.8126 21.0758ZM33.3093 21.6595C33.5143 21.5438 33.584 21.2825 33.465 21.0759C33.0178 20.2997 32.1428 19.936 31.3761 19.8094C30.9828 19.7444 30.5894 19.7362 30.2441 19.776C29.9101 19.8146 29.5758 19.9033 29.3348 20.0684C29.1407 20.2013 29.0937 20.468 29.2299 20.664C29.366 20.86 29.6338 20.9112 29.8279 20.7782C29.9055 20.7251 30.0817 20.6597 30.356 20.628C30.619 20.5977 30.932 20.6031 31.2491 20.6555C31.9033 20.7635 32.4657 21.049 32.7225 21.4947C32.8415 21.7014 33.1043 21.7751 33.3093 21.6595ZM29.006 24.3254C28.6182 24.3254 28.3039 24.6397 28.3039 25.0275C28.3039 25.4153 28.6182 25.7296 29.006 25.7296H32.3605C32.7482 25.7296 33.0626 25.4153 33.0626 25.0275C33.0626 24.6397 32.7482 24.3254 32.3605 24.3254H29.006Z" fill="#012340"/>
</svg>
