<svg width="532" height="262" viewBox="0 0 532 262" fill="none" xmlns="http://www.w3.org/2000/svg">
<path d="M0 73.044C0 55.3709 14.3269 41.0439 32 41.0439H500C517.673 41.0439 532 55.3708 532 73.0439V261.506H0V73.044Z" fill="#012340"/>
<path d="M437.47 175.79C437.47 175.79 454.791 89.4235 402.162 41.5866C355.705 -0.640376 283.142 -16.0456 224.939 20.6936C204.202 33.7856 179.629 47.1015 155.263 55.1738C127.941 64.2297 97.6916 66.4479 72.8787 103.526C48.0657 140.605 62.8779 200.502 97.3823 224.875C131.887 249.248 193.83 248.278 247.442 245.443C301.054 242.607 411.372 282.467 437.47 175.79Z" fill="#F2D7B6"/>
<path opacity="0.7" d="M437.47 175.79C437.47 175.79 454.791 89.4235 402.162 41.5866C355.705 -0.640376 283.142 -16.0456 224.939 20.6936C204.202 33.7856 179.629 47.1015 155.263 55.1738C127.941 64.2297 97.6916 66.4479 72.8787 103.526C48.0657 140.605 62.8779 200.502 97.3823 224.875C131.887 249.248 193.83 248.278 247.442 245.443C301.054 242.607 411.372 282.467 437.47 175.79Z" fill="white"/>
<path d="M404.045 200.55C404.045 200.55 391.316 208.473 382.703 213.343C374.091 218.214 362.53 219.72 362.337 221.267C362.145 222.813 349.216 260.828 349.216 260.828H474.154C474.154 260.828 464.758 241.495 462.599 234.372C460.441 227.25 460.448 223.166 458.682 222.393C456.915 221.619 433.614 210.02 422.651 203.257L404.045 200.55Z" fill="white" stroke="#263238" stroke-miterlimit="10"/>
<path d="M367.039 219.191L378.902 260.828H441.271L459.83 223.776C459.649 223.176 459.237 222.67 458.682 222.365C456.922 221.592 433.614 209.992 422.651 203.229L404.045 200.516C404.045 200.516 391.316 208.473 382.703 213.343C377.5 216.226 371.232 217.943 367.039 219.191Z" fill="#F2D7B6" stroke="#263238" stroke-linecap="round" stroke-linejoin="round"/>
<path d="M404.045 200.55C404.045 200.55 399.447 203.413 393.907 206.75C393.608 208.094 393.379 209.453 393.219 210.82C391.446 225.459 398.113 238.279 408.107 239.46C418.101 240.64 427.641 229.732 429.415 215.094C429.731 212.5 429.782 209.882 429.566 207.279C427.009 205.841 424.645 204.478 422.693 203.263L404.045 200.55Z" fill="white" stroke="#263238" stroke-miterlimit="10"/>
<path d="M403.468 183.93L398.766 207.313C398.766 207.313 400.918 233.212 408.953 233.409C416.988 233.606 425.978 207.917 425.978 207.917L426.37 187.431L403.468 183.93Z" fill="#BABABA" stroke="#263238" stroke-linecap="round" stroke-linejoin="round"/>
<path d="M426.363 187.722L421.256 189.5L410.307 194.411L426.04 204.925L426.363 187.722Z" fill="#263238" stroke="#263238" stroke-miterlimit="10"/>
<path d="M467.892 138.122C467.892 135.116 467.066 132.167 465.502 129.588C463.938 127.009 461.695 124.897 459.011 123.476C457.57 119.981 454.958 117.078 451.611 115.252C448.264 113.427 444.384 112.788 440.618 113.444C439.398 110.822 437.454 108.593 435.01 107.011C432.566 105.429 429.719 104.558 426.797 104.498C423.874 104.438 420.994 105.191 418.485 106.671C415.976 108.151 413.939 110.298 412.609 112.867C409.578 111.215 406.094 110.556 402.659 110.982C399.224 111.409 396.014 112.901 393.493 115.242C390.971 117.584 389.267 120.655 388.626 124.013C387.986 127.371 388.441 130.843 389.927 133.93C387.227 133.163 384.336 133.411 381.811 134.626C379.286 135.841 377.307 137.937 376.256 140.508C375.206 143.08 375.158 145.944 376.123 148.548C377.088 151.151 378.996 153.31 381.48 154.606C380.779 155.974 380.388 157.477 380.332 159.009C380.276 160.542 380.557 162.068 381.156 163.483C381.755 164.898 382.658 166.168 383.802 167.206C384.946 168.244 386.304 169.025 387.783 169.495C387.502 170.781 387.498 172.11 387.773 173.398C388.047 174.685 388.592 175.9 389.373 176.966C390.154 178.031 391.154 178.922 392.307 179.582C393.46 180.241 394.741 180.653 396.066 180.792C397.391 180.931 398.731 180.793 399.999 180.387C401.267 179.981 402.433 179.317 403.424 178.437C404.414 177.557 405.206 176.482 405.748 175.28C406.289 174.078 406.569 172.778 406.568 171.462C406.568 169.075 405.64 166.778 403.976 165.045L406.176 146.242L430.068 148.175L427.263 173.803C426.861 175.336 426.818 176.94 427.137 178.492C427.456 180.045 428.129 181.505 429.104 182.763C430.08 184.021 431.332 185.043 432.767 185.753C434.203 186.462 435.782 186.84 437.387 186.857C438.992 186.875 440.58 186.531 442.031 185.854C443.481 185.176 444.757 184.181 445.76 182.945C446.764 181.708 447.469 180.263 447.822 178.718C448.176 177.173 448.169 175.569 447.801 174.027C450.229 173.862 452.574 173.084 454.609 171.766C456.644 170.448 458.3 168.635 459.419 166.501C460.538 164.368 461.081 161.986 460.997 159.585C460.912 157.185 460.202 154.846 458.936 152.794C461.637 151.381 463.898 149.269 465.476 146.684C467.054 144.099 467.889 141.139 467.892 138.122V138.122Z" fill="#263238" stroke="#263238" stroke-miterlimit="10"/>
<path d="M397.969 163.444C397.969 163.444 394.251 155.304 391.508 161.898C388.766 168.491 393.845 173.321 397.392 175.234C400.938 177.147 397.969 163.444 397.969 163.444Z" fill="#BABABA" stroke="#263238" stroke-linecap="round" stroke-linejoin="round"/>
<path d="M437.835 167.379C437.835 167.379 442.46 159.734 444.433 166.565C446.406 173.396 440.783 177.635 437.058 179.155C433.333 180.674 437.835 167.379 437.835 167.379Z" fill="#BABABA" stroke="#263238" stroke-linecap="round" stroke-linejoin="round"/>
<path d="M397.192 158.615C397.192 158.615 397 176.007 399.543 180.837C402.086 185.667 411.097 198.42 416.775 197.843C422.452 197.267 430.679 188.76 432.838 185.477C433.792 184.124 434.642 182.702 435.381 181.224L439.505 163.058C439.505 163.058 437.745 161.701 437.938 158.228C438.119 155.986 438.787 153.809 439.897 151.845C439.08 151.467 438.368 150.899 437.822 150.19C437.276 149.481 436.913 148.653 436.762 147.775C436.521 145.916 436.39 144.045 436.371 142.172C436.371 142.172 428.542 140.042 424.232 134.031C424.232 134.031 417.572 138.285 412.286 135.578C412.286 135.578 407.585 143.718 402.883 142.538C402.87 142.572 405.22 156.871 397.192 158.615Z" fill="#BABABA" stroke="#263238" stroke-linecap="round" stroke-linejoin="round"/>
<path d="M406.788 153.201C406.788 153.201 413.661 148.948 416.974 154.558" stroke="#263238" stroke-miterlimit="10"/>
<path d="M424.803 157.258L432.638 157.841" stroke="#263238" stroke-miterlimit="10"/>
<path d="M411.489 161.789C411.489 163.227 410.918 164.394 410.217 164.394C409.516 164.394 408.966 163.241 408.966 161.789C408.966 160.338 409.53 159.178 410.238 159.178C410.946 159.178 411.489 160.358 411.489 161.789Z" fill="#263238" stroke="#263238" stroke-miterlimit="10"/>
<path d="M429.855 164.835C429.47 166.226 428.618 167.209 427.937 167.026C427.257 166.843 427.016 165.574 427.394 164.177C427.772 162.78 428.631 161.81 429.312 161.986C429.992 162.162 430.233 163.444 429.855 164.835Z" fill="#263238" stroke="#263238" stroke-miterlimit="10"/>
<path d="M414.424 170.018L413.249 173.687L422.844 174.461L422.459 171.754" stroke="#263238" stroke-miterlimit="10"/>
<path d="M414.816 181.807L419.125 182.384" stroke="#263238" stroke-miterlimit="10"/>
<path d="M400.519 197.653L396.017 224.875L365.664 260.271H389.164L403.261 228.769C403.261 228.769 406.595 227.032 408.162 225.486C409.729 223.939 411.681 220.059 411.681 220.059C411.681 220.059 410.898 223.152 412.664 224.889C414.431 226.625 416.383 226.049 416.383 225.086C416.383 224.122 415.991 220.832 416.19 218.702C416.39 216.572 418.94 207.686 417.565 205.95C416.19 204.213 406.011 204.593 406.011 204.593L405.619 200.916C405.619 200.916 417.373 199.56 418.156 197.633C418.94 195.707 419.531 194.54 416.39 194.736C413.248 194.933 409.736 194.35 405.818 195.313C401.901 196.276 401.303 195.91 400.519 197.653Z" fill="#BABABA" stroke="#263238" stroke-linecap="round" stroke-linejoin="round"/>
<path d="M404.437 209.056C404.437 209.056 411.716 207.917 413.249 207.917C414.781 207.917 417.167 209.653 417.167 209.653" stroke="#263238" stroke-miterlimit="10"/>
<path d="M404.636 214.659C404.636 214.659 411.681 212.15 413.84 211.763C415.998 211.376 416.775 214.476 416.775 214.476" stroke="#263238" stroke-miterlimit="10"/>
<path d="M406.004 204.613L403.262 205.576" stroke="#263238" stroke-miterlimit="10"/>
<path d="M471.782 64.7385C471.788 60.9187 470.31 57.2421 467.651 54.4658C464.993 51.6896 461.357 50.025 457.492 49.8149C458.127 47.2311 458.051 44.5268 457.272 41.9818C456.492 39.4368 455.038 37.1435 453.06 35.339C451.082 33.5345 448.651 32.2843 446.019 31.7179C443.387 31.1514 440.649 31.2892 438.089 32.1169C437.436 29.1223 435.867 26.3977 433.594 24.3115C431.321 22.2254 428.454 20.8781 425.381 20.452C422.307 20.0258 419.175 20.5413 416.408 21.9287C413.641 23.3161 411.372 25.5085 409.908 28.2096C408.253 25.7253 405.884 23.7855 403.104 22.6389C400.325 21.4923 397.261 21.1913 394.307 21.7744C391.353 22.3575 388.643 23.7981 386.524 25.9115C384.405 28.025 382.974 30.7149 382.414 33.6364C379.028 34.8974 376.209 37.3122 374.468 40.4446C372.728 43.577 372.179 47.2206 372.922 50.7171C369.876 52.9362 367.783 56.2026 367.059 59.8707C366.335 63.5388 367.032 67.3416 369.011 70.5272C370.991 73.7128 374.11 76.0495 377.751 77.0752C381.392 78.1009 385.291 77.7411 388.676 76.0668C388.833 78.2876 389.492 80.4455 390.604 82.3824C391.716 84.3194 393.252 85.9863 395.102 87.2611C396.951 88.5359 399.066 89.3862 401.291 89.7498C403.516 90.1134 405.796 89.981 407.963 89.3624C408.533 92.378 410.031 95.147 412.253 97.2923C414.474 99.4377 417.312 100.855 420.379 101.352C423.446 101.849 426.594 101.401 429.394 100.068C432.194 98.7363 434.51 96.585 436.027 93.9073C438.33 94.8768 440.842 95.2666 443.336 95.0415C445.83 94.8164 448.228 93.9835 450.315 92.6176C452.402 91.2518 454.113 89.3958 455.294 87.2162C456.475 85.0366 457.088 82.6017 457.08 80.1301C457.08 79.9809 457.08 79.8317 457.08 79.6824C461.021 79.5745 464.763 77.952 467.51 75.1605C470.256 72.369 471.789 68.6293 471.782 64.7385Z" fill="#263238" stroke="#263238" stroke-linecap="round" stroke-linejoin="round"/>
<path d="M398.787 97.6585C402.974 97.6585 406.368 95.1712 406.368 92.1029C406.368 89.0346 402.974 86.5472 398.787 86.5472C394.6 86.5472 391.206 89.0346 391.206 92.1029C391.206 95.1712 394.6 97.6585 398.787 97.6585Z" fill="#263238" stroke="#263238" stroke-linecap="round" stroke-linejoin="round"/>
<path d="M398.691 105.27C398.691 107.413 396.319 109.143 393.405 109.143C390.491 109.143 388.119 107.413 388.119 105.27C388.119 103.126 390.484 101.396 393.405 101.396C396.326 101.396 398.691 103.133 398.691 105.27Z" fill="#263238" stroke="#263238" stroke-linecap="round" stroke-linejoin="round"/>
<path d="M469.803 60.3496C469.809 56.5309 468.331 52.8552 465.674 50.0792C463.017 47.3031 459.383 45.6377 455.52 45.426C456.154 42.8422 456.078 40.1379 455.299 37.5929C454.52 35.0479 453.066 32.7546 451.087 30.9501C449.109 29.1456 446.678 27.8954 444.046 27.329C441.414 26.7625 438.676 26.9002 436.116 27.728C435.46 24.7359 433.889 22.0144 431.616 19.9309C429.344 17.8473 426.478 16.5017 423.406 16.0758C420.334 15.6499 417.204 16.1641 414.438 17.549C411.671 18.9339 409.402 21.1229 407.935 23.8207C406.28 21.3364 403.911 19.3965 401.131 18.25C398.352 17.1034 395.289 16.8024 392.334 17.3855C389.38 17.9685 386.67 19.4092 384.551 21.5226C382.432 23.6361 381.001 26.326 380.442 29.2475C377.051 30.5014 374.229 32.9142 372.489 36.0474C370.748 39.1806 370.204 42.8261 370.956 46.3214C367.899 48.5367 365.798 51.8049 365.067 55.4778C364.337 59.1508 365.033 62.9604 367.015 66.1513C368.998 69.3422 372.123 71.6814 375.771 72.7051C379.419 73.7287 383.323 73.3621 386.71 71.6779C386.979 75.4521 388.689 78.9849 391.497 81.5614C394.304 84.138 397.998 85.5661 401.832 85.5569C403.244 85.5559 404.648 85.3572 406.004 84.9667C406.573 87.9828 408.07 90.7525 410.291 92.8987C412.513 95.0449 415.35 96.4633 418.418 96.9608C421.485 97.4583 424.633 97.0107 427.434 95.679C430.234 94.3473 432.551 92.1961 434.068 89.5184C436.373 90.4726 438.881 90.85 441.37 90.6173C443.858 90.3845 446.25 89.5487 448.332 88.1842C450.415 86.8197 452.123 84.9686 453.306 82.7955C454.49 80.6224 455.111 78.1946 455.114 75.7277C455.114 75.5716 455.114 75.4292 455.114 75.2799C459.05 75.1687 462.787 73.5464 465.53 70.7582C468.273 67.97 469.806 64.2358 469.803 60.3496Z" fill="white" stroke="#263238" stroke-miterlimit="10"/>
<path d="M404.396 87.7072C404.396 90.7801 401 93.2697 396.835 93.2697C392.67 93.2697 389.274 90.7801 389.274 87.7072C389.274 84.6343 392.67 82.1516 396.835 82.1516C401 82.1516 404.396 84.6411 404.396 87.7072Z" fill="white" stroke="#263238" stroke-miterlimit="10"/>
<path d="M396.711 100.881C396.711 103.018 394.347 104.754 391.426 104.754C388.504 104.754 386.14 103.018 386.14 100.881C386.14 98.744 388.511 97.0074 391.426 97.0074C394.34 97.0074 396.711 98.744 396.711 100.881Z" fill="white" stroke="#263238" stroke-miterlimit="10"/>
<path d="M407.379 56.7001C407.379 56.1889 407.225 55.6892 406.937 55.2642C406.65 54.8392 406.241 54.5079 405.762 54.3123C405.284 54.1167 404.757 54.0655 404.249 54.1653C403.741 54.265 403.274 54.5111 402.908 54.8726C402.542 55.234 402.292 55.6945 402.191 56.1959C402.09 56.6972 402.142 57.2169 402.34 57.6891C402.539 58.1614 402.874 58.565 403.305 58.849C403.736 59.133 404.242 59.2846 404.76 59.2846C405.454 59.2828 406.119 59.0099 406.61 58.5256C407.1 58.0413 407.377 57.385 407.379 56.7001V56.7001Z" fill="#263238"/>
<path d="M419.964 56.7001C419.964 56.1889 419.81 55.6892 419.523 55.2642C419.235 54.8392 418.826 54.5079 418.347 54.3123C417.869 54.1167 417.342 54.0655 416.834 54.1653C416.326 54.265 415.86 54.5111 415.493 54.8726C415.127 55.234 414.878 55.6945 414.777 56.1959C414.676 56.6972 414.727 57.2169 414.926 57.6891C415.124 58.1614 415.46 58.565 415.89 58.849C416.321 59.133 416.827 59.2846 417.345 59.2846C418.04 59.2846 418.706 59.0123 419.197 58.5276C419.688 58.0429 419.964 57.3855 419.964 56.7001V56.7001Z" fill="#263238"/>
<path d="M432.515 56.7001C432.515 56.1889 432.361 55.6892 432.073 55.2642C431.786 54.8392 431.377 54.5079 430.898 54.3123C430.42 54.1167 429.893 54.0655 429.385 54.1653C428.877 54.265 428.41 54.5111 428.044 54.8726C427.678 55.234 427.428 55.6945 427.327 56.1959C427.226 56.6972 427.278 57.2169 427.476 57.6891C427.675 58.1614 428.01 58.565 428.441 58.849C428.872 59.133 429.378 59.2846 429.896 59.2846C430.59 59.2828 431.255 59.0099 431.746 58.5256C432.236 58.0413 432.513 57.385 432.515 56.7001V56.7001Z" fill="#263238"/>
<path d="M287.053 136.582C287.053 136.582 282.929 119.766 264.728 119.379C246.528 118.993 236.919 136.012 235.757 139.479C234.596 142.945 211.274 152.815 213.625 163.831C215.976 174.847 225.571 167.501 225.997 171.971C226.423 176.442 217.749 186.847 222.863 195.93C227.976 205.013 233.049 210.813 245.579 205.02C258.109 199.227 263.601 192.647 267.712 196.127C271.822 199.607 274.172 204.824 289.06 200.57C303.948 196.317 298.456 184.527 297.088 176.991C295.721 169.455 308.835 163.655 304.725 152.252C300.614 140.849 291.748 134.262 287.053 136.582Z" fill="#263238" stroke="#263238" stroke-miterlimit="10"/>
<path d="M254.35 196.683L256.893 206.35C256.893 206.35 243.772 213.5 235.152 216.979C230.319 218.995 225.255 220.424 220.072 221.233L210.284 260.658H325.235C325.235 260.658 309.378 224.516 308.203 221.619C307.027 218.723 306.436 217.176 306.436 217.176C306.436 217.176 288.421 213.106 283.135 210.393C277.85 207.679 276.867 206.146 276.867 206.146L276.31 183.157L254.35 196.683Z" fill="#F2D7B6" stroke="#263238" stroke-linecap="round" stroke-linejoin="round"/>
<path d="M284.118 210.868C283.754 210.712 283.431 210.556 283.135 210.406C277.85 207.693 276.867 206.16 276.867 206.16L276.31 183.157L254.377 196.683L256.92 206.35C256.92 206.35 253.642 208.134 249.291 210.352L244.974 233.796L276.702 235.152L284.118 210.868Z" fill="white" stroke="#263238" stroke-miterlimit="10"/>
<path d="M272.557 189.73L275.293 183.761L254.35 196.683L256.893 206.35L258.652 213.696L272.557 189.73Z" fill="#263238" stroke="#263238" stroke-miterlimit="10"/>
<path d="M223.406 260.658L228.891 233.986" stroke="#263238" stroke-miterlimit="10"/>
<path d="M292.731 260.855L299.391 229.732" stroke="#263238" stroke-miterlimit="10"/>
<path d="M252.549 151.818C250.894 153.741 249.053 155.499 247.05 157.068C244.212 159.164 237.647 159.863 237.647 159.863C237.647 159.863 238.534 175.465 240.307 182.967C242.081 190.47 249.889 198.895 251.662 199.777C253.436 200.659 268.337 194.004 272.413 191.202C276.489 188.401 278.798 181.224 278.798 181.224C281.08 180.415 283.142 179.099 284.826 177.378C287.844 174.4 286.957 166.877 286.957 166.877C286.957 166.877 282.874 171.076 280.929 171.422C278.984 171.768 276.489 166.171 276.489 166.171C276.489 166.171 268.509 165.649 266.564 161.796C264.619 157.943 268.866 150.943 265.141 146.194C261.416 141.446 252.549 151.818 252.549 151.818Z" fill="white" stroke="#263238" stroke-miterlimit="10"/>
<path d="M246.342 165.12C246.861 166.894 247.217 168.71 247.408 170.547C247.586 173.002 244.926 182.628 244.926 182.628H251.49" stroke="#263238" stroke-miterlimit="10"/>
<path d="M247.944 187.166C250.58 188.095 253.46 188.095 256.096 187.166C260.357 185.592 263.725 178.416 263.725 178.416" stroke="#263238" stroke-miterlimit="10"/>
<path d="M251.504 187.892C251.504 187.892 252.191 194.167 255.745 192.247C259.299 190.327 259.814 184.371 259.814 184.371C257.625 186.583 254.637 187.849 251.504 187.892V187.892Z" fill="#263238" stroke="#263238" stroke-miterlimit="10"/>
<path d="M257.498 171.7C258.2 171.7 258.769 170.683 258.769 169.428C258.769 168.173 258.2 167.155 257.498 167.155C256.795 167.155 256.226 168.173 256.226 169.428C256.226 170.683 256.795 171.7 257.498 171.7Z" fill="#263238" stroke="#263238" stroke-miterlimit="10"/>
<path d="M244.692 167.894C244.692 169.149 244.177 170.167 243.545 170.167C242.912 170.167 242.39 169.149 242.39 167.894C242.39 166.64 242.905 165.615 243.545 165.615C244.184 165.615 244.692 166.612 244.692 167.894Z" fill="#263238" stroke="#263238" stroke-miterlimit="10"/>
<path d="M253.429 162.603C253.429 162.603 258.769 157.814 262.893 164.523" stroke="#263238" stroke-miterlimit="10"/>
<path d="M245.792 162.726C245.792 162.726 240.576 159.849 239.483 164.761" stroke="#263238" stroke-miterlimit="10"/>
<path d="M298.573 36.7975H224.341C223.326 36.7993 222.322 36.9982 221.385 37.3831C220.449 37.7679 219.598 38.331 218.882 39.0403C218.166 39.7495 217.598 40.5911 217.211 41.5168C216.825 42.4425 216.627 43.4344 216.629 44.4356V88.0871C216.629 89.0884 216.829 90.0799 217.217 91.005C217.605 91.93 218.174 92.7705 218.891 93.4785C219.609 94.1866 220.461 94.7482 221.398 95.1313C222.335 95.5145 223.34 95.7117 224.354 95.7117H263.093L272.825 114.217L274.592 95.7117H298.573C299.588 95.7117 300.592 95.5145 301.53 95.1313C302.467 94.7482 303.319 94.1866 304.036 93.4785C304.753 92.7705 305.323 91.93 305.711 91.005C306.099 90.0799 306.299 89.0884 306.299 88.0871V44.4356C306.301 43.4332 306.102 42.4403 305.715 41.5137C305.327 40.5871 304.758 39.7449 304.041 39.0355C303.323 38.326 302.471 37.7632 301.533 37.3792C300.595 36.9952 299.589 36.7975 298.573 36.7975V36.7975Z" fill="#263238" stroke="#263238" stroke-linecap="round" stroke-linejoin="round"/>
<path d="M295.989 33.2225H221.756C219.707 33.2225 217.742 34.0258 216.293 35.4557C214.844 36.8856 214.031 38.825 214.031 40.8471V84.4986C214.031 86.5208 214.844 88.4601 216.293 89.89C217.742 91.3199 219.707 92.1232 221.756 92.1232H260.501L270.241 110.628L272.008 92.1232H295.989C298.038 92.1232 300.003 91.3199 301.452 89.89C302.9 88.4601 303.714 86.5208 303.714 84.4986V40.8471C303.714 38.825 302.9 36.8856 301.452 35.4557C300.003 34.0258 298.038 33.2225 295.989 33.2225V33.2225Z" fill="white" stroke="#263238" stroke-miterlimit="10"/>
<path d="M248.707 63.938C248.708 63.4265 248.556 62.9261 248.269 62.5002C247.982 62.0743 247.573 61.742 247.095 61.5454C246.617 61.3487 246.09 61.2966 245.581 61.3955C245.073 61.4945 244.606 61.7401 244.239 62.1013C243.872 62.4624 243.622 62.9229 243.52 63.4245C243.418 63.926 243.47 64.446 243.668 64.9186C243.866 65.3913 244.202 65.7953 244.632 66.0796C245.063 66.3639 245.57 66.5157 246.088 66.5157C246.781 66.5157 247.446 66.2443 247.937 65.7611C248.428 65.2779 248.705 64.6222 248.707 63.938V63.938Z" fill="#263238"/>
<path d="M261.278 63.938C261.279 63.4265 261.127 62.9261 260.84 62.5002C260.553 62.0743 260.145 61.742 259.666 61.5454C259.188 61.3487 258.661 61.2966 258.153 61.3955C257.644 61.4945 257.177 61.7401 256.81 62.1013C256.443 62.4624 256.193 62.9229 256.091 63.4245C255.99 63.926 256.041 64.446 256.239 64.9186C256.437 65.3913 256.773 65.7953 257.204 66.0796C257.634 66.3639 258.141 66.5157 258.659 66.5157C259.353 66.5157 260.018 66.2443 260.509 65.7611C261 65.2779 261.276 64.6222 261.278 63.938V63.938Z" fill="#263238"/>
<path d="M273.842 63.938C273.844 63.4265 273.691 62.9261 273.404 62.5002C273.118 62.0743 272.709 61.742 272.231 61.5454C271.752 61.3487 271.226 61.2966 270.717 61.3955C270.209 61.4945 269.741 61.7401 269.374 62.1013C269.008 62.4624 268.757 62.9229 268.656 63.4245C268.554 63.926 268.606 64.446 268.804 64.9186C269.002 65.3913 269.337 65.7953 269.768 66.0796C270.199 66.3639 270.706 66.5157 271.224 66.5157C271.917 66.5157 272.582 66.2443 273.073 65.7611C273.564 65.2779 273.841 64.6222 273.842 63.938V63.938Z" fill="#263238"/>
<path d="M96.5229 207.998C96.5229 207.998 61.0562 229.522 61.0562 231.659C61.0562 233.796 53.7842 260.828 53.7842 260.828H189.272C189.272 260.828 173.464 225.472 170.474 223.193C167.484 220.914 131.632 203.596 128.622 202.368C125.611 201.14 96.5229 207.998 96.5229 207.998Z" fill="#F2D7B6" stroke="#263238" stroke-linecap="round" stroke-linejoin="round"/>
<path d="M70.6309 260.678L67.9709 241.251" stroke="#263238" stroke-miterlimit="10"/>
<path d="M178.275 260.678L169.766 230.573" stroke="#263238" stroke-miterlimit="10"/>
<path d="M122.236 229.875C122.236 229.875 125.604 248.604 126.14 249.649C126.677 250.693 131.969 249.296 131.969 249.296L130.196 237.764" stroke="#263238" stroke-miterlimit="10"/>
<path d="M96.7017 196.622C96.7017 196.622 92.0897 200.645 91.3817 206.594C90.6738 212.543 94.2204 232.147 97.4097 231.625C100.599 231.103 105.39 223.749 108.228 222.874C111.067 221.999 126.491 219.021 128.264 218.323C130.038 217.624 135.894 219.198 137.667 220.425C139.44 221.653 142.272 222.874 142.63 220.948C142.987 219.021 139.612 205.346 135.536 197.321C131.46 189.296 122.766 188.747 115.322 189.798C107.878 190.85 96.7017 196.622 96.7017 196.622Z" fill="white" stroke="#263238" stroke-miterlimit="10"/>
<path d="M91.2029 185.07C91.2029 185.07 100.778 212.021 104.682 215.697C108.586 219.374 117.803 230.75 122.236 229.875C126.67 229 129.151 212.197 128.8 205.719C128.45 199.241 123.831 176.842 123.831 176.842C123.831 176.842 122.594 180.871 113.727 185.246C104.86 189.622 91.2029 185.07 91.2029 185.07Z" fill="white" stroke="#263238" stroke-miterlimit="10"/>
<path d="M113.191 193.468C116.706 188.884 119.828 184.02 122.525 178.924C121.205 180.505 118.635 182.818 113.727 185.246C104.86 189.622 91.2029 185.07 91.2029 185.07C91.2029 185.07 94.8801 195.422 98.6055 204.172C102.297 202.694 108.661 199.465 113.191 193.468Z" fill="#263238" stroke="#263238" stroke-miterlimit="10"/>
<path d="M82.6869 168.62C82.6869 168.62 78.0817 168.966 78.9684 173.165C79.855 177.364 85.3469 182.269 87.1202 182.445C88.8935 182.621 88.8935 181.217 88.8935 181.217L82.6869 168.62Z" fill="white" stroke="#263238" stroke-miterlimit="10"/>
<path d="M120.855 160.65C120.855 160.65 124.766 158.208 126.601 162.095C128.436 165.981 127.006 173.158 125.694 174.345C124.381 175.533 123.528 174.413 123.528 174.413L120.855 160.65Z" fill="white" stroke="#263238" stroke-miterlimit="10"/>
<path d="M80.0268 146.567C80.0268 146.567 75.9508 156.017 77.0162 158.642C78.0816 161.267 82.6868 168.62 82.6868 168.62C82.6868 168.62 88.1855 184.371 91.7321 187.343C95.2788 190.314 102.73 194.696 109.644 193.644C116.559 192.593 124.896 186.997 125.075 178.592C125.254 170.187 111.775 136.941 111.775 136.941C109.289 135.588 106.436 135.037 103.616 135.368C98.8048 135.89 87.2988 134.689 83.9308 137.118C80.5629 139.546 79.6762 142.714 80.0268 146.567Z" fill="white" stroke="#263238" stroke-miterlimit="10"/>
<path d="M78.4323 143.942C78.4323 143.942 73.6209 151.288 74.1777 154.965C74.7344 158.642 82.6869 168.62 82.6869 168.62C82.6869 168.62 78.7897 159.34 79.8551 155.84C80.9204 152.34 82.6869 150.766 82.3364 147.619C81.9858 144.471 80.563 144.464 81.271 142.714C81.9789 140.964 80.5837 138.692 86.9484 140.265C93.3132 141.839 99.891 143.243 105.211 141.317C110.531 139.39 117.446 133.787 116.738 127.838C116.03 121.889 110.352 122.764 106.984 125.037C103.616 127.309 104.324 130.816 101.314 128.367C98.3032 125.918 98.4751 121.014 93.1551 122.764C87.8351 124.514 76.4802 130.816 78.4323 143.942Z" fill="#263238" stroke="#263238" stroke-miterlimit="10"/>
<path d="M111.775 136.942C111.775 136.942 117.961 154.619 119.219 157.068C120.038 158.753 120.691 160.511 121.171 162.318C121.171 162.318 123.652 154.443 122.058 149.192C120.463 143.942 111.775 136.942 111.775 136.942Z" fill="#263238" stroke="#263238" stroke-miterlimit="10"/>
<path d="M103.747 147.686L102.2 151.119L104.503 156.892" stroke="#263238" stroke-miterlimit="10"/>
<path d="M107.871 161.62C107.871 161.62 105.389 165.12 102.372 165.995" stroke="#263238" stroke-miterlimit="10"/>
<path d="M93.863 168.966C93.863 168.966 97.939 173.165 100.427 172.819C102.915 172.473 110.531 170.716 112.112 168.267C113.693 165.819 113.885 162.162 113.885 162.162" stroke="#263238" stroke-miterlimit="10"/>
<path d="M100.427 172.819C100.427 172.819 105.926 177.717 107.871 177.194C109.816 176.672 110.352 170.194 110.352 170.194L100.427 172.819Z" fill="#263238" stroke="#263238" stroke-miterlimit="10"/>
<path d="M90.3164 159.693C90.3164 159.693 90.1377 155.84 94.7497 157.068" stroke="#263238" stroke-miterlimit="10"/>
<path d="M106.634 154.266C106.634 154.266 108.757 150.244 111.954 152.516" stroke="#263238" stroke-miterlimit="10"/>
<path d="M85.7041 153.039C85.7041 153.039 87.2987 147.266 94.3921 148.494" stroke="#263238" stroke-width="3" stroke-miterlimit="10" stroke-linecap="round"/>
<path d="M105.39 145.509C105.39 145.509 108.758 140.611 112.84 145.685" stroke="#263238" stroke-width="3" stroke-miterlimit="10" stroke-linecap="round"/>
<path d="M144.19 82.9046C140.45 82.8939 136.731 83.4428 133.158 84.5326L124.56 74.873C130.014 68.919 133.057 61.1923 133.11 53.1659C133.11 33.5957 114.827 17.7224 92.2752 17.7224C69.7237 17.7224 51.4336 33.5821 51.4336 53.1727C51.4336 72.7633 69.7168 88.623 92.2752 88.623C102.238 88.6982 111.931 85.4337 119.769 79.3636L127.735 86.7033C119.947 90.692 114.827 97.4415 114.827 105.093C114.827 114.855 123.171 123.144 134.76 126.122L130.086 139.282L141.88 127.194C142.643 127.234 143.406 127.268 144.19 127.268C160.384 127.268 173.519 117.331 173.519 105.08C173.519 92.8287 160.384 82.9046 144.19 82.9046Z" fill="#263238" stroke="#263238" stroke-miterlimit="10"/>
<path d="M141.2 80.449C137.472 80.4411 133.764 80.9899 130.203 82.077L121.597 72.4174C127.056 66.4658 130.103 58.7382 130.155 50.7104C130.155 31.1401 111.872 15.2668 89.3131 15.2668C66.7546 15.2668 48.4783 31.1401 48.4783 50.7104C48.4783 70.2806 66.7615 86.1607 89.3131 86.1607C99.2761 86.2391 108.971 82.9742 116.807 76.9013L124.78 84.2409C116.992 88.2296 111.871 94.9791 111.871 102.631C111.871 112.392 120.216 120.682 131.804 123.66L127.124 136.819L138.905 124.758C139.661 124.799 140.43 124.833 141.207 124.833C157.408 124.833 170.536 114.895 170.536 102.644C170.536 90.3935 157.401 80.449 141.2 80.449Z" fill="white" stroke="#263238" stroke-miterlimit="10"/>
<path d="M75.8961 54.1156C77.3424 54.1156 78.5149 52.9585 78.5149 51.5311C78.5149 50.1038 77.3424 48.9467 75.8961 48.9467C74.4498 48.9467 73.2773 50.1038 73.2773 51.5311C73.2773 52.9585 74.4498 54.1156 75.8961 54.1156Z" fill="#263238"/>
<path d="M88.4676 54.1156C89.9139 54.1156 91.0864 52.9585 91.0864 51.5311C91.0864 50.1038 89.9139 48.9467 88.4676 48.9467C87.0213 48.9467 85.8489 50.1038 85.8489 51.5311C85.8489 52.9585 87.0213 54.1156 88.4676 54.1156Z" fill="#263238"/>
<path d="M103.651 51.5312C103.651 51.02 103.497 50.5203 103.21 50.0953C102.922 49.6703 102.513 49.339 102.034 49.1434C101.556 48.9478 101.029 48.8966 100.521 48.9963C100.013 49.096 99.5466 49.3422 99.1804 49.7036C98.8141 50.0651 98.5647 50.5256 98.4636 51.0269C98.3626 51.5283 98.4145 52.0479 98.6127 52.5202C98.8109 52.9924 99.1465 53.3961 99.5772 53.6801C100.008 53.9641 100.514 54.1156 101.032 54.1156C101.727 54.1156 102.393 53.8434 102.884 53.3587C103.375 52.874 103.651 52.2166 103.651 51.5312V51.5312Z" fill="#263238"/>
<path d="M131.928 103.73C131.928 103.219 131.774 102.719 131.487 102.294C131.199 101.869 130.79 101.538 130.311 101.342C129.833 101.146 129.306 101.095 128.798 101.195C128.29 101.295 127.824 101.541 127.457 101.902C127.091 102.264 126.842 102.724 126.741 103.226C126.64 103.727 126.692 104.247 126.89 104.719C127.088 105.191 127.424 105.595 127.854 105.879C128.285 106.163 128.791 106.314 129.309 106.314C130.004 106.314 130.67 106.042 131.161 105.557C131.652 105.073 131.928 104.415 131.928 103.73V103.73Z" fill="#263238"/>
<path d="M144.499 103.73C144.499 103.219 144.346 102.719 144.058 102.294C143.77 101.869 143.361 101.538 142.883 101.342C142.404 101.146 141.878 101.095 141.37 101.195C140.862 101.295 140.395 101.541 140.029 101.902C139.663 102.264 139.413 102.724 139.312 103.226C139.211 103.727 139.263 104.247 139.461 104.719C139.66 105.191 139.995 105.595 140.426 105.879C140.856 106.163 141.363 106.314 141.881 106.314C142.575 106.312 143.24 106.04 143.73 105.555C144.221 105.071 144.498 104.415 144.499 103.73V103.73Z" fill="#263238"/>
<path d="M157.064 103.73C157.064 103.219 156.91 102.719 156.623 102.294C156.335 101.869 155.926 101.538 155.447 101.342C154.969 101.146 154.442 101.095 153.934 101.195C153.426 101.295 152.96 101.541 152.593 101.902C152.227 102.264 151.978 102.724 151.877 103.226C151.776 103.727 151.828 104.247 152.026 104.719C152.224 105.191 152.56 105.595 152.99 105.879C153.421 106.163 153.927 106.314 154.445 106.314C155.14 106.314 155.806 106.042 156.297 105.557C156.788 105.073 157.064 104.415 157.064 103.73V103.73Z" fill="#263238"/>
<path d="M26.9231 260.855H496.705" stroke="#263238" stroke-miterlimit="10"/>
</svg>
