<svg xmlns="http://www.w3.org/2000/svg" viewBox="0 0 681 320.01"><defs><style>.cls-1{fill:#03395b;}.cls-2{fill:#f2d7b6;}.cls-3{fill:#03538e;}.cls-4{fill:#02355b;}.cls-5{fill:#012340;}.cls-6{fill:#1ec1ad;}.cls-7{fill:#17a697;}.cls-8{fill:#8fcaf7;}.cls-9{fill:#90c8ee;}.cls-27,.cls-9{opacity:0.37;}.cls-10{fill:#03446b;}.cls-11{fill:#002547;}.cls-12{fill:#087cb5;}.cls-13{fill:#045999;}.cls-14{fill:#efbf8b;}.cls-15{fill:#a0daea;}.cls-16{fill:#127569;}.cls-17{fill:#47b;}.cls-18{fill:#35679e;}.cls-19{fill:#0c4c43;}.cls-20{fill:#0583e0;}.cls-21{fill:#023c66;}.cls-22{fill:#08668d;}.cls-23{fill:#0a5c75;}.cls-24{fill:#aed9f4;}.cls-25{fill:#f3f3f3;}.cls-26{fill:#def1f8;}.cls-27,.cls-28{fill:#b7b7b7;}.cls-29{fill:#1dbfac;}.cls-30{fill:#169384;}.cls-31{fill:#08332d;}.cls-32{fill:#05211c;}.cls-33{fill:#011321;}</style></defs><g id="Layer_2" data-name="Layer 2"><g id="Objects"><path class="cls-1" d="M54.31,176H626.69A54.31,54.31,0,0,1,681,230.32V320a0,0,0,0,1,0,0H0a0,0,0,0,1,0,0V230.32A54.31,54.31,0,0,1,54.31,176Z"/><path class="cls-2" d="M250.36,76.16a15.45,15.45,0,0,1,13.28,3.07c6.4,5.13,9.92,15.47,7.71,23.72a23,23,0,0,1-9.26,12.56Z"/><path class="cls-3" d="M30.59,260.73c-1.9,4.59-2.8,11.35-2.35,18.86s.3,11.57-1.95,19.08-6.16,21.05-6.16,21.05H88.3V240.54s-18.75-4.21-32.57,3A143.39,143.39,0,0,0,30.59,260.73Z"/><path class="cls-4" d="M55.73,243.54a143.39,143.39,0,0,0-25.14,17.19,28.58,28.58,0,0,0-1.47,5c.14.18,5.66,7.16,18.08,10.33s15.34,2.14,15.34,2.14l6.83-18.6,1.49,20a115.34,115.34,0,0,0,17.44,1.91V240.54S69.55,236.33,55.73,243.54Z"/><path class="cls-5" d="M110.18,12.93s12.68-6.08,21.3,5.79,2.07,27-7.67,28.62S110.18,12.93,110.18,12.93Z"/><path class="cls-6" d="M121.64,29.79c1.4,4.78,3.19,18.85,1.79,30.51s-10,27.82-14.94,31-13.22-1-13.22-1a45.47,45.47,0,0,0-1.62,5.58c-.6,2.89,2.5,6.78,7,12.9a56.86,56.86,0,0,1,7,13.13s-36.46-9-43-30.72c0,0,4.18-6.17,6.17-16.71,0,0-10-10.14-11.34-21.28S61.78,29,73.71,18.85,111.5,6.32,121.64,29.79Z"/><path class="cls-7" d="M77.11,85.7c3.52,4.16,14,8.11,16.8,9.09.57-2.26,1.36-4.43,1.36-4.43-4.79-1.68-14.59-7.48-17.09-12.09s-2-14.61-2-14.61-1.34,1.49-2.33,6.26S73.05,80.9,77.11,85.7Z"/><path class="cls-5" d="M70,77.85a23.49,23.49,0,0,0,3.84-6.26,35.22,35.22,0,0,0,2.33-7.93c-2.59.79-9.15-1.42-10.61-7.51-1.57-6.58-.44-10,2.14-12s6.57-2.15,9.35,2c2.38,3.58,1.68,6.49,3.14,7.09s6.55-4.4,7-13.35c0,0,7.56,5.17,14.32,0a11.16,11.16,0,0,0,4.38-12.14,10.44,10.44,0,0,0,8.64,5.57c6.27.4,7.16-3.58,7.16-3.58s2-8-5.77-13.74c0,0,.73-11.71-12.83-15.08C88.62-2.61,76.21,4.14,73.87,14.22c0,0-11.13-1.42-16,7.23-5.82,10.37-3.69,19.92-.61,31.42,2.42,9,6,17.63,7.89,20.88C67.78,78.35,70,77.85,70,77.85Z"/><path class="cls-8" d="M66.84,87c-1.59,3.13-10.07,6.18-15.71,9.81s-18.8,16.47-15,42.27,9.3,72.1,8.68,80.66-2.51,14-7.31,23.8-7.94,16.07-7.94,16.07,7.31,10,31.11,12.11l9.19-23.17L72,273.8s29.5,4.48,40.63.7c0,0,7-102.07,5.23-120-3.25-32.54-21.15-51.13-21.15-51.13s-9.13,1-15.76-2.67C69.28,94.24,66.84,87,66.84,87Z"/><path class="cls-9" d="M117.07,197.94,92.56,178.43,67.58,146,61.11,112l-19-5.83c-4.53,7-8.18,17.67-5.93,32.87.32,2.17.65,4.49,1,6.9,2.78,11.66,6.31,24.63,9.64,32.76a8.31,8.31,0,0,0,4.36,0l6.43,15L44.8,215.49a40.14,40.14,0,0,1,0,4.24c-.54,7.29-2,12.32-5.37,19.71,8.77,1.9,37.82-14.21,44.86-18.72a16.93,16.93,0,0,0,2.09,6c1.72,2.91.12,6.71,1.9,8.75s-16.69,34.09-16.69,34.09L72,273.8s29.5,4.48,40.63.7C112.59,274.5,115.46,232.73,117.07,197.94Z"/><path class="cls-5" d="M167.28,75.87a14.11,14.11,0,0,1,12.52,3.65c6.63,6.46,8.88,25-5.56,32.51,0,0-7.38-9.5-9.15-18.22S167.28,75.87,167.28,75.87Z"/><path class="cls-10" d="M169.59,269.06l6.95,50.66H65.86s3.3-28.07,17.2-51.35Z"/><path class="cls-11" d="M88.3,319.72s2.78-25.05,12-38.29h3.8s-9.22,12-12.52,38.29Z"/><path class="cls-11" d="M169.59,269.06l-86.53-.69c-1.65,2.76-3.14,5.58-4.5,8.42,0,.13.75,13.19,22.52,18.76s38.92,1,52.15-10.94c0,0,8.26,9.86,19.78,9.36Z"/><path class="cls-12" d="M92.84,162.56c-5.92,4.45-41.27,32.27-50.66,41.33s-12.12,19.82-8.54,24.94,7.69,5.63,16.22,2,42.28-23.27,42.28-23.27,2.12-3.2,3.32-16.86S92.84,162.56,92.84,162.56Z"/><path class="cls-13" d="M95.46,190.75a73.38,73.38,0,0,0,0-11.77c-5.78-1.1-13.52-2.56-19-3.56-6.29,5-13.38,10.71-19.64,15.87,1.93,6.67,7.82,18.65,12.29,20.27,3.11,1.13,12.78-.27,18.37-1.23l4.71-2.72S94.26,204.41,95.46,190.75Z"/><path class="cls-12" d="M161.56,155.07c-6.82-1-9.18-1.87-9.59-2.79s.17-9.58,1.82-12.26a18.24,18.24,0,0,0,8.94,1.47c4.75-.53,6.68-3.63,9.37-12.92S175,97,173.55,90.34s-19.22-18.91-38.23-11.11-22.11,35.9-19,44.58,10.75,14.47,10.75,17.15.41,7.91-2.69,9.44-11.78,3.41-11.78,3.41.62,6.59,22.73,8.75S161.56,155.07,161.56,155.07Z"/><path class="cls-2" d="M155.59,153.81s-8.15,5.62-22.44,4.07-13.29-5.9-13.29-5.9-9.67,1.51-13.41,2.53c-7.31,2-11.5,3.45-13.61,8.05-1.41,3.06-4,27.15-1.74,39.36L93.49,215s4,14.58,3.08,21.7-16.83,30.54-16.83,30.54-1,19.16,30,22.46,45.87-18.18,45.87-18.18c4.55,15.5,19.24,13,19.24,13-3.28-9.29-4.78-37.4-3.59-47.17s12.81-71.71,9.14-74.84c-7.12-6.09-18-7.78-24.77-8.75"/><path class="cls-14" d="M176,173l-51.26,10.25L90.63,198.52c.13,1.2.28,2.35.47,3.4l1.4,7.67c5.08-1.27,17.51-5,30.13-8,17.3-4.07,37.62-9.46,46.45-11.61L180,180c.24-2,.44-3.84.6-5.57Z"/><path class="cls-14" d="M145.28,236.38l-27.63-5.27-11.88-14.73-5.65-10.5C98,208.17,98.06,212,99,215.15a72.85,72.85,0,0,0,4.19,9.45l-6.47,8.21a22.52,22.52,0,0,1-.1,3.92A21.35,21.35,0,0,1,94.74,242a28.23,28.23,0,0,0,10.72,4.56c6.51,1.11,21.62,3.43,37.31,9.32s21.42,6.25,24,5.37c1.19-.39,2.84-2.07,4.3-3.81-.42-8.11-.42-15.82.1-20.06.07-.61.18-1.42.33-2.4l-.08-.48Z"/><path class="cls-15" d="M146.14,224.89c-4-.23-21.17-.91-23.69-1.3a5.15,5.15,0,0,1-4.51-3.36c-.76-1.83-1.75-4.81-4.66-6.8s-6.19-3.36-7.41-5.12-1.84-5.2-4.36-4.13-1.53,5.73-.61,7.8,3.67,5.88,3.9,6.72-.84,1.07-2.91.46-8.4-4.13-8.4-4.13l-.61-3.2A3.76,3.76,0,0,0,89.06,214a7.51,7.51,0,0,0,0,6.58c.76,1.53-.16,3.44,1.3,5.73s2.29,2.52,2.59,4a11,11,0,0,0,4.51,7.08c3.21,2.09,8.87,2.7,15.21,3.69s30.1,8.36,30.1,8.36,2-2.45,3.37-9A35,35,0,0,0,146.14,224.89Z"/><path class="cls-5" d="M173.82,91.94c-1.09,4.11-4.23,7.65-7.77,10.38s-4,4.5-4.91,8.31-3,6.27-4.9,6-1.09-4.08-2.46-6.74-3.82-6.48-9-4.57-4.44,12.26-1.27,15.67,5.5,3.41,7.27,2.59,2.73.55,2.32,2.73-1.07,8.95-6.25,12.76-18.12,2.31-20,1A53,53,0,0,1,116,130.89a28.66,28.66,0,0,1-7.48-18c-.49-8.77,1.1-19.28,4-22l17.81-20s4.84-8,18.61-7.09a21.29,21.29,0,0,1,18.27,12.13S177.91,84.91,173.82,91.94Z"/><ellipse class="cls-5" cx="116.04" cy="79.52" rx="19.3" ry="15.33" transform="translate(-21.23 110.27) rotate(-47.05)"/><path class="cls-15" d="M272.62,162.56c-7.82-1.23-14.41-1.32-22.26-2.65s-11.56-2.1-10.78-9.53,1.57-12.31,1.57-12.31l-25.22-1.37s-1.17,11.92-1.76,14.66-.78,2.74-6.64,3.71-18,3.37-18,3.37,1.61,6.6,33.66,12.47S272.62,162.56,272.62,162.56Z"/><path class="cls-7" d="M247.84,159.47s18.57,2.22,24.78,3.09,11.25,2.72,16.49,15.43c0,0-13.26,37.17-12.23,43,1.47,8.43-1.83,32.19-2.85,37.67s.85,18,4.62,36,5.52,25,5.52,25H151.85a271.38,271.38,0,0,1,23-35.15C188,267.78,197.6,253,199.14,248.25s-6.34-31.87-6.34-31.87-21.59,32.38-24.16,36-3.94,3.26-10.79,1.54-15.08-4.45-15.08-4.45-3.08-5.71-1.2-14,4.57-10.57,4.57-10.57,3.48.05,4.85.05,3.77-.17,5.83-5,16.45-40.78,20.39-49.17,6.56-13,14.93-14.36a100.14,100.14,0,0,1,15.39-1.37s4.52,6.91,17.67,8.28A41.68,41.68,0,0,0,247.84,159.47Z"/><path class="cls-16" d="M273.78,263.9h0L263.3,279.52c1.47,8.39,2.94,19.92-12.2,28.14s-72.33,12.06-72.33,12.06h105.4s-1.75-7-5.52-25C275.79,281,274,270.56,273.78,263.9Z"/><path class="cls-16" d="M279.32,208.23,268,212l-25.78-12.85s-25.57-31.86-25.86-32.3-11.55-4.26-11.55-4.26l-27.61,8.18,0,.06c-1.49,3.17-4.89,11.31-8.13,19.18a174.5,174.5,0,0,1,18.16-2.41c6.06-.44,12.94-5.55,12.94-5.55s21.77,33,30.37,41.79,14.34,16.37,22.52,16.8,14.08-9.8,20.9-15.48l3-3.27c0-.29-.08-.57-.12-.83-.33-1.85.78-6.84,2.44-12.79Z"/><path class="cls-16" d="M261.92,253.89l3.72,8.91,9.26,11.7h0c-1.1-7.33-1.46-12.7-.87-15.8.93-5,3.73-25,3.13-35l-.08-.48-7.53-15s-1.31,15.49-2.89,26.1C265.54,241.88,261.92,253.89,261.92,253.89Z"/><path class="cls-16" d="M257.24,263.91l-61.36-9.18c-2.28,3.87-5.59,8.9-9.67,14.64,5.58.82,28.9,4.29,46.78,7.41,20.45,3.56,28.77,6.28,35.05,4.68s5.16-4.78,6.86-7h0a97.43,97.43,0,0,1-1.12-10.6C269.88,264.3,257.24,263.91,257.24,263.91Z"/><path class="cls-15" d="M260.16,91.12c2.91,8.55,4.91,27.65,2.18,37.45S256.53,140,252.53,140s-17.81-2.3-17.81-2.3l-18.79-1s.43-4.32-2.84-6.68-16.72-18.36-7.64-38.9S237.08,69,247.08,76.58,260.16,91.12,260.16,91.12Z"/><path class="cls-8" d="M252.53,140a7.14,7.14,0,0,0,4.74-1.47c-3.06.19-6.92-1-12.18-5.83l-5.25,1.93-.22,3.84A127.27,127.27,0,0,0,252.53,140Z"/><path class="cls-2" d="M260.16,91.12c0-4.26-9.8-15-9.8-15a31.78,31.78,0,0,0-20.49-7.79c-12.74-.19-23.68,6.35-27.52,22.38-3.8,15.87-5.56,15-8.41,20.84-2.63,5.39-6.07,21.07,11.23,31,18.53,10.62,36.47,6.36,40.84,4.54s5.42-4.83,2.42-9.68a27.12,27.12,0,0,1-3.47-12c-.16-2.91.27-4.29-1.21-3.78-1.11.39-3.81.45-6.08-3.25-2.54-4.14-1.14-12.93,3-13.69s6.27,2.28,6.84,6.11-.57,5.3,1.53,5.68,4-1.14,7-5.68S260.48,97.65,260.16,91.12Z"/><path class="cls-17" d="M629.59,242.81c4.07,4.31,9.63,14.25,10.63,22a62.72,62.72,0,0,1-1.39,22.07,34.64,34.64,0,0,0,0,15.32c1.19,6,3.78,17.51,3.78,17.51H590.53l-9.62-67.86Z"/><path class="cls-18" d="M607.76,260c15.26-2.38,21.45-7.33,25.47-12.4a33.89,33.89,0,0,0-3.64-4.8l-48.68,9.05,1.23,8.7A100.42,100.42,0,0,0,607.76,260Z"/><path class="cls-16" d="M621.06,155c1.38,9.25.9,32.6-4,42.38s-4.62,14.06-1.61,19.3c4.16,7.27,16.87,26.11,16.87,26.11s-4.19,6.88-17.38,10.62-35.5,2.57-35.5,2.57a127.09,127.09,0,0,1-8.39-48.7c1-26.5,13.87-69.11,13.87-69.11s15.45-8.17,24.31-2.65S621.06,155,621.06,155Z"/><path class="cls-19" d="M621.3,177.58l-3.09-5.25-25-22.24-13.63,7.77c-.55,2.21.94,3.38.37,5.79,2.63,8.83,6.47,24.79,9.85,27.95,4.56,4.27,17,11.75,24.93,10.55.89-1.94,1.12-2.28,2.35-4.75C619.36,192.82,620.68,185.27,621.3,177.58Z"/><path class="cls-12" d="M600.51,109.81s2.2,10.61,2.55,12.9,1.51,5.22,3.77,5.71c0,0-1.85,7.23-8.49,9.77s-13.4,0-13.4,0a49.46,49.46,0,0,0-2.92-7.42c-1.47-2.64-5.35-4.1-5.35-4.1Z"/><path class="cls-13" d="M600.68,110.64c-.1-.52-.17-.83-.17-.83l-23.84,16.86s3.88,1.46,5.35,4.1c0,0,11.2-2.34,16-7.12C601.91,119.74,601.11,113,600.68,110.64Z"/><path class="cls-5" d="M583.1,60.3s-11.25-5.73-20.37,1.44-9,25.43-1.2,30.05c0,0,15.09-2.8,20.36-11.84S583.1,60.3,583.1,60.3Z"/><path class="cls-12" d="M571.89,69.57c-4.72,2-8.89,9.66-10.24,20.9-1,8.13,1,23.22,3.33,30.12s11.23,6.55,18.53,5.5,12.85-4.77,14.7-9.31a40.75,40.75,0,0,0,2.3-7s3.88,4,7.41,3.54,10.61-7.82,10.27-16-.84-23.54-13-27.75S571.89,69.57,571.89,69.57Z"/><path class="cls-13" d="M580.85,122.71l6,2.67a24,24,0,0,0,4.45-1.73s-9.18-13.45-12.09-16.39-17.64-8.58-17.77-8.63c0,.75.08,1.51.13,2.28l6.91,6.35Z"/><path class="cls-5" d="M571.89,69.57s.15,6.06,8.92,12.27,12.59,8.6,13.4,10-1,6.51.22,8,4.29-.13,5.83-4.15c1.49-3.84,6.32-5.79,8.9-3.84s3.56,5.09,1.45,11.21c-1.75,5.08-7.07,8.55-10.1,6.81,0,0-.14,8.45,2.55,12.9a50.52,50.52,0,0,1,7.42-7.6c5-4.27,10.39-9.4,12-23.69s-9.31-28.87-15-32.24-18.22-4.5-24.42,1.12Z"/><path class="cls-5" d="M606.83,58.8s2.57-7.58,9.18-11.9,21.72-5.26,28.47,0a35.64,35.64,0,0,1,13.08,22.8c1.49,9.53,3.24,14.18,10.66,19.84s16.46,15.9,10.38,31.42-24.82,15.78-28.46,15.24-4.72-3.1-2.16-6.61,5.94-9.94,1.62-14.48-7.55-6-13.62-9.8-10.25-8.21-10-15.77,2.56-17,.27-21.84-6.93-8.58-13.77-4.05C612.5,63.65,607.76,63.14,606.83,58.8Z"/><path class="cls-16" d="M606.83,128.42c5.85,0,13,1.89,15.36,14.83s3.51,26,3,33.67a44,44,0,0,1-3.52,14L598,177.09s-1.63-23.22-2.06-31.74S597.55,128.76,606.83,128.42Z"/><path class="cls-20" d="M586.17,262.12a94,94,0,0,1,5.32,29.51c0,8-1,28.09-1,28.09H501l-3.9-43.66s6.45-20.76,28-26.17S578,244.87,586.17,262.12Z"/><path class="cls-21" d="M586.17,262.12c-8.19-17.25-39.61-17.65-61.11-12.23s-28,26.17-28,26.17l.64,7.14a39.54,39.54,0,0,0,34.78,2.44l-.73-18.55,9,17.6c29.3-.18,41-10.54,47.14-17.09C587.32,265.33,586.69,263.44,586.17,262.12Z"/><path class="cls-19" d="M509.46,34a24.23,24.23,0,0,1-13.31,2.31c-3.83-.5-5.87-3.46-8.29-1.24-3,2.73-8.57,19.76,3,27.41C505.49,72.2,509.46,34,509.46,34Z"/><path class="cls-2" d="M492.23,53.56c-1.92,6.74-2,15.39,0,27.67s5.91,23.59,9.59,25.16c2.58,1.11,7.42,1.26,11.16.84s5-.76,5.71,5.45,24.46-.87,27.58-5.65c0,0-2.91-11.24-2.08-14.57s5-8.11,6.24-18.31-.21-28.5-14.15-34.74-30.43-1-36.82,3.74A18.27,18.27,0,0,0,492.23,53.56Z"/><path class="cls-19" d="M518.69,88.9c-.21,1.63,2.21,5.7,3.49,8.43s4,5.45,7.14,5.62,11.61,0,15.29-3.65c2-1.83,2-5.47,5-12s5.1-18,3.64-27S551.14,42,542.51,42.21c0,0-2.43-9.85-11.73-11.67s-16.5.89-23.16,4.38-14.2,8.85-14.31,15.59a7.57,7.57,0,0,0,5.37,4.65c3.1.69,1.72,2.63,1.88,4.69.27,3.58.82,5.84,3.46,7.81s3.6,2,3.6,6.1c0,5.48.18,6.75,1.82,7.12s3.47-1.1,5.47-6.39,5.84-5.88,8.94-2.48,2.2,12.89,0,15.47C521.16,90.6,519,86.53,518.69,88.9Z"/><path class="cls-22" d="M411.77,279c-1.5,6.64-3.63,34-3.91,40.69H512.19s-2.62-19.47-9.5-31.05c0,0-21.65-17.32-45.11-20.11S411.77,279,411.77,279Z"/><path class="cls-23" d="M411.77,279c-.69,3-1.51,10.46-2.22,18.24h0s3.59,1.05,8.25-3.32,4.67-6.6,5.76-6,2.89,5.68,9.32,12.21c4.9,5,25.85,16.33,48.64,11.95,16.65-3.21,22.77-11.44,24.86-15.64a52.36,52.36,0,0,0-3.69-7.83,115.65,115.65,0,0,0-17.16-10.85l-15.71,3-30.29-11.64A90.35,90.35,0,0,0,411.77,279Z"/><path class="cls-17" d="M405.3,274.84s3.8,22.52,5.15,44.88H285.72s4-35.5,6.52-52.45Z"/><path class="cls-18" d="M290.24,281.93s10.78,29.68,59.56,27.6,56.79-26.26,56.79-26.26l-1.29-8.43-113.06-7.57Z"/><path class="cls-24" d="M341.16,33.23c-8.63,0-24.74,5-24.74,28.9,0,0-1.83-3.16-4.16-1.83s-1.49,9,0,13.45S317,79.18,319,79c0,0,2.39,7.22,4.38,10.38s6.94,8,6.94,8l-.15,13.42h30.39V95.68c0-5,7.22-16.45,7.22-16.45s3.29,1.26,5.55-2.9c2.58-4.74,3.75-14.19,1.38-16-3.73-2.9-5.17,3.32-5.17,3.32S367.9,44.85,357.94,40.2,341.16,33.23,341.16,33.23Z"/><path class="cls-5" d="M316.35,64.76c-.54-4.82-2.51-14.36-1.61-23.19s4.64-15.27,7.33-15.86,2.84,2.24,5.84,2.84a8.2,8.2,0,0,1,1.35-7c2.54-3.44,4.65.77,9.58,3.3,6,3.08,8.75,1.63,13.1,4.32,5.14,3.18,5.29,6.94,5.29,6.94a7.7,7.7,0,0,1,6.38.86c4.46,2.54,7.95,11.27,6.51,27.41-1.28,14.33-4.81,25.8-9.53,31.34s-23.19,5.12-30.24,1.69c0,0-5.89-1.74-10.09-14.92A92,92,0,0,1,316.35,64.76Z"/><path class="cls-25" d="M318,116.38a56.43,56.43,0,0,1-17.9,6.35c-7.94,1.26-12.65,1.79-15.88,5.92,0,0,11.56,13,13.56,36.6,1.45,17-3.39,25.45-3.39,25.45s2.26,9.38,6.53,16.44-4.83,32.15-7.07,40.64-4.69,20.39-4.69,20.39c.8,3.22,16,32.66,57.48,32.66s59.21-25.1,60-28.49-4.2-22.78-7.24-38.85-5.18-29.75-2.59-41.54,7.15-27.77,8.22-41.71-1.52-26.88-3.48-28.49S397.05,120.41,390,119a68.5,68.5,0,0,1-14.74-4.44s-2.05-1.45-12.67-.38-18.4,3.84-27.87,1.61S320.77,114.81,318,116.38Z"/><path class="cls-26" d="M402.6,123.65a18.25,18.25,0,0,0-1.09-1.89A4.94,4.94,0,0,1,402.6,123.65Z"/><path class="cls-27" d="M399.37,233.49c-.54-2.87-1.05-5.66-1.51-8.37H314.35l-11.57-28.46c6.05-17.15,4.29-34.77,0-42.84l-6.73.62a79,79,0,0,1,1.68,10.82c1.45,17-3.39,25.45-3.39,25.45s2.26,9.38,6.53,16.44-4.83,32.15-7.07,40.64c-.82,3.12-1.47,5.84-1.93,8.18,3.13,2,12.33-1.75,12.33-1.75s59.25,21.84,65.59,20.2c5.29-1.37,25.28-23,31.77-30.14C400.79,240.65,400,237,399.37,233.49Z"/><path class="cls-13" d="M410.45,223.22,381.06,255s-6.92,7.76-9.23,9.57-2.8,4.13-14.84,1-62.45-20.38-62.45-20.38a9.62,9.62,0,0,1-1.06-9.7c2.48-5.38,5.66-6,5.66-6l58.18,12.87,4.44-5Z"/><path class="cls-15" d="M294.34,190.7s11.63,24.8,13.21,27.68,1.8,3.11,7.43,2.66,70.3-5.86,70.3-5.86l1.65,16.26s-82.25,17.49-88.88,19c-4.48,1-6.57-.46-9.5-5.27S269,207.3,269,207.3Z"/><path class="cls-7" d="M318.91,220.72h0L315,221c-5.63.45-5.85.23-7.43-2.66s-13.21-27.68-13.21-27.68L269,207.3s16.61,33,19.53,37.86,5,6.29,9.5,5.27c1.86-.42,9.65-2.09,19.9-4.29C322.38,238.27,320.25,225.49,318.91,220.72Z"/><path class="cls-24" d="M250.36,191.37s-34.25-30.83-40.08-37.56-8-11.69-13.1-13.72-4.8-.44-8,0-5.24-.15-7.86,1.89-4.08,1.75-6,3.35-4.51,6.47-4.08,8.48.73,9,10.63,10,14,3.2,14,3.2l37.2,51.36Z"/><path class="cls-7" d="M192.26,145c1.1,1.79,2.23,4.11.54,6s-7.22,7.86-7.22,7.86-5.37,2.65-4.51-.91S192.26,145,192.26,145Z"/><path class="cls-7" d="M210.88,155.07c1.56,5.58,1.64,13.14-.09,16.62s-6.44,7-6.44,7l-3-4.19Z"/><path class="cls-25" d="M284.17,128.65c-4.37,5-7.52,11.65-13.08,24s-20.73,38.76-20.73,38.76l-6.16-6s-12.61,14.42-12.31,31.54c0,0,10.36,13.07,14.27,16.23s8,3.6,13.67-1.81,34.51-40.62,34.51-40.62,7.84-4.59,9.65-20.81S295.9,126.93,284.17,128.65Z"/><path class="cls-28" d="M248.91,190c-2.61,2.33-13.63,18.09-11,34.32l1.25,1.48s-1.18,1-2.9-.85-7.73-8.15-8.73-10-.43-10.16,3.72-20,9.28-14.62,11.71-12.66a41.26,41.26,0,0,1,5.18,4.79c1.25,1.33,2.55,2.76,2.2,4.39Z"/><path class="cls-29" d="M423.35,185.2c-5.52-3-15.06-4.38-22.3.89a15.71,15.71,0,0,0-3.91,4.27c-9.3,13.64-35.38,46.93-35.38,46.93s1.41,11.86,19.3,17.69l29.39-31.76a173.93,173.93,0,0,1,3.56,20.1c1,9.65-4.82,50.18-4.82,50.18s4.42.06,8.44-4.76,4.61-7.64,5.72-7.64,2.29,7.47,13.18,15.31c8.65,6.23,33.26,14.68,48.71,9.78,17.7-5.61,17.76-13.8,18.76-17.62a80.72,80.72,0,0,0-8.19-11.49c-5-6-6-8.77-6-9.81s2-5.66,1.21-7.47-5-5.63-4.1-8.44,7.91-25.12,9.92-38,0-29.34,0-29.34Z"/><path class="cls-30" d="M404.87,184.34c5.83-1.65,19.13,3.41,22.39,6.6s4.74,17.6,21,23.48,42.69,2,42.69,2l-14.46-34.63-49.69-7.38Z"/><path class="cls-30" d="M493.3,229.26c1.47-5.62,2.8-11.34,3.51-15.89a88,88,0,0,0,.89-13.94c-6.74,1.34-66.29,13.16-66.7,12.74s-23.14-13.09-23.14-13.09l-15.28-2.28c-7,9.63-17.13,22.85-23.85,31.53a87.6,87.6,0,0,0,11.64,5.74,39.24,39.24,0,0,0,17.84,2.38l12.24-13.23s1.17,4.77,2.24,10.84c6.11,0,23.91-.25,42.38-1.35C474.69,231.54,489.52,229.75,493.3,229.26Z"/><path class="cls-13" d="M518.69,112.68c6-2.19,24-7.26,33.47-6.12s22.69,6.08,28,11.78,4.94,25,4.94,31.56-3,21.62-5.38,28.43-3,22-2.6,34.44,8.11,42.45,9.63,46S581,268,570,272.35c-13.73,5.38-34.8,6.83-34.8,6.83l-7-19.39-1.4,20a51.39,51.39,0,0,1-17.36.51c-9.25-1.4-12.8-4.31-13.56-5.45s-3.2-33.59-1.16-51.65c0,0,15.48-10.07,17.89-22.24S518.69,112.68,518.69,112.68Z"/><path class="cls-13" d="M535.76,119c4.22,3.54,10.49,8.76,10.48,20.3,0,9.11-4.77,27.54-4.77,27.54l-9-2.53Z"/><path class="cls-13" d="M579.73,178.33c2.35-6.81,5.38-21.84,5.38-28.43,0-5.69.28-20.84-3.07-28.54l-4.26-5.15c-6.23-4.77-17.32-8.66-25.62-9.65a42.86,42.86,0,0,0-10.67.46c1.62.57,6.09,4.26,7.41,7s5.53,5,10.8,3.82,4.74.63,7.63,8.81,6.85,21.88,6.85,21.88l-13.56,5.26S530.54,169.1,515,176.94c-.42,5.86-.85,11.17-1.26,15.43,10.09-2.31,24.21-5.4,28.22-5.65,6.45-.39,17.25,1.06,22.65,2,3,.52,9.11-2.1,13.81-4.49A36.17,36.17,0,0,1,579.73,178.33Z"/><path class="cls-13" d="M537,187.44V169l-21.64,2.83c-.92,13.44-1.88,25-2.7,29.13-2.41,12.17-17.89,22.24-17.89,22.24-.2,1.84-.36,3.83-.49,5.92,4.84,0,13.45,0,17.91-.67,6.39-.93,10.14-2.81,13.88-14.32S533.64,188.06,537,187.44Z"/><path class="cls-2" d="M491,192.9l-64.65,9.83c-4.09.57-10.67-2-15.85-4.52s-5.93-3.3-12.29-3.34-12.25-2.61-13.46-.65,2.07,5.9,6.51,7,7.26,1.63,7.26,1.63h-9.83c-4.76,0-7,.68-8.43,2.25s-1.15,4.48-2.44,5.3-3,2.24-3,4.34-3.46,3.67-3.53,5.57-.65,2.39.56,4.08,10.58,6.45,18.59,7,15.36-1.27,20.05-2.46c3.55-.9,5.49-1.6,13.43-1.94,6.07-.26,39.49-1.83,39.49-1.83Z"/><path class="cls-8" d="M528.52,113.77c-6.73-3.47-19.21-1.59-23.24,13.79S491,192.9,491,192.9l-27.58,4.2s3.84,16.48,0,28c0,0,33.09-1.75,39.51-1.89s14.11-1.05,18.51-12.39,17.24-56.19,19.42-63.14S546.09,122.8,528.52,113.77Z"/><path class="cls-31" d="M445.38,87.11c-10.53,2.75-20.21,11.37-22.79,25.18S421,132.26,426,144s10.69,19.49,8.55,31.82,1.83,19.32,10.86,28.08c12.86,12.49,45.14,15.53,61.28,0,15-14.47,2.8-35.19,2.8-35.19s11.18-10.19,8.59-21.33-6.76-13.73-16.31-18.8-14.75-16.08-17.53-23S469.76,80.75,445.38,87.11Z"/><path class="cls-32" d="M434.52,175.81c-1.44,8.28-.11,14.14,3.64,19.75,6.9,2.85,20.45,7.76,23.58,8.33s23.16-4.31,25.15-4.17,4.4,1.16,9.77,0,7.34-4.19,7.34-4.19l9.27-2.67c1.89-7,.37-13.87-1.28-18.52H434.72C434.66,174.85,434.61,175.32,434.52,175.81Z"/><path class="cls-24" d="M493.59,163.19s46.57-5.77,50.91-6.59,7.2-4.07,12.09-7.2,9.11-4.48,12.5-3.94,8.7.82,10.33,1,.81,3.26-1.9,4.07-8,1.63-7.61,2.17,9.51.55,11-.4,2.31-1.36,3.13-3.13,2.85-1.36,3.94.14a6.26,6.26,0,0,1,.67,6.79c-1.49,2.58-3,3.84-3.12,5s.41,4.33.54,6.24-2.58,4.34-3.12,5.7-.68,3.53-3.94,5.84a29.54,29.54,0,0,1-11.76,4.53c-3,.28-15-1.52-20.35-1.66s-13,1.77-26.14,4.25c-10.16,1.93-28.53,6.68-28.53,6.68Z"/><path class="cls-25" d="M401.52,121.75s3.58-.91,8.27,2.11,60.35,39.48,61.41,40.08,22.39-.75,22.39-.75,3.33,17.09-1.36,29.49c0,0-23,3.94-26.47,5s-5.9.61-12.71-2-28.74-10.89-35.39-12S402,182.58,397,190.81c0,0-2.55-10.93.43-28.25C400.62,144.2,401.52,121.75,401.52,121.75Z"/><path class="cls-27" d="M493.5,188.4a33.74,33.74,0,0,1-1.28,4.29s-23,3.93-26.47,5-5.9.6-12.7-2-28.74-10.89-35.4-12-15.66-1.18-20.61,7c2.62-11.66,6.92-27.06,8-40.54.88-11.45-.71-22.23-2.4-26.6a58.36,58.36,0,0,1,5.61,18.52c2,13.5,1.52,18.94,1.3,23.51s5.45,9.09,19.16,14.15,31.52,12,34.7,12.86C466.31,193.48,490.05,189.05,493.5,188.4Z"/><path class="cls-28" d="M486.89,163.58c0-1.79,2.38-2,6.13-2.24s5.58-.72,7,1.12,3,9.35,2.91,16.87c0,5.59-1.32,12.74-3.37,13.66a23,23,0,0,1-6.37,1.48c-2.39.34-5.79,1-6.25-.86l1.58-.28a46.6,46.6,0,0,0,2.51-14,60.11,60.11,0,0,0-1.82-15.87Z"/><path class="cls-12" d="M563.6,113.77c-1.3.13-5.81,2-9.92.77S545,106.45,541.49,107l-11.59,2.33a18.54,18.54,0,0,1,4.91-4.51c2.91-1.73,11.67-4.25,14.8-5.1,4.13-1.12,9.28-2.12,12.25-1,6.75,2.61,15.61,7.89,17,9.62s31.69,44.62,36.26,50.77,9.46,14,8,24.75-4.73,13.46-8.2,14.3-15.76-6.26-19.7-11.78-26.17-63.69-27.44-66.69S565.05,113.62,563.6,113.77Z"/><path class="cls-12" d="M275,252.55l-.66,4.41a21.37,21.37,0,0,1-6,.78c-2.17-.26-3.08-.9-2.53-1.6s4-2.48,5.79-4c3.82-3.27,3.8-8,1.19-7-1.51.56-2.78,1.63-4.72,2-2.14.4-4.06,1-7.57,1.67a18.18,18.18,0,0,0-7.59,3.45,5.62,5.62,0,0,1-4.41,1.54l-24.6-8.39h0c-10.19-3.47-19.7-6.71-21.42-7.31-3.83-1.33-4.79-2.57-5.34-5.25-1.12-5.4-4.31-16.48-4.31-16.48l-18.18,27.18a61.82,61.82,0,0,0,2.5,9.39c2,6,4.66,8.33,9.33,8.83,2.47.26,17.09,3,31.19,5.82h0s24.86,5.34,31.19,7,12.42,2.67,16.27,2a11.23,11.23,0,0,0,7.07-4.8c.9-1.31,1.78-1.18,4.06-2.74s1-5.1,1.86-6.59c1.05-1.73,2.08-2.49,2-5.34S275,252.55,275,252.55Z"/><path class="cls-6" d="M83.08,136.31s11.61,28,12.61,30.18,3.13,1.94,16.9,1.46,42.95-1.7,46.84-2.92,5.11-3.65,7.06-7.05,3.64-6.08,11.91-8.76,13-5.84,13.86-4.24c.47.87,1.23,3.29-2,5.87s-8,6-7.3,6.76,19.11-3.13,21.73-5.32,1.64-3.47,1.64-3.47a3.31,3.31,0,0,1,3.51,1.54c1.29,2.1,1.51,9.25,1,12.52s-1.16,7.77-5.18,11.47-10.8,7.16-17,8.75c-5,1.28-12,.54-21,2.64s-41.28,9.57-58.65,13.49c-15.66,3.54-32.54,7.37-37.29,5.76s-10-11.8-16.74-30.8Z"/><path class="cls-13" d="M49.76,98.4c-6.19,2.67-15.07,11.43-8.51,38.3s11.67,38.79,11.67,38.79S78.21,179.86,92.56,157c-.24-1.45-7.54-21.88-14.1-37.2S63.87,92.32,49.76,98.4Z"/><path class="cls-27" d="M318,116.38s8.29,1.29,12.72,3.84,9.3,3.63,16.75,3.42a37.32,37.32,0,0,0,16.87-4.54c4.53-2.27,7.77-4.8,11-4.56,0,0-1.67-3-27.93-3S318,116.38,318,116.38Z"/><path class="cls-25" d="M345.61,107c-6.78.32-11.9-1.8-15.41-2.37s-7.46,1.41-12.25,11.72a33,33,0,0,1,10.16,1c5.36,1.41,10.74,3.21,18.49,2.8,9.46-.5,14.95-3.13,19.31-4.22a47.92,47.92,0,0,1,9.34-1.4s-7.68-13.77-14.66-11.29C355.45,105.08,351.53,106.75,345.61,107Z"/><path class="cls-4" d="M320.39,253.89l32.22-12.64L347,240h-.27l-41.34,8.84Z"/><path class="cls-13" d="M67.4,85.7s4.94,8.49,12.33,12.45a29.61,29.61,0,0,0,15.88,3.64l3.14,4s-9.35,2.27-20.2-3.39C68.36,97.11,64.76,89.15,64.76,89.15Z"/><path class="cls-16" d="M168.64,252.36c2.57-3.6,24.16-36,24.16-36a75.65,75.65,0,0,1-3.3-27.23,71.16,71.16,0,0,0-3.29,27.55s-17.08,28-21.57,31.43-21.87,1.32-21.87,1.32,8.22,2.74,15.08,4.45S166.07,256,168.64,252.36Z"/><polygon class="cls-13" points="194.96 224.15 176.54 250.74 174.62 243.56 192.81 216.38 194.96 224.15"/><path class="cls-33" d="M109.84,96.93s13.34,0,22-14.2c0,0-4,18-22.6,16.85C109.45,98.63,109.64,97.74,109.84,96.93Z"/><path class="cls-18" d="M613.8,262.7c1.52,7,3.8,17.25,5.16,18.57S639.23,285,639.23,285l.33-1.72S623,281,620.88,280.13C619.44,279.56,615.47,268.16,613.8,262.7Z"/><path class="cls-21" d="M521.23,319.72a296.48,296.48,0,0,1-2.79-41.07h-2.29s-2.07,13.59,2.24,41.07Z"/><path class="cls-11" d="M108.93,294.05s-3.21,11.82-3.21,15.58,8.34,9.11,10.26,8.9,16.48-3.21,18.4-5.35,4.06-23.1,4.06-23.1-4,20.3-5.3,21.58-14.38,5.07-16.74,4.86-8.76-5.37-8.76-7.12S108.93,294.05,108.93,294.05Z"/><path class="cls-11" d="M87.38,287.74c-3.17,7.05-5.87,16.56-6.92,18.09s-12.53,2.41-12.53,2.41l.51-2.21s7.36-.67,9.22-1S80,303.07,81,300.58,87.38,287.74,87.38,287.74Z"/><polygon class="cls-4" points="35.46 319.72 48.07 271.31 49.93 271.31 37.88 319.72 35.46 319.72"/><path class="cls-4" d="M46.25,284.34c8.7,1.15,20.9-.49,25.36-14.79l.25,3.11s-1.63,7.8-8.44,11.25a25.85,25.85,0,0,1-17.81,2Z"/><path class="cls-21" d="M530.43,284.31c1.11,8.78,2.31,18.07,4.55,20s18.06,3,20.21,2.19,8.33-7.18,8.46-9.52-2.79-21.43-2.79-21.43.67,18.89.49,20.82-5.05,7.56-7.37,7.94-15.22.46-17-1.64S530.43,284.31,530.43,284.31Z"/><path class="cls-18" d="M605.31,257.15s4,15.43,6.45,29.45,3.71,33.12,3.71,33.12H613a246.79,246.79,0,0,0-3.45-33.12c-3.05-16.86-6.5-29.45-6.5-29.45Z"/><path class="cls-21" d="M571,276c2.07,12.26,3.46,22.53,1.69,31.67s-2.27,12.06-2.27,12.06H572l2.62-13.92c.89-4.67.64-12.25-2.08-30.25Z"/><path class="cls-21" d="M581.49,271.44c1.15,7.71,2.18,16.58,3.08,18.64s6.9,3.87,6.9,3.87l0,1.66s-6.61-1.32-8.54-4.46S581.49,271.44,581.49,271.44Z"/></g></g></svg>