<?xml version="1.0" encoding="UTF-8" standalone="no"?>
<!DOCTYPE svg PUBLIC "-//W3C//DTD SVG 1.1//EN"
 "http://www.w3.org/Graphics/SVG/1.1/DTD/svg11.dtd">
<!-- Generated by graphviz version 2.47.3 (20210619.1520)
 -->
<!-- Title: dependencies Pages: 1 -->
<svg width="2577pt" height="247pt"
 viewBox="0.00 0.00 2577.00 246.80" xmlns="http://www.w3.org/2000/svg" xmlns:xlink="http://www.w3.org/1999/xlink">
<g id="graph0" class="graph" transform="scale(1 1) rotate(0) translate(4 242.8)">
<title>dependencies</title>
<polygon fill="white" stroke="transparent" points="-4,4 -4,-242.8 2573,-242.8 2573,4 -4,4"/>
<text text-anchor="middle" x="1284.5" y="-8.2" font-family="sans-serif" font-size="14.00">dependencies</text>
<g id="clust1" class="cluster">
<title>cluster_AppModule</title>
<polygon fill="none" stroke="black" stroke-dasharray="1,5" points="8,-32.8 8,-230.8 2561,-230.8 2561,-32.8 8,-32.8"/>
</g>
<g id="clust19" class="cluster">
<title>cluster_AppModule_imports</title>
<polygon fill="none" stroke="black" points="2409,-40.8 2409,-92.8 2553,-92.8 2553,-40.8 2409,-40.8"/>
</g>
<g id="clust21" class="cluster">
<title>cluster_AppModule_bootstrap</title>
<polygon fill="none" stroke="black" points="1174,-170.8 1174,-222.8 1298,-222.8 1298,-170.8 1174,-170.8"/>
</g>
<g id="clust2" class="cluster">
<title>cluster_AppModule_declarations</title>
<polygon fill="none" stroke="black" points="16,-40.8 16,-92.8 2401,-92.8 2401,-40.8 16,-40.8"/>
</g>
<!-- AlertasComponent -->
<g id="node1" class="node">
<title>AlertasComponent</title>
<polygon fill="#ffffb3" stroke="black" points="2392.75,-84.8 2271.25,-84.8 2271.25,-48.8 2392.75,-48.8 2392.75,-84.8"/>
<text text-anchor="middle" x="2332" y="-62.6" font-family="Times,serif" font-size="14.00">AlertasComponent</text>
</g>
<!-- AppModule -->
<g id="node17" class="node">
<title>AppModule</title>
<polygon fill="#8dd3c7" stroke="black" points="1277.66,-149.8 1274.66,-153.8 1253.66,-153.8 1250.66,-149.8 1194.34,-149.8 1194.34,-113.8 1277.66,-113.8 1277.66,-149.8"/>
<text text-anchor="middle" x="1236" y="-127.6" font-family="Times,serif" font-size="14.00">AppModule</text>
</g>
<!-- AlertasComponent&#45;&gt;AppModule -->
<g id="edge1" class="edge">
<title>AlertasComponent&#45;&gt;AppModule</title>
<path fill="none" stroke="black" d="M2332,-84.96C2332,-107.15 2332,-141.8 2332,-141.8 2332,-141.8 1287.96,-141.8 1287.96,-141.8"/>
<polygon fill="black" stroke="black" points="1287.96,-138.3 1277.96,-141.8 1287.96,-145.3 1287.96,-138.3"/>
</g>
<!-- AppComponent -->
<g id="node2" class="node">
<title>AppComponent</title>
<polygon fill="#ffffb3" stroke="black" points="2252.94,-84.8 2147.06,-84.8 2147.06,-48.8 2252.94,-48.8 2252.94,-84.8"/>
<text text-anchor="middle" x="2200" y="-62.6" font-family="Times,serif" font-size="14.00">AppComponent</text>
</g>
<!-- AppComponent&#45;&gt;AppModule -->
<g id="edge2" class="edge">
<title>AppComponent&#45;&gt;AppModule</title>
<path fill="none" stroke="black" d="M2200,-85.08C2200,-106.12 2200,-137.8 2200,-137.8 2200,-137.8 1287.73,-137.8 1287.73,-137.8"/>
<polygon fill="black" stroke="black" points="1287.73,-134.3 1277.73,-137.8 1287.73,-141.3 1287.73,-134.3"/>
</g>
<!-- CadastroComponent -->
<g id="node3" class="node">
<title>CadastroComponent</title>
<polygon fill="#ffffb3" stroke="black" points="2129.59,-84.8 1998.41,-84.8 1998.41,-48.8 2129.59,-48.8 2129.59,-84.8"/>
<text text-anchor="middle" x="2064" y="-62.6" font-family="Times,serif" font-size="14.00">CadastroComponent</text>
</g>
<!-- CadastroComponent&#45;&gt;AppModule -->
<g id="edge3" class="edge">
<title>CadastroComponent&#45;&gt;AppModule</title>
<path fill="none" stroke="black" d="M2064,-85.11C2064,-104.95 2064,-133.8 2064,-133.8 2064,-133.8 1287.91,-133.8 1287.91,-133.8"/>
<polygon fill="black" stroke="black" points="1287.91,-130.3 1277.91,-133.8 1287.91,-137.3 1287.91,-130.3"/>
</g>
<!-- ComoFuncionaComponent -->
<g id="node4" class="node">
<title>ComoFuncionaComponent</title>
<polygon fill="#ffffb3" stroke="black" points="1980.66,-84.8 1813.34,-84.8 1813.34,-48.8 1980.66,-48.8 1980.66,-84.8"/>
<text text-anchor="middle" x="1897" y="-62.6" font-family="Times,serif" font-size="14.00">ComoFuncionaComponent</text>
</g>
<!-- ComoFuncionaComponent&#45;&gt;AppModule -->
<g id="edge4" class="edge">
<title>ComoFuncionaComponent&#45;&gt;AppModule</title>
<path fill="none" stroke="black" d="M1897,-85.02C1897,-103.63 1897,-129.8 1897,-129.8 1897,-129.8 1287.85,-129.8 1287.85,-129.8"/>
<polygon fill="black" stroke="black" points="1287.85,-126.3 1277.85,-129.8 1287.85,-133.3 1287.85,-126.3"/>
</g>
<!-- DuvidasFrequentesComponent -->
<g id="node5" class="node">
<title>DuvidasFrequentesComponent</title>
<polygon fill="#ffffb3" stroke="black" points="1794.91,-84.8 1605.09,-84.8 1605.09,-48.8 1794.91,-48.8 1794.91,-84.8"/>
<text text-anchor="middle" x="1700" y="-62.6" font-family="Times,serif" font-size="14.00">DuvidasFrequentesComponent</text>
</g>
<!-- DuvidasFrequentesComponent&#45;&gt;AppModule -->
<g id="edge5" class="edge">
<title>DuvidasFrequentesComponent&#45;&gt;AppModule</title>
<path fill="none" stroke="black" d="M1700,-84.82C1700,-102.17 1700,-125.8 1700,-125.8 1700,-125.8 1288,-125.8 1288,-125.8"/>
<polygon fill="black" stroke="black" points="1288,-122.3 1278,-125.8 1288,-129.3 1288,-122.3"/>
</g>
<!-- EquipeComponent -->
<g id="node6" class="node">
<title>EquipeComponent</title>
<polygon fill="#ffffb3" stroke="black" points="1587.49,-84.8 1466.51,-84.8 1466.51,-48.8 1587.49,-48.8 1587.49,-84.8"/>
<text text-anchor="middle" x="1527" y="-62.6" font-family="Times,serif" font-size="14.00">EquipeComponent</text>
</g>
<!-- EquipeComponent&#45;&gt;AppModule -->
<g id="edge6" class="edge">
<title>EquipeComponent&#45;&gt;AppModule</title>
<path fill="none" stroke="black" d="M1527,-84.81C1527,-100.85 1527,-121.8 1527,-121.8 1527,-121.8 1287.69,-121.8 1287.69,-121.8"/>
<polygon fill="black" stroke="black" points="1287.69,-118.3 1277.69,-121.8 1287.69,-125.3 1287.69,-118.3"/>
</g>
<!-- FacaParteComponent -->
<g id="node7" class="node">
<title>FacaParteComponent</title>
<polygon fill="#ffffb3" stroke="black" points="1448.02,-84.8 1311.98,-84.8 1311.98,-48.8 1448.02,-48.8 1448.02,-84.8"/>
<text text-anchor="middle" x="1380" y="-62.6" font-family="Times,serif" font-size="14.00">FacaParteComponent</text>
</g>
<!-- FacaParteComponent&#45;&gt;AppModule -->
<g id="edge7" class="edge">
<title>FacaParteComponent&#45;&gt;AppModule</title>
<path fill="none" stroke="black" d="M1380,-84.92C1380,-99.58 1380,-117.8 1380,-117.8 1380,-117.8 1288.04,-117.8 1288.04,-117.8"/>
<polygon fill="black" stroke="black" points="1288.04,-114.3 1278.04,-117.8 1288.04,-121.3 1288.04,-114.3"/>
</g>
<!-- HomeComponent -->
<g id="node8" class="node">
<title>HomeComponent</title>
<polygon fill="#ffffb3" stroke="black" points="1293.55,-84.8 1178.45,-84.8 1178.45,-48.8 1293.55,-48.8 1293.55,-84.8"/>
<text text-anchor="middle" x="1236" y="-62.6" font-family="Times,serif" font-size="14.00">HomeComponent</text>
</g>
<!-- HomeComponent&#45;&gt;AppModule -->
<g id="edge8" class="edge">
<title>HomeComponent&#45;&gt;AppModule</title>
<path fill="none" stroke="black" d="M1236,-84.91C1236,-84.91 1236,-103.79 1236,-103.79"/>
<polygon fill="black" stroke="black" points="1232.5,-103.79 1236,-113.79 1239.5,-103.79 1232.5,-103.79"/>
</g>
<!-- LoginComponent -->
<g id="node9" class="node">
<title>LoginComponent</title>
<polygon fill="#ffffb3" stroke="black" points="1160.28,-84.8 1045.72,-84.8 1045.72,-48.8 1160.28,-48.8 1160.28,-84.8"/>
<text text-anchor="middle" x="1103" y="-62.6" font-family="Times,serif" font-size="14.00">LoginComponent</text>
</g>
<!-- LoginComponent&#45;&gt;AppModule -->
<g id="edge9" class="edge">
<title>LoginComponent&#45;&gt;AppModule</title>
<path fill="none" stroke="black" d="M1103,-84.92C1103,-99.58 1103,-117.8 1103,-117.8 1103,-117.8 1184.28,-117.8 1184.28,-117.8"/>
<polygon fill="black" stroke="black" points="1184.28,-121.3 1194.28,-117.8 1184.28,-114.3 1184.28,-121.3"/>
</g>
<!-- MenuComponent -->
<g id="node10" class="node">
<title>MenuComponent</title>
<polygon fill="#ffffb3" stroke="black" points="1027.99,-84.8 914.01,-84.8 914.01,-48.8 1027.99,-48.8 1027.99,-84.8"/>
<text text-anchor="middle" x="971" y="-62.6" font-family="Times,serif" font-size="14.00">MenuComponent</text>
</g>
<!-- MenuComponent&#45;&gt;AppModule -->
<g id="edge10" class="edge">
<title>MenuComponent&#45;&gt;AppModule</title>
<path fill="none" stroke="black" d="M971,-84.81C971,-100.85 971,-121.8 971,-121.8 971,-121.8 1184.3,-121.8 1184.3,-121.8"/>
<polygon fill="black" stroke="black" points="1184.3,-125.3 1194.3,-121.8 1184.3,-118.3 1184.3,-125.3"/>
</g>
<!-- OdsComponent -->
<g id="node11" class="node">
<title>OdsComponent</title>
<polygon fill="#ffffb3" stroke="black" points="895.88,-84.8 792.12,-84.8 792.12,-48.8 895.88,-48.8 895.88,-84.8"/>
<text text-anchor="middle" x="844" y="-62.6" font-family="Times,serif" font-size="14.00">OdsComponent</text>
</g>
<!-- OdsComponent&#45;&gt;AppModule -->
<g id="edge11" class="edge">
<title>OdsComponent&#45;&gt;AppModule</title>
<path fill="none" stroke="black" d="M844,-84.82C844,-102.17 844,-125.8 844,-125.8 844,-125.8 1184.05,-125.8 1184.05,-125.8"/>
<polygon fill="black" stroke="black" points="1184.05,-129.3 1194.05,-125.8 1184.05,-122.3 1184.05,-129.3"/>
</g>
<!-- OngsComponent -->
<g id="node12" class="node">
<title>OngsComponent</title>
<polygon fill="#ffffb3" stroke="black" points="774.38,-84.8 663.62,-84.8 663.62,-48.8 774.38,-48.8 774.38,-84.8"/>
<text text-anchor="middle" x="719" y="-62.6" font-family="Times,serif" font-size="14.00">OngsComponent</text>
</g>
<!-- OngsComponent&#45;&gt;AppModule -->
<g id="edge12" class="edge">
<title>OngsComponent&#45;&gt;AppModule</title>
<path fill="none" stroke="black" d="M719,-85.02C719,-103.63 719,-129.8 719,-129.8 719,-129.8 1184.13,-129.8 1184.13,-129.8"/>
<polygon fill="black" stroke="black" points="1184.13,-133.3 1194.13,-129.8 1184.13,-126.3 1184.13,-133.3"/>
</g>
<!-- ProdutoDeleteComponent -->
<g id="node13" class="node">
<title>ProdutoDeleteComponent</title>
<polygon fill="#ffffb3" stroke="black" points="645.2,-84.8 482.8,-84.8 482.8,-48.8 645.2,-48.8 645.2,-84.8"/>
<text text-anchor="middle" x="564" y="-62.6" font-family="Times,serif" font-size="14.00">ProdutoDeleteComponent</text>
</g>
<!-- ProdutoDeleteComponent&#45;&gt;AppModule -->
<g id="edge13" class="edge">
<title>ProdutoDeleteComponent&#45;&gt;AppModule</title>
<path fill="none" stroke="black" d="M564,-85.11C564,-104.95 564,-133.8 564,-133.8 564,-133.8 1184.22,-133.8 1184.22,-133.8"/>
<polygon fill="black" stroke="black" points="1184.22,-137.3 1194.22,-133.8 1184.22,-130.3 1184.22,-137.3"/>
</g>
<!-- ProdutoEditComponent -->
<g id="node14" class="node">
<title>ProdutoEditComponent</title>
<polygon fill="#ffffb3" stroke="black" points="464.5,-84.8 315.5,-84.8 315.5,-48.8 464.5,-48.8 464.5,-84.8"/>
<text text-anchor="middle" x="390" y="-62.6" font-family="Times,serif" font-size="14.00">ProdutoEditComponent</text>
</g>
<!-- ProdutoEditComponent&#45;&gt;AppModule -->
<g id="edge14" class="edge">
<title>ProdutoEditComponent&#45;&gt;AppModule</title>
<path fill="none" stroke="black" d="M390,-85.08C390,-106.12 390,-137.8 390,-137.8 390,-137.8 1184.34,-137.8 1184.34,-137.8"/>
<polygon fill="black" stroke="black" points="1184.34,-141.3 1194.34,-137.8 1184.34,-134.3 1184.34,-141.3"/>
</g>
<!-- ProdutosComponent -->
<g id="node15" class="node">
<title>ProdutosComponent</title>
<polygon fill="#ffffb3" stroke="black" points="297.61,-84.8 166.39,-84.8 166.39,-48.8 297.61,-48.8 297.61,-84.8"/>
<text text-anchor="middle" x="232" y="-62.6" font-family="Times,serif" font-size="14.00">ProdutosComponent</text>
</g>
<!-- ProdutosComponent&#45;&gt;AppModule -->
<g id="edge15" class="edge">
<title>ProdutosComponent&#45;&gt;AppModule</title>
<path fill="none" stroke="black" d="M232,-84.96C232,-107.15 232,-141.8 232,-141.8 232,-141.8 1184.14,-141.8 1184.14,-141.8"/>
<polygon fill="black" stroke="black" points="1184.14,-145.3 1194.14,-141.8 1184.14,-138.3 1184.14,-145.3"/>
</g>
<!-- RodapeComponent -->
<g id="node16" class="node">
<title>RodapeComponent</title>
<polygon fill="#ffffb3" stroke="black" points="148.1,-84.8 23.9,-84.8 23.9,-48.8 148.1,-48.8 148.1,-84.8"/>
<text text-anchor="middle" x="86" y="-62.6" font-family="Times,serif" font-size="14.00">RodapeComponent</text>
</g>
<!-- RodapeComponent&#45;&gt;AppModule -->
<g id="edge16" class="edge">
<title>RodapeComponent&#45;&gt;AppModule</title>
<path fill="none" stroke="black" d="M86,-85.12C86,-108.46 86,-145.8 86,-145.8 86,-145.8 1184.05,-145.8 1184.05,-145.8"/>
<polygon fill="black" stroke="black" points="1184.05,-149.3 1194.05,-145.8 1184.05,-142.3 1184.05,-149.3"/>
</g>
<!-- AppComponent  -->
<g id="node19" class="node">
<title>AppComponent </title>
<polygon fill="#80b1d3" stroke="black" points="1290.44,-214.8 1181.56,-214.8 1181.56,-178.8 1290.44,-178.8 1290.44,-214.8"/>
<text text-anchor="middle" x="1236" y="-192.6" font-family="Times,serif" font-size="14.00">AppComponent </text>
</g>
<!-- AppModule&#45;&gt;AppComponent  -->
<g id="edge18" class="edge">
<title>AppModule&#45;&gt;AppComponent </title>
<path fill="none" stroke="black" stroke-dasharray="1,5" d="M1236,-149.91C1236,-149.91 1236,-168.79 1236,-168.79"/>
<polygon fill="black" stroke="black" points="1232.5,-168.79 1236,-178.79 1239.5,-168.79 1232.5,-168.79"/>
</g>
<!-- AppRoutingModule -->
<g id="node18" class="node">
<title>AppRoutingModule</title>
<polygon fill="#8dd3c7" stroke="black" points="2545.27,-84.8 2542.27,-88.8 2521.27,-88.8 2518.27,-84.8 2416.73,-84.8 2416.73,-48.8 2545.27,-48.8 2545.27,-84.8"/>
<text text-anchor="middle" x="2481" y="-62.6" font-family="Times,serif" font-size="14.00">AppRoutingModule</text>
</g>
<!-- AppRoutingModule&#45;&gt;AppModule -->
<g id="edge17" class="edge">
<title>AppRoutingModule&#45;&gt;AppModule</title>
<path fill="none" stroke="black" d="M2481,-85.12C2481,-108.46 2481,-145.8 2481,-145.8 2481,-145.8 1287.78,-145.8 1287.78,-145.8"/>
<polygon fill="black" stroke="black" points="1287.78,-142.3 1277.78,-145.8 1287.78,-149.3 1287.78,-142.3"/>
</g>
</g>
</svg>
