<svg width="497" height="437" viewBox="0 0 497 437" fill="none" xmlns="http://www.w3.org/2000/svg">
<path fill-rule="evenodd" clip-rule="evenodd" d="M300.864 134.626H196.004L137.898 32.7182C125.588 11.1283 98.1062 3.60568 76.5163 15.9159L66.0918 21.8597C44.502 34.1699 36.9793 61.6513 49.2895 83.2412L78.5885 134.626H54C29.1472 134.626 9 154.774 9 179.626V191.626C9 212.175 22.7734 229.507 41.5919 234.894L84.3227 394.279C89.5963 413.95 107.423 427.626 127.788 427.626H369.14C389.183 427.626 406.809 414.371 412.372 395.115L459.002 233.698C475.955 227.246 488 210.843 488 191.626V179.626C488 154.774 467.853 134.626 443 134.626H418.279L447.578 83.2412C459.889 61.6513 452.366 34.1699 430.776 21.8597L420.352 15.9159C398.762 3.60568 371.28 11.1283 358.97 32.7182L300.864 134.626ZM437.339 236.626H62.7627L103.641 389.1C106.57 400.028 116.474 407.626 127.788 407.626H369.14C380.275 407.626 390.067 400.262 393.158 389.565L437.339 236.626ZM172.981 134.626H101.611L66.6637 73.3347C59.8247 61.3403 64.0039 46.0729 75.9983 39.2339L86.4228 33.29C98.4172 26.451 113.685 30.6303 120.524 42.6247L172.981 134.626ZM430.204 73.3347L395.257 134.626H323.887L376.344 42.6247C383.183 30.6303 398.451 26.451 410.445 33.29L420.87 39.2339C432.864 46.0729 437.043 61.3403 430.204 73.3347ZM54 154.626H443C456.807 154.626 468 165.819 468 179.626V191.626C468 205.434 456.807 216.626 443 216.626H54C40.1929 216.626 29 205.434 29 191.626V179.626C29 165.819 40.1929 154.626 54 154.626ZM242 277.626C234.268 277.626 228 283.894 228 291.626V362.626C228 370.358 234.268 376.626 242 376.626H254C261.732 376.626 268 370.358 268 362.626V291.626C268 283.894 261.732 277.626 254 277.626H242ZM361.268 289.396C354.054 286.616 345.951 290.211 343.171 297.426L324.863 344.937C322.083 352.151 325.678 360.254 332.892 363.034L343.384 367.077C350.599 369.857 358.701 366.262 361.481 359.047L379.789 311.537C382.57 304.322 378.975 296.219 371.76 293.439L361.268 289.396ZM152.271 297.426C149.491 290.211 141.388 286.616 134.173 289.396L123.682 293.439C116.467 296.219 112.872 304.322 115.652 311.537L133.96 359.047C136.74 366.262 144.843 369.857 152.058 367.077L162.549 363.034C169.764 360.254 173.359 352.151 170.579 344.937L152.271 297.426Z" fill="#012340"/>
<path d="M196.004 134.626L188.186 139.084L190.776 143.626H196.004V134.626ZM300.864 134.626V143.626H306.092L308.682 139.084L300.864 134.626ZM137.898 32.7182L145.716 28.2603L145.716 28.2603L137.898 32.7182ZM76.5163 15.9159L80.9743 23.7342L80.9743 23.7342L76.5163 15.9159ZM66.0918 21.8597L61.6339 14.0414L61.6339 14.0414L66.0918 21.8597ZM49.2895 83.2412L41.4711 87.6991L41.4711 87.6991L49.2895 83.2412ZM78.5885 134.626V143.626H94.0804L86.4069 130.169L78.5885 134.626ZM41.5919 234.894L50.2849 232.563L48.9659 227.643L44.0687 226.242L41.5919 234.894ZM84.3227 394.279L75.6297 396.61L75.6297 396.61L84.3227 394.279ZM412.372 395.115L403.726 392.618L403.726 392.618L412.372 395.115ZM459.002 233.698L455.801 225.287L451.603 226.884L450.356 231.2L459.002 233.698ZM418.279 134.626L410.461 130.169L402.788 143.626H418.279V134.626ZM447.578 83.2412L455.397 87.6991L455.397 87.6991L447.578 83.2412ZM430.776 21.8597L426.318 29.6781L426.318 29.6781L430.776 21.8597ZM420.352 15.9159L415.894 23.7342L415.894 23.7342L420.352 15.9159ZM358.97 32.7182L351.152 28.2603L351.152 28.2603L358.97 32.7182ZM437.339 236.626L445.985 239.124L449.306 227.626H437.339V236.626ZM62.7627 236.626V227.626H51.032L54.0697 238.957L62.7627 236.626ZM103.641 389.1L94.9475 391.431L94.9475 391.431L103.641 389.1ZM393.158 389.565L401.804 392.063L401.804 392.063L393.158 389.565ZM101.611 134.626L93.7928 139.084L96.3826 143.626H101.611V134.626ZM172.981 134.626V143.626H188.473L180.8 130.169L172.981 134.626ZM66.6637 73.3347L74.482 68.8768L66.6637 73.3347ZM75.9983 39.2339L80.4562 47.0523L80.4562 47.0523L75.9983 39.2339ZM86.4228 33.29L90.8807 41.1084L86.4228 33.29ZM120.524 42.6247L112.705 47.0826L112.705 47.0826L120.524 42.6247ZM395.257 134.626V143.626H400.485L403.075 139.084L395.257 134.626ZM430.204 73.3347L438.023 77.7926L438.023 77.7926L430.204 73.3347ZM323.887 134.626L316.068 130.169L308.395 143.626H323.887V134.626ZM376.344 42.6247L368.526 38.1668L368.526 38.1668L376.344 42.6247ZM410.445 33.29L405.987 41.1084L410.445 33.29ZM420.87 39.2339L416.412 47.0523L416.412 47.0523L420.87 39.2339ZM343.171 297.426L334.773 294.19L334.773 294.19L343.171 297.426ZM361.268 289.396L364.505 280.998L364.505 280.998L361.268 289.396ZM324.863 344.937L333.261 348.173L333.261 348.173L324.863 344.937ZM332.892 363.034L329.656 371.432L329.656 371.432L332.892 363.034ZM343.384 367.077L340.148 375.475L340.148 375.475L343.384 367.077ZM361.481 359.047L353.083 355.811L353.083 355.811L361.481 359.047ZM379.789 311.537L371.391 308.301L371.391 308.301L379.789 311.537ZM371.76 293.439L368.524 301.837L368.524 301.837L371.76 293.439ZM134.173 289.396L130.937 280.998L130.937 280.998L134.173 289.396ZM152.271 297.426L143.873 300.662L143.873 300.662L152.271 297.426ZM123.682 293.439L126.918 301.837L126.918 301.837L123.682 293.439ZM115.652 311.537L124.05 308.301L124.05 308.301L115.652 311.537ZM133.96 359.047L125.562 362.284L125.562 362.284L133.96 359.047ZM152.058 367.077L148.822 358.679L148.822 358.679L152.058 367.077ZM162.549 363.034L165.785 371.432L165.785 371.432L162.549 363.034ZM170.579 344.937L178.977 341.7L178.977 341.7L170.579 344.937ZM196.004 143.626H300.864V125.626H196.004V143.626ZM130.079 37.1761L188.186 139.084L203.823 130.169L145.716 28.2603L130.079 37.1761ZM80.9743 23.7342C98.2461 13.8861 120.231 19.9042 130.079 37.1761L145.716 28.2603C130.944 2.35247 97.9663 -6.67473 72.0584 8.09748L80.9743 23.7342ZM70.5497 29.6781L80.9743 23.7342L72.0584 8.09748L61.6339 14.0414L70.5497 29.6781ZM57.1079 78.7833C47.2597 61.5114 53.2779 39.5263 70.5497 29.6781L61.6339 14.0414C35.7261 28.8136 26.6989 61.7913 41.4711 87.6991L57.1079 78.7833ZM86.4069 130.169L57.1079 78.7833L41.4711 87.6991L70.7701 139.084L86.4069 130.169ZM54 143.626H78.5885V125.626H54V143.626ZM18 179.626C18 159.744 34.1177 143.626 54 143.626V125.626C24.1766 125.626 0 149.803 0 179.626H18ZM18 191.626V179.626H0V191.626H18ZM44.0687 226.242C29.0087 221.931 18 208.053 18 191.626H0C0 216.298 16.5381 237.084 39.1152 243.547L44.0687 226.242ZM32.8989 237.225L75.6297 396.61L93.0158 391.949L50.2849 232.563L32.8989 237.225ZM75.6297 396.61C81.958 420.214 103.35 436.626 127.788 436.626V418.626C111.496 418.626 97.2346 407.685 93.0158 391.949L75.6297 396.61ZM127.788 436.626H369.14V418.626H127.788V436.626ZM369.14 436.626C393.191 436.626 414.343 420.72 421.018 397.613L403.726 392.618C399.276 408.022 385.174 418.626 369.14 418.626V436.626ZM421.018 397.613L467.649 236.196L450.356 231.2L403.726 392.618L421.018 397.613ZM479 191.626C479 206.986 469.378 220.12 455.801 225.287L462.203 242.11C482.532 234.373 497 214.701 497 191.626H479ZM479 179.626V191.626H497V179.626H479ZM443 143.626C462.882 143.626 479 159.744 479 179.626H497C497 149.803 472.823 125.626 443 125.626V143.626ZM418.279 143.626H443V125.626H418.279V143.626ZM439.76 78.7833L410.461 130.169L426.098 139.084L455.397 87.6991L439.76 78.7833ZM426.318 29.6781C443.59 39.5263 449.608 61.5114 439.76 78.7833L455.397 87.6991C470.169 61.7913 461.142 28.8136 435.234 14.0414L426.318 29.6781ZM415.894 23.7342L426.318 29.6781L435.234 14.0414L424.81 8.09748L415.894 23.7342ZM366.789 37.1761C376.637 19.9042 398.622 13.8861 415.894 23.7342L424.81 8.09748C398.902 -6.67474 365.924 2.35247 351.152 28.2603L366.789 37.1761ZM308.682 139.084L366.789 37.1761L351.152 28.2603L293.045 130.169L308.682 139.084ZM437.339 227.626H62.7627V245.626H437.339V227.626ZM112.334 386.77L71.4557 234.296L54.0697 238.957L94.9475 391.431L112.334 386.77ZM127.788 398.626C120.547 398.626 114.209 393.764 112.334 386.77L94.9475 391.431C98.932 406.293 112.401 416.626 127.788 416.626V398.626ZM369.14 398.626H127.788V416.626H369.14V398.626ZM384.511 387.067C382.533 393.913 376.266 398.626 369.14 398.626V416.626C384.283 416.626 397.601 406.611 401.804 392.063L384.511 387.067ZM428.692 234.129L384.511 387.067L401.804 392.063L445.985 239.124L428.692 234.129ZM101.611 143.626H172.981V125.626H101.611V143.626ZM58.8453 77.7926L93.7928 139.084L109.43 130.169L74.482 68.8768L58.8453 77.7926ZM71.5404 31.4155C55.2281 40.7166 49.5443 61.4803 58.8453 77.7926L74.482 68.8768C70.1051 61.2004 72.7798 51.4292 80.4562 47.0523L71.5404 31.4155ZM81.9649 25.4717L71.5404 31.4155L80.4562 47.0523L90.8807 41.1084L81.9649 25.4717ZM128.342 38.1668C119.041 21.8544 98.2772 16.1706 81.9649 25.4717L90.8807 41.1084C98.5571 36.7315 108.328 39.4062 112.705 47.0826L128.342 38.1668ZM180.8 130.169L128.342 38.1668L112.705 47.0826L165.163 139.084L180.8 130.169ZM403.075 139.084L438.023 77.7926L422.386 68.8768L387.438 130.169L403.075 139.084ZM323.887 143.626H395.257V125.626H323.887V143.626ZM368.526 38.1668L316.068 130.169L331.705 139.084L384.163 47.0826L368.526 38.1668ZM414.903 25.4717C398.591 16.1706 377.827 21.8545 368.526 38.1668L384.163 47.0826C388.54 39.4062 398.311 36.7315 405.987 41.1084L414.903 25.4717ZM425.328 31.4155L414.903 25.4717L405.987 41.1084L416.412 47.0523L425.328 31.4155ZM438.023 77.7926C447.324 61.4803 441.64 40.7166 425.328 31.4155L416.412 47.0523C424.088 51.4293 426.763 61.2004 422.386 68.8768L438.023 77.7926ZM443 145.626H54V163.626H443V145.626ZM477 179.626C477 160.849 461.778 145.626 443 145.626V163.626C451.837 163.626 459 170.79 459 179.626H477ZM477 191.626V179.626H459V191.626H477ZM443 225.626C461.778 225.626 477 210.404 477 191.626H459C459 200.463 451.837 207.626 443 207.626V225.626ZM54 225.626H443V207.626H54V225.626ZM20 191.626C20 210.404 35.2223 225.626 54 225.626V207.626C45.1634 207.626 38 200.463 38 191.626H20ZM20 179.626V191.626H38V179.626H20ZM54 145.626C35.2223 145.626 20 160.849 20 179.626H38C38 170.79 45.1634 163.626 54 163.626V145.626ZM237 291.626C237 288.865 239.239 286.626 242 286.626V268.626C229.297 268.626 219 278.924 219 291.626H237ZM237 362.626V291.626H219V362.626H237ZM242 367.626C239.239 367.626 237 365.388 237 362.626H219C219 375.329 229.297 385.626 242 385.626V367.626ZM254 367.626H242V385.626H254V367.626ZM259 362.626C259 365.388 256.761 367.626 254 367.626V385.626C266.703 385.626 277 375.329 277 362.626H259ZM259 291.626V362.626H277V291.626H259ZM254 286.626C256.761 286.626 259 288.865 259 291.626H277C277 278.924 266.703 268.626 254 268.626V286.626ZM242 286.626H254V268.626H242V286.626ZM351.569 300.662C352.562 298.085 355.456 296.801 358.032 297.794L364.505 280.998C352.652 276.431 339.34 282.337 334.773 294.19L351.569 300.662ZM333.261 348.173L351.569 300.662L334.773 294.19L316.465 341.7L333.261 348.173ZM336.129 354.636C333.552 353.643 332.268 350.749 333.261 348.173L316.465 341.7C311.897 353.553 317.803 366.865 329.656 371.432L336.129 354.636ZM346.62 358.679L336.129 354.636L329.656 371.432L340.148 375.475L346.62 358.679ZM353.083 355.811C352.09 358.388 349.197 359.672 346.62 358.679L340.148 375.475C352.001 380.043 365.312 374.136 369.879 362.284L353.083 355.811ZM371.391 308.301L353.083 355.811L369.879 362.284L388.187 314.773L371.391 308.301ZM368.524 301.837C371.1 302.83 372.384 305.724 371.391 308.301L388.187 314.773C392.755 302.92 386.849 289.608 374.996 285.041L368.524 301.837ZM358.032 297.794L368.524 301.837L374.996 285.041L364.505 280.998L358.032 297.794ZM137.409 297.794C139.986 296.801 142.88 298.085 143.873 300.662L160.669 294.19C156.101 282.337 142.79 276.431 130.937 280.998L137.409 297.794ZM126.918 301.837L137.409 297.794L130.937 280.998L120.446 285.041L126.918 301.837ZM124.05 308.301C123.057 305.724 124.341 302.83 126.918 301.837L120.446 285.041C108.593 289.608 102.687 302.92 107.254 314.773L124.05 308.301ZM142.358 355.811L124.05 308.301L107.254 314.773L125.562 362.284L142.358 355.811ZM148.822 358.679C146.245 359.672 143.351 358.388 142.358 355.811L125.562 362.284C130.13 374.136 143.441 380.043 155.294 375.475L148.822 358.679ZM159.313 354.636L148.822 358.679L155.294 375.475L165.785 371.432L159.313 354.636ZM162.181 348.173C163.174 350.749 161.89 353.643 159.313 354.636L165.785 371.432C177.638 366.865 183.544 353.553 178.977 341.7L162.181 348.173ZM143.873 300.662L162.181 348.173L178.977 341.7L160.669 294.19L143.873 300.662Z" fill="#012340"/>
</svg>
